<svg width="106" height="113" viewBox="0 0 106 113" fill="none" xmlns="http://www.w3.org/2000/svg">
<path d="M0 56C0 28.3858 22.3858 6 50 6H99C99.5523 6 100 6.44772 100 7V56C100 83.6142 77.6142 106 50 106H0.999999C0.447714 106 0 105.552 0 105V56Z" fill="#E05D2A"/>
<path d="M56 11.5H105C105.276 11.5 105.5 11.7239 105.5 12V61C105.5 88.3381 83.3381 110.5 56 110.5H7C6.72386 110.5 6.5 110.276 6.5 110V61C6.5 33.6619 28.6619 11.5 56 11.5Z" stroke="#635D54"/>
<path d="M52.2034 48.408V64.68C52.2034 68.952 54.1954 71.088 58.1794 71.088C59.2834 71.088 60.4834 70.896 61.7794 70.512V77.64C60.1954 78.216 58.2754 78.504 56.0194 78.504C51.8914 78.504 48.7234 77.352 46.5154 75.048C44.3074 72.744 43.2034 69.432 43.2034 65.112V48.408H36.2194V41.64H43.2034V32.784L52.2034 29.76V41.64H61.8514V48.408H52.2034Z" fill="#FAFAFA"/>
</svg>
