<svg width="500" height="400" viewBox="0 0 500 400" fill="none" xmlns="http://www.w3.org/2000/svg">
<g clip-path="url(#clip0)">
<rect width="500" height="400" rx="15" fill="#FCEDE7"/>
<g filter="url(#filter0_d)">
<rect x="50" y="-46" width="400" height="400" rx="15" fill="#FAFAFA"/>
</g>
<path d="M209.356 299.492V305.82C209.356 307.481 210.131 308.312 211.68 308.312C212.109 308.312 212.576 308.237 213.08 308.088V310.86C212.464 311.084 211.717 311.196 210.84 311.196C209.235 311.196 208.003 310.748 207.144 309.852C206.285 308.956 205.856 307.668 205.856 305.988V299.492H203.14V296.86H205.856V293.416L209.356 292.24V296.86H213.108V299.492H209.356ZM223.129 296.524C223.671 296.524 224.137 296.599 224.529 296.748L224.501 299.94C223.904 299.697 223.288 299.576 222.653 299.576C221.459 299.576 220.544 299.921 219.909 300.612C219.293 301.303 218.985 302.217 218.985 303.356V311H215.513V300.864C215.513 299.371 215.439 298.036 215.289 296.86H218.565L218.845 299.352C219.2 298.437 219.76 297.737 220.525 297.252C221.291 296.767 222.159 296.524 223.129 296.524ZM226.478 296.86H229.95V311H226.478V296.86ZM230.146 290.448V293.892H226.254V290.448H230.146ZM238.959 311.224C236.402 311.224 234.367 310.627 232.855 309.432L233.835 306.968C235.347 308.088 237.074 308.648 239.015 308.648C239.855 308.648 240.499 308.508 240.947 308.228C241.414 307.948 241.647 307.556 241.647 307.052C241.647 306.623 241.488 306.287 241.171 306.044C240.854 305.783 240.312 305.559 239.547 305.372L237.195 304.84C234.619 304.28 233.331 302.964 233.331 300.892C233.331 300.033 233.574 299.277 234.059 298.624C234.544 297.952 235.226 297.429 236.103 297.056C236.98 296.683 237.998 296.496 239.155 296.496C240.163 296.496 241.134 296.655 242.067 296.972C243 297.271 243.822 297.709 244.531 298.288L243.495 300.668C242.076 299.623 240.62 299.1 239.127 299.1C238.324 299.1 237.699 299.249 237.251 299.548C236.803 299.847 236.579 300.257 236.579 300.78C236.579 301.191 236.71 301.517 236.971 301.76C237.251 302.003 237.718 302.208 238.371 302.376L240.779 302.908C242.179 303.225 243.196 303.72 243.831 304.392C244.484 305.045 244.811 305.904 244.811 306.968C244.811 308.275 244.288 309.311 243.243 310.076C242.198 310.841 240.77 311.224 238.959 311.224ZM255.898 296.496C259.277 296.496 260.966 298.437 260.966 302.32V311H257.466V302.488C257.466 301.368 257.252 300.556 256.822 300.052C256.393 299.529 255.73 299.268 254.834 299.268C253.77 299.268 252.912 299.613 252.258 300.304C251.605 300.976 251.278 301.872 251.278 302.992V311H247.806V290.392H251.278V298.904C251.764 298.139 252.408 297.551 253.21 297.14C254.013 296.711 254.909 296.496 255.898 296.496ZM278.201 296.86V311H274.757V308.732C274.328 309.516 273.712 310.132 272.909 310.58C272.107 311.009 271.192 311.224 270.165 311.224C268.933 311.224 267.841 310.925 266.889 310.328C265.937 309.731 265.2 308.881 264.677 307.78C264.155 306.679 263.893 305.4 263.893 303.944C263.893 302.488 264.155 301.2 264.677 300.08C265.219 298.941 265.965 298.064 266.917 297.448C267.869 296.813 268.952 296.496 270.165 296.496C271.192 296.496 272.107 296.72 272.909 297.168C273.712 297.597 274.328 298.204 274.757 298.988V296.86H278.201ZM271.117 308.48C272.275 308.48 273.171 308.079 273.805 307.276C274.44 306.473 274.757 305.344 274.757 303.888C274.757 302.395 274.44 301.247 273.805 300.444C273.171 299.641 272.265 299.24 271.089 299.24C269.932 299.24 269.027 299.66 268.373 300.5C267.739 301.321 267.421 302.469 267.421 303.944C267.421 305.4 267.739 306.52 268.373 307.304C269.027 308.088 269.941 308.48 271.117 308.48ZM290.077 296.496C291.291 296.496 292.364 296.813 293.297 297.448C294.249 298.064 294.987 298.941 295.509 300.08C296.051 301.2 296.321 302.488 296.321 303.944C296.321 305.4 296.06 306.679 295.537 307.78C295.015 308.881 294.277 309.731 293.325 310.328C292.392 310.925 291.309 311.224 290.077 311.224C289.051 311.224 288.136 311.009 287.333 310.58C286.531 310.132 285.915 309.516 285.485 308.732V317.048H282.013V300.864C282.013 299.371 281.939 298.036 281.789 296.86H285.065L285.345 299.296C285.719 298.419 286.325 297.737 287.165 297.252C288.005 296.748 288.976 296.496 290.077 296.496ZM289.125 308.48C290.301 308.48 291.207 308.088 291.841 307.304C292.476 306.52 292.793 305.4 292.793 303.944C292.793 302.469 292.476 301.321 291.841 300.5C291.207 299.66 290.311 299.24 289.153 299.24C287.959 299.24 287.044 299.641 286.409 300.444C285.775 301.247 285.457 302.395 285.457 303.888C285.457 305.363 285.775 306.501 286.409 307.304C287.044 308.088 287.949 308.48 289.125 308.48ZM306.993 296.524C307.534 296.524 308.001 296.599 308.393 296.748L308.365 299.94C307.767 299.697 307.151 299.576 306.517 299.576C305.322 299.576 304.407 299.921 303.773 300.612C303.157 301.303 302.849 302.217 302.849 303.356V311H299.377V300.864C299.377 299.371 299.302 298.036 299.153 296.86H302.429L302.709 299.352C303.063 298.437 303.623 297.737 304.389 297.252C305.154 296.767 306.022 296.524 306.993 296.524ZM310.342 296.86H313.814V311H310.342V296.86ZM314.01 290.448V293.892H310.118V290.448H314.01ZM317.642 290.392H321.114V311H317.642V290.392ZM337.319 304.112H327.575C327.65 305.624 328.023 306.744 328.695 307.472C329.386 308.181 330.403 308.536 331.747 308.536C333.296 308.536 334.734 308.032 336.059 307.024L337.067 309.432C336.395 309.973 335.564 310.412 334.575 310.748C333.604 311.065 332.615 311.224 331.607 311.224C329.292 311.224 327.472 310.571 326.147 309.264C324.822 307.957 324.159 306.165 324.159 303.888C324.159 302.451 324.448 301.172 325.027 300.052C325.606 298.932 326.418 298.064 327.463 297.448C328.508 296.813 329.694 296.496 331.019 296.496C332.96 296.496 334.491 297.131 335.611 298.4C336.75 299.651 337.319 301.377 337.319 303.58V304.112ZM331.103 299.016C330.17 299.016 329.404 299.296 328.807 299.856C328.228 300.397 327.855 301.191 327.687 302.236H334.267C334.155 301.172 333.828 300.369 333.287 299.828C332.764 299.287 332.036 299.016 331.103 299.016Z" fill="#E05D2A"/>
<circle cx="171.409" cy="303.682" r="13.4091" fill="#E05D2A"/>
<circle cx="174.591" cy="301.409" r="12.9091" stroke="#635D54"/>
<path d="M260.82 170.001C290.891 170.001 315.268 145.671 315.268 115.658C315.268 85.6457 290.891 61.3156 260.82 61.3156C230.749 61.3156 206.371 85.6457 206.371 115.658C206.371 145.671 230.749 170.001 260.82 170.001Z" fill="#FCEDE7"/>
<path d="M250.518 85.4026H160.458V85.9901H250.518V85.4026Z" fill="#373737"/>
<path d="M337.342 101.559H160.458V102.146H337.342V101.559Z" fill="#373737"/>
<path d="M282.893 159.426C252.708 159.426 228.15 134.916 228.15 104.79C228.15 74.6631 252.708 50.1532 282.893 50.1532C313.078 50.1532 337.636 74.6631 337.636 104.79C337.636 134.916 313.078 159.426 282.893 159.426ZM282.893 50.7407C253.032 50.7407 228.739 74.987 228.739 104.79C228.739 134.593 253.032 158.839 282.893 158.839C312.754 158.839 337.047 134.593 337.047 104.79C337.047 74.987 312.754 50.7407 282.893 50.7407Z" fill="#373737"/>
<path d="M277.843 58.3468C281.812 58.3468 285.03 55.1351 285.03 51.1734C285.03 47.2116 281.812 44 277.843 44C273.873 44 270.655 47.2116 270.655 51.1734C270.655 55.1351 273.873 58.3468 277.843 58.3468Z" fill="#E05D2A"/>
<path d="M228.356 105.587C230.924 105.587 233.007 103.508 233.007 100.945C233.007 98.3815 230.924 96.3033 228.356 96.3033C225.787 96.3033 223.705 98.3815 223.705 100.945C223.705 103.508 225.787 105.587 228.356 105.587Z" fill="#FAFAFA"/>
<path d="M339.379 111.622C345.245 111.622 350 106.876 350 101.021C350 95.1668 345.245 90.4208 339.379 90.4208C333.513 90.4208 328.758 95.1668 328.758 101.021C328.758 106.876 333.513 111.622 339.379 111.622Z" fill="#E05D2A"/>
<path d="M231.11 140.135L237.491 143.795C238.136 144.165 238.855 144.39 239.597 144.455C240.339 144.519 241.086 144.421 241.786 144.168C242.486 143.915 243.122 143.513 243.65 142.989C244.178 142.465 244.586 141.832 244.844 141.135C245.121 140.385 245.219 139.58 245.128 138.786C245.037 137.991 244.761 137.229 244.321 136.56C243.881 135.891 243.29 135.335 242.596 134.936C241.901 134.537 241.123 134.306 240.323 134.262L232.596 133.838L209.321 126.807L205.569 112.785L195.757 118.286L202.504 134.228L231.11 140.135Z" fill="#F9E1B3"/>
<path d="M200.691 67.3566C199.215 69.0265 199.481 71.0353 200.556 72.6661C201.631 74.2968 203.42 75.6537 204.985 77.0926C205.991 78.017 206.921 78.998 207.372 80.1102C207.62 80.6788 207.701 81.3061 207.606 81.919C207.511 82.5319 207.243 83.1052 206.834 83.5721C205.809 84.7824 203.899 85.6021 202.036 86.3047C196.708 88.2997 191.211 89.8106 185.611 90.819C190.328 85.3171 192.69 79.121 192.344 73.1526C192.271 71.9 192.085 70.6358 192.523 69.3804C192.824 68.6269 193.3 67.9554 193.912 67.4212C194.524 66.8869 195.254 66.5053 196.042 66.3075C197.917 65.7701 200.387 66.3017 200.675 67.528" fill="#635D54"/>
<path d="M160.273 243.914L167.024 244.207L180.349 182.779L168.785 183.275L160.273 243.914Z" fill="#F9E1B3"/>
<path d="M227.781 230.732L222.204 233.661L187.32 182.005L198.43 177.123L227.781 230.732Z" fill="#F9E1B3"/>
<path d="M188.897 86.6926C194.795 86.6926 199.576 81.921 199.576 76.0349C199.576 70.1488 194.795 65.3771 188.897 65.3771C183 65.3771 178.219 70.1488 178.219 76.0349C178.219 81.921 183 86.6926 188.897 86.6926Z" fill="#F9E1B3"/>
<path d="M183.461 81.6228C183.461 81.6228 179.645 89.5323 174.362 89.2394C174.362 89.2394 164.382 85.1382 161.154 96.2701L157.631 105.058L204.3 112.968C204.3 112.968 201.658 96.8559 195.495 96.563C195.495 96.563 188.45 95.9771 189.331 93.3406C190.211 90.7041 193.44 84.5523 193.44 84.5523L183.461 81.6228Z" fill="#F9E1B3"/>
<path d="M199.017 122.049L191.972 137.282L197.778 161.904L226.052 214.864C226.052 214.864 213.031 226.524 209.785 228.394C206.969 230.016 183.528 186.043 182.672 176.98C182.39 173.989 177.25 234.579 177.25 234.579C177.25 234.579 157.872 231.388 152.461 230.327C152.461 230.327 156.36 202.768 158.659 176.98C160.43 157.103 158.819 139.088 168.785 130.545L167.904 113.554L191.385 112.675L199.017 122.049Z" fill="#E05D2A"/>
<path d="M162.546 255.213L173.323 256.775C174.159 257.085 175.08 257.074 175.907 256.744C176.735 256.414 177.41 255.788 177.8 254.989C178.117 254.339 178.23 253.609 178.124 252.894C178.018 252.18 177.697 251.514 177.204 250.984L172.63 246.067L169.338 238.977C167.368 236.97 166.023 237.68 165.27 240.977L160.007 239.328L158.627 248.586C158.42 249.972 158.697 251.386 159.41 252.592C160.124 253.798 161.231 254.724 162.546 255.213Z" fill="#463926"/>
<path d="M223.976 245.525L234.866 245.487C235.738 245.672 236.648 245.526 237.418 245.078C238.187 244.63 238.763 243.912 239.031 243.063C239.249 242.374 239.253 241.636 239.042 240.944C238.832 240.253 238.417 239.641 237.851 239.19L232.602 234.998L228.3 228.469C226.056 226.773 224.83 227.672 224.572 231.045L219.123 230.186V239.546C219.123 240.947 219.605 242.305 220.488 243.394C221.372 244.482 222.603 245.235 223.976 245.525Z" fill="#463926"/>
<path d="M183.504 59.652C181.69 58.8608 179.532 59.1711 177.78 60.0922C176.029 61.0133 174.63 62.4822 173.405 64.0344C169.189 69.4055 166.73 75.9414 166.363 82.755C166.267 84.6175 166.357 86.586 167.328 88.1791C168.396 89.9298 170.35 90.9347 172.286 91.6189C178.776 93.8758 185.895 93.4849 192.098 90.5311C188.836 87.8919 185.819 84.9661 183.081 81.7888C182.568 81.1934 182.032 80.4289 182.293 79.688C182.457 79.3275 182.712 79.0154 183.032 78.7819L189.319 73.3327L189.161 75.5371C190.411 75.4642 191.613 75.0272 192.617 74.2801C193.621 73.5331 194.384 72.5087 194.811 71.3336C194.508 71.9443 195.087 72.6943 195.756 72.8316C196.424 72.969 197.101 72.6938 197.729 72.4244C199.25 71.7711 200.902 70.9932 201.577 69.4838C201.789 68.9517 201.891 68.382 201.876 67.8095C201.86 67.2369 201.728 66.6735 201.488 66.1534C201 65.1157 200.303 64.1889 199.442 63.4307C197.327 61.4824 194.755 60.0976 191.962 59.4046C189.169 58.7116 186.246 58.7327 183.463 59.4659" fill="#635D54"/>
<path d="M181.371 138.61L186.059 144.271C186.534 144.844 187.128 145.306 187.799 145.626C188.471 145.947 189.205 146.117 189.95 146.125C190.694 146.133 191.432 145.978 192.11 145.673C192.789 145.367 193.393 144.917 193.88 144.355C194.403 143.75 194.777 143.03 194.972 142.254C195.166 141.478 195.175 140.668 194.998 139.887C194.821 139.107 194.463 138.38 193.953 137.763C193.443 137.146 192.795 136.657 192.061 136.336L184.975 133.234L165.651 118.501L167.065 104.056L155.943 105.772L156.658 123.063L181.371 138.61Z" fill="#F9E1B3"/>
<path d="M210.464 125.857C210.464 125.857 205.894 109.152 203.483 109.156C201.071 109.16 197.843 108.867 197.843 108.867C197.843 108.867 194.027 97.7347 174.362 101.25C154.696 104.765 163.208 98.0277 157.631 100.664C152.055 103.301 150 121.756 150 121.756C150 121.756 180.232 111.796 186.689 117.362C190.398 120.599 194.43 123.446 198.723 125.857C198.723 125.857 195.788 133.181 210.464 125.857Z" fill="#E05D2A"/>
<path d="M315.27 244.609H196.75V245.382H315.27V244.609Z" fill="#3F3D56"/>
<path d="M310.873 221.533C310.271 217.659 309.097 213.896 307.388 210.367L307.139 209.852L305.289 211.9L306.66 208.85L306.57 208.673C305.36 206.284 304.02 203.962 302.554 201.719L302.283 201.304L301.92 201.705L302.174 201.14L302.047 200.95C300.232 198.233 298.837 196.515 298.824 196.497L298.429 196.013L298.176 196.591C298.129 196.696 293.52 207.296 292.91 217.769L292.9 217.932L296.002 221.674L292.839 219.693L292.844 220.412C292.854 221.643 292.938 222.872 293.096 224.093C293.235 225.143 293.399 226.168 293.588 227.169C293.887 227.178 294.177 227.269 294.429 227.431C294.21 226.313 294.022 225.164 293.863 223.984C293.741 223.042 293.664 222.085 293.634 221.131L299.752 224.965L293.693 217.655C294.245 208.8 297.669 199.878 298.63 197.524C299.146 198.191 300.119 199.488 301.283 201.22L299.167 205.929L302.184 202.589C303.492 204.622 304.697 206.719 305.795 208.872L302.536 216.123L306.942 211.246C308.481 214.55 309.547 218.053 310.107 221.653C310.878 227.467 310.728 233.053 309.683 237.381C308.682 241.527 306.919 244.075 304.844 244.373C304.417 244.432 303.983 244.406 303.566 244.297C303.232 244.534 302.829 244.657 302.419 244.646H302.306C302.95 245.003 303.671 245.196 304.407 245.209C304.589 245.209 304.77 245.196 304.95 245.17C307.389 244.821 309.337 242.124 310.434 237.577C311.502 233.151 311.659 227.457 310.873 221.533Z" fill="#3F3D56"/>
<path d="M304.047 244.904C300.857 244.904 296.257 243.152 291.695 239.964C291.023 239.49 290.382 238.976 289.775 238.423L289.264 237.957L291.196 237.402L288.623 237.308L288.515 237.194C283.692 232.154 280.692 225.034 280.662 224.963L280.427 224.4L281.037 224.428C281.098 224.431 282.547 224.499 284.726 224.807L284.862 224.827V224.825L285.339 224.898C287.119 225.168 288.881 225.537 290.618 226.005L290.804 226.055L291.384 227.48L291.296 226.202L291.827 226.355C294.348 227.082 296.742 228.189 298.926 229.64C305.864 234.489 309.704 240.55 307.674 243.442C306.98 244.431 305.703 244.903 304.047 244.904ZM290.823 238.313C291.247 238.672 291.688 239.013 292.14 239.331C298.495 243.772 305.318 245.452 307.039 242.999C308.761 240.546 304.845 234.721 298.489 230.279C296.529 228.977 294.392 227.96 292.145 227.258L292.488 232.251L290.231 226.702C288.744 226.308 287.223 225.984 285.701 225.737L285.95 229.361L284.397 225.542C283.193 225.377 282.223 225.287 281.632 225.242C282.437 227.005 285.096 232.452 288.967 236.547L296.066 236.806L290.823 238.313Z" fill="#3F3D56"/>
</g>
<defs>
<filter id="filter0_d" x="30" y="-66" width="440" height="440" filterUnits="userSpaceOnUse" color-interpolation-filters="sRGB">
<feFlood flood-opacity="0" result="BackgroundImageFix"/>
<feColorMatrix in="SourceAlpha" type="matrix" values="0 0 0 0 0 0 0 0 0 0 0 0 0 0 0 0 0 0 127 0" result="hardAlpha"/>
<feOffset/>
<feGaussianBlur stdDeviation="10"/>
<feComposite in2="hardAlpha" operator="out"/>
<feColorMatrix type="matrix" values="0 0 0 0 0.768627 0 0 0 0 0.768627 0 0 0 0 0.768627 0 0 0 0.1 0"/>
<feBlend mode="normal" in2="BackgroundImageFix" result="effect1_dropShadow"/>
<feBlend mode="normal" in="SourceGraphic" in2="effect1_dropShadow" result="shape"/>
</filter>
<clipPath id="clip0">
<rect width="500" height="400" rx="15" fill="white"/>
</clipPath>
</defs>
</svg>
