<svg width="607" height="648" viewBox="0 0 607 648" fill="none" xmlns="http://www.w3.org/2000/svg">
<path d="M336.337 383.328C427.603 383.328 501.588 309.309 501.588 218.003C501.588 126.697 427.603 52.6783 336.337 52.6783C245.071 52.6783 171.086 126.697 171.086 218.003C171.086 309.309 245.071 383.328 336.337 383.328Z" fill="#FCEDE7"/>
<path d="M305.073 125.957H31.739V127.745H305.073V125.957Z" fill="#373737"/>
<path d="M568.582 175.108H31.739V176.895H568.582V175.108Z" fill="#373737"/>
<path d="M403.331 351.156C311.718 351.156 237.186 276.591 237.186 184.938C237.186 93.285 311.718 18.7196 403.331 18.7196C494.943 18.7196 569.475 93.285 569.475 184.938C569.475 276.591 494.943 351.156 403.331 351.156ZM403.331 20.5069C312.703 20.5069 238.973 94.2703 238.973 184.938C238.973 275.606 312.703 349.369 403.331 349.369C493.958 349.369 567.688 275.606 567.688 184.938C567.688 94.2703 493.958 20.5069 403.331 20.5069V20.5069Z" fill="#373737"/>
<path d="M388.002 43.6465C400.049 43.6465 409.815 33.8759 409.815 21.8233C409.815 9.77061 400.049 0 388.002 0C375.955 0 366.188 9.77061 366.188 21.8233C366.188 33.8759 375.955 43.6465 388.002 43.6465Z" fill="#E05D2A"/>
<path d="M237.81 187.362C245.605 187.362 251.924 181.04 251.924 173.241C251.924 165.442 245.605 159.12 237.81 159.12C230.014 159.12 223.695 165.442 223.695 173.241C223.695 181.04 230.014 187.362 237.81 187.362Z" fill="#FAFAFA"/>
<path d="M574.765 205.723C592.568 205.723 607 191.284 607 173.473C607 155.662 592.568 141.224 574.765 141.224C556.962 141.224 542.53 155.662 542.53 173.473C542.53 191.284 556.962 205.723 574.765 205.723Z" fill="#E05D2A"/>
<path d="M246.17 292.468L265.534 303.6C267.494 304.727 269.675 305.412 271.926 305.608C274.178 305.805 276.445 305.507 278.569 304.737C280.694 303.967 282.625 302.742 284.228 301.149C285.831 299.555 287.067 297.631 287.851 295.51V295.51C288.693 293.228 288.989 290.779 288.714 288.362C288.438 285.944 287.599 283.625 286.264 281.591C284.93 279.557 283.136 277.865 281.028 276.651C278.921 275.437 276.557 274.735 274.129 274.601L250.679 273.311L180.041 251.92L168.652 209.261L138.873 225.996L159.349 274.495L246.17 292.468Z" fill="#F9E1B3"/>
<path d="M153.846 71.0565C149.366 76.137 150.175 82.2483 153.438 87.2095C156.7 92.1707 162.129 96.2986 166.88 100.676C169.933 103.488 172.756 106.473 174.124 109.856C174.877 111.586 175.123 113.495 174.834 115.359C174.545 117.224 173.733 118.968 172.491 120.388C169.38 124.07 163.584 126.564 157.93 128.701C141.76 134.771 125.075 139.367 108.078 142.435C122.397 125.697 129.564 106.847 128.514 88.6895C128.294 84.8788 127.728 81.0328 129.058 77.2137C129.972 74.9211 131.416 72.8783 133.273 71.2531C135.13 69.6278 137.345 68.4667 139.738 67.8651C145.429 66.2302 152.925 67.8473 153.798 71.5781" fill="#635D54"/>
<path d="M31.1783 608.19L51.6675 609.081L92.1077 422.2L57.0126 423.709L31.1783 608.19Z" fill="#F9E1B3"/>
<path d="M236.066 568.085L219.14 576.997L113.267 419.848L146.984 404.993L236.066 568.085Z" fill="#F9E1B3"/>
<path d="M118.054 129.882C135.953 129.882 150.463 115.365 150.463 97.4583C150.463 79.5513 135.953 65.0348 118.054 65.0348C100.155 65.0348 85.6449 79.5513 85.6449 97.4583C85.6449 115.365 100.155 129.882 118.054 129.882Z" fill="#F9E1B3"/>
<path d="M101.553 114.458C101.553 114.458 89.9723 138.521 73.9377 137.63C73.9377 137.63 43.65 125.153 33.851 159.019L23.1612 185.755L164.801 209.818C164.801 209.818 156.783 160.801 138.076 159.91C138.076 159.91 116.697 158.127 119.369 150.107C122.042 142.086 131.841 123.37 131.841 123.37L101.553 114.458Z" fill="#F9E1B3"/>
<path d="M148.766 237.445L127.387 283.788L145.006 358.694L230.819 519.812C230.819 519.812 191.299 555.284 181.447 560.973C172.902 565.908 101.759 432.132 99.1609 404.56C98.3036 395.46 82.7037 579.79 82.7037 579.79C82.7037 579.79 23.8931 570.081 7.4706 566.853C7.4706 566.853 19.3024 483.012 26.2789 404.56C31.6565 344.087 26.7666 289.282 57.0122 263.29L54.3397 211.6L125.605 208.927L148.766 237.445Z" fill="#E05D2A"/>
<path d="M38.077 642.563L70.7867 647.314C73.3213 648.259 76.1169 648.226 78.6286 647.222C81.1403 646.218 83.1882 644.314 84.3734 641.881V641.881C85.3362 639.905 85.6788 637.684 85.356 635.509C85.0333 633.335 84.0604 631.309 82.5653 629.698L68.6817 614.74L58.6895 593.169C52.7135 587.063 48.6284 589.222 46.3447 599.255L30.3712 594.237L26.183 622.402C25.5562 626.618 26.3956 630.92 28.5608 634.59C30.726 638.26 34.0855 641.075 38.077 642.563V642.563Z" fill="#463926"/>
<path d="M224.517 613.091L257.569 612.976C260.215 613.537 262.975 613.093 265.312 611.73C267.649 610.366 269.394 608.182 270.209 605.601V605.601C270.871 603.505 270.883 601.258 270.244 599.154C269.605 597.051 268.344 595.19 266.629 593.817L250.696 581.066L237.64 561.201C230.831 556.04 227.108 558.778 226.325 569.038L209.787 566.425V594.901C209.787 599.162 211.25 603.295 213.931 606.606C216.613 609.917 220.35 612.207 224.517 613.091V613.091Z" fill="#463926"/>
<path d="M101.684 47.6173C96.1792 45.2103 89.6283 46.1542 84.3135 48.9564C78.9987 51.7587 74.7522 56.2274 71.0356 60.9496C58.2383 77.29 50.7759 97.1737 49.6611 117.902C49.37 123.569 49.6431 129.558 52.5918 134.404C55.8321 139.73 61.7631 142.787 67.6378 144.869C87.3337 151.735 108.943 150.546 127.767 141.559C117.869 133.53 108.71 124.629 100.402 114.963C98.8445 113.152 97.2165 110.826 98.0084 108.572C98.507 107.475 99.28 106.526 100.253 105.815L119.334 89.2375L118.853 95.9439C122.648 95.7221 126.295 94.3926 129.342 92.1199C132.39 89.8471 134.705 86.7307 136.002 83.1559C135.082 85.0136 136.838 87.2953 138.868 87.7132C140.898 88.131 142.953 87.2938 144.857 86.4743C149.473 84.4868 154.488 82.1201 156.537 77.5282C157.181 75.9094 157.49 74.1763 157.443 72.4344C157.397 70.6926 156.996 68.9784 156.266 67.3964C154.784 64.2392 152.671 61.4199 150.056 59.1132C143.638 53.1858 135.83 48.9731 127.354 46.8647C118.877 44.7564 110.006 44.8205 101.561 47.0511" fill="#635D54"/>
<path d="M95.2095 287.829L109.44 305.049C110.88 306.792 112.682 308.199 114.721 309.173C116.761 310.147 118.988 310.664 121.248 310.689C123.507 310.713 125.745 310.244 127.805 309.314C129.865 308.384 131.697 307.016 133.174 305.305C134.764 303.464 135.899 301.274 136.489 298.914C137.079 296.553 137.106 294.087 136.57 291.714C136.033 289.341 134.947 287.127 133.399 285.25C131.85 283.373 129.884 281.887 127.656 280.909L106.149 271.471L47.4999 226.649L51.7931 182.704L18.0381 187.925L20.2074 240.528L95.2095 287.829Z" fill="#F9E1B3"/>
<path d="M183.508 249.031C183.508 249.031 169.637 198.208 162.32 198.22C155.002 198.232 145.203 197.341 145.203 197.341C145.203 197.341 133.622 163.475 73.9377 174.169C14.2531 184.864 40.0867 164.366 23.1612 172.387C6.2357 180.408 0 236.554 0 236.554C0 236.554 91.7539 206.253 111.352 223.186C122.607 233.033 134.846 241.694 147.875 249.031C147.875 249.031 138.967 271.311 183.508 249.031Z" fill="#E05D2A"/>
<path d="M501.594 610.303H141.886V612.656H501.594V610.303Z" fill="#3F3D56"/>
<path d="M488.25 540.101C486.423 528.316 482.859 516.867 477.673 506.129L476.917 504.565L471.302 510.793L475.463 501.516L475.191 500.978C471.519 493.707 467.451 486.645 463.003 479.822L462.178 478.559L461.078 479.779L461.848 478.061L461.463 477.482C455.954 469.216 451.722 463.988 451.68 463.936L450.483 462.463L449.714 464.219C449.573 464.541 435.585 496.786 433.732 528.65L433.703 529.146L443.117 540.531L433.517 534.501L433.533 536.689C433.562 540.434 433.817 544.174 434.296 547.888C434.719 551.083 435.216 554.202 435.789 557.246C436.696 557.274 437.579 557.549 438.342 558.042C437.679 554.642 437.107 551.146 436.626 547.557C436.255 544.691 436.021 541.78 435.928 538.877L454.498 550.541L436.109 528.303C437.783 501.363 448.175 474.221 451.092 467.057C452.658 469.089 455.612 473.033 459.145 478.302L452.722 492.628L461.88 482.469C465.85 488.652 469.507 495.031 472.838 501.582L462.946 523.642L476.32 508.806C480.991 518.855 484.225 529.513 485.925 540.465C488.266 558.154 487.809 575.146 484.638 588.313C481.601 600.926 476.249 608.679 469.953 609.585C468.657 609.764 467.339 609.685 466.073 609.354C465.059 610.075 463.837 610.448 462.593 610.417H462.25C464.203 611.501 466.392 612.09 468.625 612.13C469.177 612.13 469.728 612.09 470.274 612.011C477.676 610.948 483.588 602.743 486.919 588.91C490.161 575.445 490.635 558.121 488.25 540.101Z" fill="#3F3D56"/>
<path d="M467.534 611.2C457.851 611.2 443.891 605.871 430.044 596.171C428.006 594.731 426.06 593.166 424.217 591.484L422.666 590.066L428.53 588.377L420.722 588.091L420.392 587.745C405.757 572.411 396.65 550.751 396.559 550.535L395.847 548.823L397.698 548.907C397.882 548.915 402.282 549.123 408.894 550.062L409.306 550.12V550.117L410.756 550.337C416.155 551.158 421.504 552.283 426.777 553.706L427.34 553.858L429.1 558.194L428.833 554.305L430.447 554.771C438.097 556.981 445.363 560.351 451.991 564.764C473.049 579.517 484.701 597.954 478.541 606.754C476.436 609.762 472.561 611.198 467.534 611.2ZM427.398 591.151C428.684 592.241 430.023 593.278 431.396 594.246C450.682 607.758 471.39 612.867 476.615 605.406C481.839 597.943 469.955 580.221 450.666 566.708C444.715 562.747 438.231 559.653 431.41 557.517L432.453 572.708L425.602 555.826C421.09 554.628 416.474 553.642 411.853 552.89L412.61 563.916L407.894 552.296C404.241 551.795 401.296 551.522 399.505 551.383C401.947 556.749 410.017 573.318 421.765 585.776L443.312 586.565L427.398 591.151Z" fill="#3F3D56"/>
</svg>
