<svg width="500" height="400" viewBox="0 0 500 400" fill="none" xmlns="http://www.w3.org/2000/svg">
<g clip-path="url(#clip0)">
<rect width="500" height="400" rx="15" fill="#E2F4DE"/>
<g filter="url(#filter0_d)">
<rect x="50" y="46" width="400" height="400" rx="15" fill="#FAFAFA"/>
</g>
<path d="M308.078 232.035L304.684 228.4L308.325 225.008L311.719 228.643L308.078 232.035ZM305.227 228.416L308.098 231.492L311.176 228.624L308.306 225.548L305.227 228.416Z" fill="white"/>
<g opacity="0.69">
<path opacity="0.69" d="M214.728 302.865C214.728 302.865 273.368 253.964 307.141 302.865H214.728Z" fill="#F6F0EA"/>
<g opacity="0.65">
<path opacity="0.65" d="M221.547 275.112H215.142C213.989 275.112 213.053 276.047 213.053 277.199V300.868C213.053 302.021 213.989 302.955 215.142 302.955H221.547C222.7 302.955 223.636 302.021 223.636 300.868V277.199C223.636 276.047 222.7 275.112 221.547 275.112Z" fill="#F6F0EA"/>
<path opacity="0.65" d="M241.651 258.371H235.246C234.093 258.371 233.157 259.306 233.157 260.459V300.868C233.157 302.021 234.093 302.955 235.246 302.955H241.651C242.804 302.955 243.74 302.021 243.74 300.868V260.459C243.74 259.306 242.804 258.371 241.651 258.371Z" fill="#F6F0EA"/>
<path opacity="0.65" d="M261.754 246.74H255.35C254.196 246.74 253.261 247.675 253.261 248.827V300.868C253.261 302.021 254.196 302.955 255.35 302.955H261.754C262.908 302.955 263.843 302.021 263.843 300.868V248.827C263.843 247.675 262.908 246.74 261.754 246.74Z" fill="#F6F0EA"/>
<path opacity="0.65" d="M281.861 235.637H275.457C274.303 235.637 273.368 236.572 273.368 237.725V300.865C273.368 302.018 274.303 302.952 275.457 302.952H281.861C283.015 302.952 283.95 302.018 283.95 300.865V237.725C283.95 236.572 283.015 235.637 281.861 235.637Z" fill="#F6F0EA"/>
<path opacity="0.65" d="M301.965 216.253H295.56C294.407 216.253 293.471 217.188 293.471 218.341V300.865C293.471 302.018 294.407 302.952 295.56 302.952H301.965C303.119 302.952 304.054 302.018 304.054 300.865V218.341C304.054 217.188 303.119 216.253 301.965 216.253Z" fill="#F6F0EA"/>
</g>
<path opacity="0.69" d="M222.956 273.701H216.551C215.398 273.701 214.462 274.636 214.462 275.789V299.457C214.462 300.61 215.398 301.544 216.551 301.544H222.956C224.109 301.544 225.045 300.61 225.045 299.457V275.789C225.045 274.636 224.109 273.701 222.956 273.701Z" stroke="#3F3D56" stroke-miterlimit="10"/>
<path opacity="0.69" d="M243.062 256.961H236.658C235.504 256.961 234.569 257.895 234.569 259.048V299.457C234.569 300.61 235.504 301.544 236.658 301.544H243.062C244.216 301.544 245.151 300.61 245.151 299.457V259.048C245.151 257.895 244.216 256.961 243.062 256.961Z" stroke="#3F3D56" stroke-miterlimit="10"/>
<path opacity="0.69" d="M263.166 245.329H256.762C255.608 245.329 254.673 246.264 254.673 247.417V299.457C254.673 300.61 255.608 301.544 256.762 301.544H263.166C264.32 301.544 265.255 300.61 265.255 299.457V247.417C265.255 246.264 264.32 245.329 263.166 245.329Z" stroke="#3F3D56" stroke-miterlimit="10"/>
<path opacity="0.69" d="M283.27 234.229H276.866C275.712 234.229 274.776 235.164 274.776 236.317V299.457C274.776 300.61 275.712 301.544 276.866 301.544H283.27C284.424 301.544 285.359 300.61 285.359 299.457V236.317C285.359 235.164 284.424 234.229 283.27 234.229Z" stroke="#3F3D56" stroke-miterlimit="10"/>
<path d="M100 325.529C101.966 326.543 104.025 327.42 106.057 328.293C113.563 331.466 121.182 334.667 129.246 335.757C144.38 337.799 160.01 332.268 174.887 335.71C187.352 338.59 197.66 347.416 209.837 351.347C215.499 353.174 221.39 353.89 227.334 353.89H228.093C228.83 353.89 229.559 353.862 230.285 353.835C236.311 353.608 242.363 352.715 248.27 351.574C266.924 347.98 285.909 341.393 300.17 329.266C258.664 321.656 173.126 309.997 100 325.529Z" fill="#F7F0EA"/>
<path opacity="0.69" d="M303.377 214.845H296.972C295.819 214.845 294.883 215.78 294.883 216.932V299.457C294.883 300.61 295.819 301.544 296.972 301.544H303.377C304.53 301.544 305.466 300.61 305.466 299.457V216.932C305.466 215.78 304.53 214.845 303.377 214.845Z" stroke="#3F3D56" stroke-miterlimit="10"/>
<path opacity="0.69" d="M336.856 303.043H185.012" stroke="#3F3D56" stroke-miterlimit="10"/>
<path opacity="0.69" d="M219.666 263.039L239.77 246.299L260.052 234.845L280.156 223.743L300.262 204.359" stroke="#3F3D56" stroke-miterlimit="10"/>
<path opacity="0.69" d="M219.137 265.861C220.209 265.861 221.078 264.993 221.078 263.921C221.078 262.85 220.209 261.982 219.137 261.982C218.065 261.982 217.196 262.85 217.196 263.921C217.196 264.993 218.065 265.861 219.137 265.861Z" fill="white"/>
<path opacity="0.69" d="M239.241 249.121C240.313 249.121 241.182 248.252 241.182 247.181C241.182 246.11 240.313 245.242 239.241 245.242C238.169 245.242 237.3 246.11 237.3 247.181C237.3 248.252 238.169 249.121 239.241 249.121Z" fill="white"/>
<path opacity="0.69" d="M259.523 237.667C260.595 237.667 261.464 236.799 261.464 235.728C261.464 234.656 260.595 233.788 259.523 233.788C258.451 233.788 257.582 234.656 257.582 235.728C257.582 236.799 258.451 237.667 259.523 237.667Z" fill="white"/>
<path opacity="0.69" d="M279.626 226.564C280.698 226.564 281.567 225.696 281.567 224.625C281.567 223.554 280.698 222.685 279.626 222.685C278.554 222.685 277.685 223.554 277.685 224.625C277.685 225.696 278.554 226.564 279.626 226.564Z" fill="white"/>
<path opacity="0.69" d="M299.733 207.18C300.805 207.18 301.674 206.312 301.674 205.241C301.674 204.17 300.805 203.301 299.733 203.301C298.661 203.301 297.792 204.17 297.792 205.241C297.792 206.312 298.661 207.18 299.733 207.18Z" fill="#F2F2F2"/>
<path opacity="0.69" d="M219.666 264.979C220.738 264.979 221.607 264.111 221.607 263.039C221.607 261.968 220.738 261.1 219.666 261.1C218.594 261.1 217.725 261.968 217.725 263.039C217.725 264.111 218.594 264.979 219.666 264.979Z" stroke="#3F3D56" stroke-miterlimit="10"/>
<path opacity="0.69" d="M239.77 248.238C240.842 248.238 241.711 247.37 241.711 246.299C241.711 245.228 240.842 244.359 239.77 244.359C238.698 244.359 237.829 245.228 237.829 246.299C237.829 247.37 238.698 248.238 239.77 248.238Z" stroke="#3F3D56" stroke-miterlimit="10"/>
<path opacity="0.69" d="M260.052 236.785C261.124 236.785 261.993 235.917 261.993 234.845C261.993 233.774 261.124 232.906 260.052 232.906C258.98 232.906 258.111 233.774 258.111 234.845C258.111 235.917 258.98 236.785 260.052 236.785Z" stroke="#3F3D56" stroke-miterlimit="10"/>
<path opacity="0.69" d="M280.156 225.682C281.228 225.682 282.097 224.814 282.097 223.743C282.097 222.672 281.228 221.803 280.156 221.803C279.084 221.803 278.215 222.672 278.215 223.743C278.215 224.814 279.084 225.682 280.156 225.682Z" stroke="#3F3D56" stroke-miterlimit="10"/>
<path opacity="0.69" d="M300.262 206.298C301.334 206.298 302.203 205.43 302.203 204.359C302.203 203.288 301.334 202.419 300.262 202.419C299.19 202.419 298.321 203.288 298.321 204.359C298.321 205.43 299.19 206.298 300.262 206.298Z" stroke="#3F3D56" stroke-miterlimit="10"/>
</g>
<path d="M309.896 270.901C316.019 270.901 320.983 265.942 320.983 259.823C320.983 253.705 316.019 248.745 309.896 248.745C303.773 248.745 298.809 253.705 298.809 259.823C298.809 265.942 303.773 270.901 309.896 270.901Z" fill="#2F2E41"/>
<path d="M299.36 330.938L299.067 325.917L318.312 322.394L318.746 329.807L299.36 330.938Z" fill="#A0616A"/>
<path d="M300.292 322.246L300.86 331.93L294.757 332.286L293.833 316.504C295.452 316.41 297.041 316.962 298.253 318.039C299.464 319.115 300.198 320.629 300.292 322.246Z" fill="#2F2E41"/>
<path d="M307.73 330.892L304.534 334.779L288.013 324.306L292.731 318.572L307.73 330.892Z" fill="#A0616A"/>
<path d="M301.14 336.642L307.305 329.147L312.026 333.026L301.981 345.238C300.729 344.209 299.937 342.726 299.779 341.114C299.621 339.502 300.111 337.893 301.14 336.642Z" fill="#2F2E41"/>
<path d="M298.532 312.82L296.339 323.112C296.25 323.537 296.333 323.981 296.57 324.346C296.808 324.71 297.18 324.966 297.606 325.057C297.71 325.078 297.815 325.09 297.921 325.092L319.396 325.437C319.83 325.443 320.25 325.277 320.562 324.974C320.875 324.672 321.055 324.258 321.062 323.824C321.065 323.719 321.057 323.615 321.038 323.512L319.16 312.877C319.092 312.498 318.893 312.154 318.598 311.906C318.302 311.658 317.928 311.522 317.542 311.521H300.139C299.763 311.522 299.398 311.651 299.106 311.887C298.814 312.123 298.611 312.452 298.532 312.82Z" fill="#2F2E41"/>
<path d="M302.094 316.444C302.094 316.444 281.151 303.314 277.044 310.289C274.993 313.776 276.019 317.162 277.559 319.674C278.987 321.963 281.039 323.798 283.473 324.964L300.451 333.267L306.609 326.692L302.497 322.999L302.094 316.444Z" fill="#2F2E41"/>
<path d="M312.769 314.392C312.769 314.392 339.87 306.596 334.532 321.367C329.194 336.138 309.074 330.407 309.074 330.407L307.02 324.254L314 319.323L312.769 314.392Z" fill="#2F2E41"/>
<path d="M310.033 272.43C315.604 272.43 320.119 267.918 320.119 262.352C320.119 256.786 315.604 252.274 310.033 252.274C304.463 252.274 299.947 256.786 299.947 262.352C299.947 267.918 304.463 272.43 310.033 272.43Z" fill="#A0616A"/>
<path d="M310.562 316.019C306.371 315.954 302.202 315.403 298.138 314.376L298.017 314.343L292.391 288.477C291.885 286.204 292.23 283.825 293.359 281.788C294.488 279.751 296.325 278.198 298.521 277.421C305.31 274.988 312.708 274.841 319.588 277.002C321.896 277.745 323.839 279.33 325.029 281.442C326.219 283.553 326.569 286.035 326.008 288.393L319.722 314.34L319.631 314.384C317.021 315.608 313.753 316.019 310.562 316.019Z" fill="#FCCF31"/>
<path d="M303.004 318.03C303.186 317.519 303.467 317.049 303.831 316.647C304.196 316.245 304.636 315.919 305.127 315.688C305.619 315.457 306.151 315.326 306.693 315.301C307.235 315.277 307.777 315.36 308.287 315.546C308.515 315.628 308.736 315.729 308.948 315.85L320.029 306.24L321.03 313.792L310.354 321.761C309.79 322.607 308.936 323.216 307.953 323.474C306.969 323.732 305.926 323.62 305.019 323.16C304.113 322.7 303.407 321.923 303.036 320.978C302.664 320.032 302.653 318.983 303.004 318.03Z" fill="#FFB8B8"/>
<path d="M313.572 320.126C313.391 320.126 313.211 320.101 313.038 320.049C312.758 319.967 312.502 319.819 312.291 319.618C312.079 319.417 311.919 319.168 311.823 318.893L310.485 315.107C310.361 314.756 310.347 314.375 310.445 314.015C310.543 313.655 310.749 313.334 311.034 313.094L326.132 304.037L320.18 277.506L320.33 277.47C320.393 277.457 326.491 276.068 328.988 282.727C330.74 287.384 337.213 297.52 336.758 304.369C336.67 305.739 336.124 307.039 335.206 308.061C334.288 309.083 333.053 309.766 331.7 310.001L314.702 319.729C314.381 319.984 313.983 320.124 313.572 320.126Z" fill="#FCCF31"/>
<path d="M315.264 317.129C315.08 316.618 314.797 316.148 314.432 315.747C314.066 315.346 313.625 315.02 313.133 314.789C312.641 314.559 312.109 314.427 311.566 314.402C311.023 314.377 310.481 314.459 309.97 314.644C309.742 314.727 309.52 314.83 309.309 314.951L298.228 305.338L297.227 312.891L307.914 320.86C308.477 321.705 309.332 322.315 310.315 322.573C311.299 322.83 312.342 322.719 313.249 322.259C314.155 321.798 314.861 321.022 315.232 320.077C315.604 319.131 315.615 318.082 315.264 317.129Z" fill="#FFB8B8"/>
<path d="M305.809 320.126C305.403 320.126 305.01 319.991 304.69 319.742L286.464 310.834C285.11 310.6 283.873 309.918 282.955 308.896C282.037 307.874 281.49 306.572 281.403 305.202C280.945 298.353 288.655 287.395 290.404 282.738C292.901 276.079 299.001 277.465 299.062 277.482L299.212 277.517L292.03 304.87L308.361 313.105C308.646 313.345 308.85 313.667 308.948 314.026C309.046 314.386 309.033 314.767 308.909 315.118L307.571 318.904C307.444 319.265 307.207 319.578 306.893 319.799C306.58 320.02 306.206 320.138 305.822 320.137L305.809 320.126Z" fill="#FCCF31"/>
<path d="M327.552 324.24H291.007C290.244 324.239 289.514 323.936 288.975 323.397C288.436 322.858 288.132 322.128 288.131 321.367V301.262C288.132 300.501 288.435 299.77 288.974 299.232C289.513 298.694 290.244 298.391 291.007 298.391H327.552C328.314 298.391 329.044 298.694 329.583 299.232C330.122 299.771 330.425 300.501 330.425 301.262V321.367C330.425 322.128 330.122 322.859 329.583 323.398C329.045 323.937 328.314 324.24 327.552 324.24Z" fill="#F2F2F2"/>
<path d="M309.279 313.779C310.64 313.779 311.744 312.676 311.744 311.316C311.744 309.956 310.64 308.853 309.279 308.853C307.918 308.853 306.815 309.956 306.815 311.316C306.815 312.676 307.918 313.779 309.279 313.779Z" fill="white"/>
<path d="M299.848 261.941C299.251 260.426 300.232 258.621 301.685 257.887C303.138 257.152 304.895 257.295 306.453 257.777C307.76 258.182 308.986 258.812 310.261 259.311C311.519 259.868 312.893 260.113 314.266 260.023C315.637 259.87 316.98 259.108 317.539 257.856C318.115 256.561 317.723 254.98 316.835 253.873C315.888 252.805 314.664 252.019 313.298 251.602C310.296 250.548 306.831 250.507 304.046 252.052C301.26 253.597 299.366 256.857 299.933 259.982" fill="#2F2E41"/>
<path opacity="0.03" d="M308.75 255.199C308.75 255.199 308.202 257.873 304.736 258.141L308.75 255.199Z" fill="black"/>
<path opacity="0.03" d="M326.946 279.974C326.946 279.974 322.833 282.292 318.206 282.114L326.946 279.974Z" fill="black"/>
<path d="M322.033 345.525C321.394 344.931 320.794 344.23 320.607 343.378C320.421 342.526 320.786 341.501 321.603 341.186C322.515 340.836 323.494 341.46 324.234 342.109C324.975 342.759 325.825 343.479 326.792 343.342C326.294 342.89 325.922 342.317 325.711 341.679C325.5 341.04 325.458 340.358 325.589 339.699C325.632 339.427 325.747 339.171 325.923 338.959C326.43 338.411 327.352 338.65 327.957 339.077C329.877 340.447 330.425 343.057 330.439 345.419C330.633 344.567 330.469 343.679 330.474 342.805C330.48 341.931 330.718 340.964 331.456 340.493C331.919 340.244 332.441 340.124 332.966 340.145C333.835 340.112 334.803 340.2 335.395 340.836C336.133 341.625 335.944 342.948 335.299 343.816C334.655 344.684 333.682 345.23 332.785 345.83C332.066 346.258 331.452 346.844 330.99 347.542C330.935 347.639 330.89 347.742 330.855 347.848H325.4C324.178 347.228 323.046 346.447 322.033 345.525Z" fill="#59A565"/>
<path d="M306.28 311.346H303.615" stroke="#87CB92" stroke-width="2" stroke-miterlimit="10"/>
<path d="M314.905 311.327C314.905 311.327 312.846 308.93 310.305 308.93C307.763 308.93 305.693 310.549 305.693 311.327H314.905Z" fill="#318D5E"/>
<path d="M314.905 311.327C314.905 311.327 312.846 313.724 310.305 313.724C307.763 313.724 305.704 312.08 305.704 311.327H314.905Z" fill="#87CB92"/>
<path d="M199.378 327.796C199.378 327.796 206.142 304.851 198.109 287.962C194.737 280.876 193.618 272.918 195.176 265.225C195.921 261.573 196.999 257.997 198.397 254.542" stroke="#425C68" stroke-width="2" stroke-miterlimit="10"/>
<path d="M215.06 305.848C215.06 305.848 209.278 304.837 205.632 307.831C201.986 310.825 200.958 315.589 201.862 316.688L215.06 305.848Z" fill="#68A872"/>
<path d="M215.06 305.848C215.06 305.848 214.934 311.713 211.288 314.707C207.642 317.701 202.764 317.789 201.862 316.688L215.06 305.848Z" fill="#87CB92"/>
<path d="M212.006 277.761C212.006 277.761 206.224 276.75 202.58 279.744C198.937 282.738 197.903 287.494 198.808 288.603L212.006 277.761Z" fill="#68A872"/>
<path d="M212.006 277.761C212.006 277.761 211.88 283.626 208.237 286.62C204.593 289.614 199.713 289.702 198.808 288.603L212.006 277.761Z" fill="#87CB92"/>
<path d="M208.305 259.382C208.305 259.382 202.523 258.371 198.879 261.363C195.236 264.354 194.202 269.124 195.099 270.236L208.305 259.382Z" fill="#68A872"/>
<path d="M208.305 259.382C208.305 259.382 208.179 265.247 204.535 268.239C200.892 271.23 196.012 271.332 195.099 270.236L208.305 259.382Z" fill="#87CB92"/>
<path d="M184.955 252.624C184.955 252.624 183.379 258.276 186 262.193C188.621 266.11 193.268 267.606 194.452 266.817L184.955 252.624Z" fill="#68A872"/>
<path d="M184.955 252.624C184.955 252.624 190.784 253.328 193.405 257.246C196.026 261.163 195.636 266.025 194.452 266.817L184.955 252.624Z" fill="#87CB92"/>
<path d="M203.905 238.941C203.905 238.941 198.438 241.08 196.881 245.529C195.324 249.978 196.917 254.586 198.252 255.057L203.905 238.941Z" fill="#68A872"/>
<path d="M203.905 238.941C203.905 238.941 206.846 244.02 205.276 248.469C203.705 252.917 199.595 255.525 198.252 255.043L203.905 238.941Z" fill="#87CB92"/>
<path d="M183.252 281.33C183.252 281.33 184.423 287.083 188.544 289.376C192.664 291.669 197.478 290.891 198.172 289.65L183.252 281.33Z" fill="#68A872"/>
<path d="M183.252 281.33C183.252 281.33 188.763 279.306 192.883 281.604C197.004 283.903 198.868 288.406 198.172 289.65L183.252 281.33Z" fill="#87CB92"/>
<path d="M186.696 306.281C186.696 306.281 187.867 312.034 191.987 314.326C196.108 316.619 200.922 315.841 201.615 314.6L186.696 306.281Z" fill="#68A872"/>
<path d="M186.696 306.281C186.696 306.281 192.206 304.256 196.327 306.555C200.448 308.853 202.309 313.357 201.615 314.614L186.696 306.281Z" fill="#87CB92"/>
<path d="M232.436 323.106C232.436 323.106 236 310.973 231.765 302.046C229.96 298.311 229.415 294.093 230.213 290.023C230.608 288.092 231.178 286.201 231.915 284.374" stroke="#425C68" stroke-width="1.5" stroke-miterlimit="10"/>
<path d="M240.727 311.508C240.727 311.508 237.67 310.973 235.742 312.557C233.815 314.14 233.275 316.666 233.747 317.238L240.727 311.508Z" fill="#59A565"/>
<path d="M240.727 311.508C240.727 311.508 240.658 314.609 238.731 316.192C236.804 317.775 234.226 317.836 233.747 317.238L240.727 311.508Z" fill="#87CB92"/>
<path d="M239.112 296.652C239.112 296.652 236.055 296.118 234.128 297.701C232.2 299.284 231.66 301.81 232.132 302.383L239.112 296.652Z" fill="#59A565"/>
<path d="M239.112 296.652C239.112 296.652 239.046 299.753 237.119 301.336C235.191 302.92 232.612 302.98 232.132 302.383L239.112 296.652Z" fill="#87CB92"/>
<path d="M237.154 286.946C237.154 286.946 234.098 286.412 232.17 287.995C230.243 289.579 229.703 292.104 230.177 292.68L237.154 286.946Z" fill="#59A565"/>
<path d="M237.154 286.946C237.154 286.946 237.089 290.047 235.161 291.63C233.234 293.214 230.654 293.247 230.191 292.666L237.154 286.946Z" fill="#87CB92"/>
<path d="M224.801 283.36C224.801 283.36 223.979 286.349 225.349 288.42C226.72 290.491 229.188 291.283 229.818 290.863L224.801 283.36Z" fill="#59A565"/>
<path d="M224.801 283.36C224.801 283.36 227.882 283.733 229.27 285.804C230.657 287.875 230.449 290.447 229.818 290.863L224.801 283.36Z" fill="#87CB92"/>
<path d="M234.827 276.125C234.827 276.125 231.937 277.257 231.115 279.61C230.292 281.963 231.134 284.398 231.844 284.645L234.827 276.125Z" fill="#59A565"/>
<path d="M234.827 276.125C234.827 276.125 236.384 278.81 235.559 281.163C234.733 283.516 232.543 284.894 231.844 284.645L234.827 276.125Z" fill="#87CB92"/>
<path d="M223.91 298.539C223.91 298.539 224.527 301.577 226.706 302.794C228.886 304.01 231.43 303.594 231.797 302.936L223.91 298.539Z" fill="#59A565"/>
<path d="M223.91 298.539C223.91 298.539 226.821 297.468 229.001 298.684C231.181 299.901 232.165 302.281 231.797 302.936L223.91 298.539Z" fill="#87CB92"/>
<path d="M225.73 311.732C225.73 311.732 226.353 314.77 228.527 315.984C230.701 317.197 233.25 316.784 233.618 316.126L225.73 311.732Z" fill="#59A565"/>
<path d="M225.73 311.732C225.73 311.732 228.642 310.661 230.821 311.875C233.001 313.088 233.985 315.472 233.618 316.129L225.73 311.732Z" fill="#87CB92"/>
<path d="M352.344 315.71L352.259 316.455L350.844 328.508C347.162 331.072 344.297 328.607 344.264 328.508L342.485 316.411L342.384 315.724L352.344 315.71Z" fill="#E6E6E6"/>
<path opacity="0.1" d="M352.343 315.71L352.258 316.455C348.108 318.866 343.683 317.003 342.493 316.397L342.392 315.71H352.343Z" fill="black"/>
<path d="M342.183 315.061V316.156C342.183 316.156 347.666 319.345 352.601 316.156V315.061H342.183Z" fill="#39AF73"/>
<path d="M342.822 313.628C342.822 313.628 342.66 314.359 342.183 314.425V315.348H352.601V314.526C352.414 314.474 352.254 314.352 352.152 314.187C352.051 314.021 352.015 313.824 352.053 313.633L342.822 313.628Z" fill="#39AA6C"/>
<path d="M347.368 315.063C349.966 315.063 352.072 314.456 352.072 313.707C352.072 312.958 349.966 312.351 347.368 312.351C344.769 312.351 342.663 312.958 342.663 313.707C342.663 314.456 344.769 315.063 347.368 315.063Z" fill="#6C63FF"/>
<path d="M347.368 315.063C349.966 315.063 352.072 314.456 352.072 313.707C352.072 312.958 349.966 312.351 347.368 312.351C344.769 312.351 342.663 312.958 342.663 313.707C342.663 314.456 344.769 315.063 347.368 315.063Z" fill="#39AF73"/>
<path d="M351.499 313.628C351.499 314.176 349.714 314.617 347.513 314.617H347.395C345.915 314.617 344.637 314.398 343.985 314.091C343.691 313.951 343.524 313.792 343.524 313.628C343.524 313.354 343.979 313.102 344.719 312.924C345.638 312.726 346.576 312.634 347.516 312.65C349.723 312.639 351.499 313.08 351.499 313.628Z" fill="#318D5E"/>
<path d="M347.395 314.614C345.915 314.614 344.637 314.395 343.985 314.088L344.717 312.916L347.395 314.614Z" fill="#2F8255"/>
<path d="M343.228 313.705C343.17 313.705 343.096 313.705 343.085 313.768C343.083 313.797 343.091 313.826 343.107 313.85C343.231 314.047 343.412 314.201 343.625 314.293C343.662 314.313 343.702 314.326 343.743 314.332C343.765 314.334 343.787 314.33 343.806 314.319C343.826 314.309 343.842 314.293 343.853 314.274C343.859 314.258 343.863 314.241 343.863 314.224C343.863 314.206 343.859 314.189 343.853 314.173C343.819 314.114 343.773 314.064 343.718 314.025C343.565 313.913 343.417 313.735 343.228 313.705Z" fill="#318D5E"/>
<path d="M347.527 325.311C349.077 325.311 350.334 324.056 350.334 322.506C350.334 320.957 349.077 319.701 347.527 319.701C345.976 319.701 344.719 320.957 344.719 322.506C344.719 324.056 345.976 325.311 347.527 325.311Z" fill="#39AF73"/>
<path d="M337.004 272.192C335.974 272.193 334.985 272.593 334.244 273.308C333.504 274.024 333.07 274.998 333.035 276.027V276.15C333.035 276.935 333.268 277.703 333.704 278.356C334.141 279.009 334.762 279.517 335.488 279.818C336.214 280.118 337.013 280.196 337.783 280.043C338.554 279.89 339.262 279.511 339.817 278.956C340.373 278.401 340.751 277.693 340.904 276.923C341.057 276.153 340.978 275.355 340.677 274.629C340.375 273.904 339.866 273.284 339.212 272.848C338.559 272.413 337.79 272.18 337.004 272.181V272.192ZM337.004 280.015C335.982 280.015 335.001 279.608 334.278 278.886C333.554 278.163 333.148 277.183 333.147 276.161C333.147 276.106 333.147 276.054 333.147 276.005C333.178 275.25 333.43 274.521 333.872 273.908C334.314 273.295 334.927 272.825 335.634 272.557C336.341 272.289 337.111 272.235 337.849 272.401C338.587 272.567 339.26 272.946 339.783 273.491C340.307 274.036 340.659 274.723 340.795 275.466C340.932 276.21 340.846 276.977 340.55 277.672C340.254 278.367 339.759 278.96 339.128 279.376C338.497 279.793 337.758 280.015 337.002 280.015H337.004Z" fill="#3F3D56" stroke="#3F3D56" stroke-width="0.75" stroke-miterlimit="10"/>
<path d="M340.352 276.161C340.352 277.048 340 277.899 339.372 278.526C338.744 279.154 337.893 279.506 337.005 279.506C336.117 279.506 335.266 279.154 334.638 278.526C334.01 277.899 333.657 277.048 333.657 276.161C333.657 276.056 333.663 275.951 333.674 275.846C333.759 274.993 334.168 274.205 334.817 273.645C335.466 273.085 336.306 272.795 337.163 272.836C338.019 272.876 338.828 273.244 339.422 273.862C340.015 274.481 340.348 275.304 340.352 276.161Z" fill="#E6E6E6"/>
<path d="M338.002 276.383C337.921 276.277 337.814 276.192 337.692 276.136C337.541 276.073 337.386 276.022 337.226 275.983V275.074C337.471 275.111 337.701 275.215 337.89 275.375L338.074 274.98C337.967 274.886 337.844 274.811 337.712 274.758C337.565 274.698 337.411 274.659 337.254 274.641V274.18H336.837V274.646C336.672 274.665 336.512 274.718 336.368 274.802C336.24 274.879 336.131 274.987 336.053 275.115C335.977 275.238 335.938 275.381 335.941 275.526C335.933 275.684 335.978 275.84 336.07 275.969C336.153 276.081 336.265 276.169 336.393 276.224C336.546 276.29 336.705 276.344 336.867 276.383V277.254C336.578 277.233 336.302 277.123 336.078 276.939L335.894 277.334C336.019 277.439 336.162 277.521 336.316 277.575C336.484 277.634 336.659 277.671 336.837 277.684V278.142H337.265V277.673C337.503 277.648 337.726 277.546 337.901 277.383C337.978 277.309 338.04 277.22 338.081 277.122C338.122 277.023 338.142 276.917 338.139 276.81C338.142 276.657 338.094 276.506 338.002 276.383ZM336.856 275.887C336.755 275.856 336.662 275.803 336.582 275.734C336.549 275.704 336.522 275.668 336.505 275.627C336.487 275.587 336.479 275.542 336.481 275.498C336.479 275.448 336.487 275.398 336.505 275.351C336.523 275.304 336.55 275.261 336.585 275.224C336.659 275.149 336.755 275.098 336.859 275.079L336.856 275.887ZM337.495 277.092C337.421 277.168 337.325 277.218 337.221 277.235V276.484C337.321 276.509 337.414 276.555 337.495 276.619C337.524 276.645 337.547 276.677 337.563 276.713C337.579 276.749 337.586 276.788 337.586 276.827C337.589 276.876 337.583 276.926 337.568 276.973C337.552 277.02 337.528 277.063 337.495 277.101V277.092Z" fill="#318D5E"/>
<path d="M345.69 261.155C344.659 261.155 343.669 261.555 342.929 262.27C342.188 262.986 341.755 263.961 341.72 264.99C341.72 265.028 341.72 265.069 341.72 265.11C341.72 265.895 341.953 266.663 342.389 267.316C342.826 267.968 343.446 268.477 344.172 268.778C344.898 269.078 345.697 269.157 346.467 269.004C347.238 268.85 347.946 268.472 348.501 267.917C349.057 267.362 349.435 266.655 349.589 265.885C349.742 265.115 349.663 264.317 349.363 263.591C349.062 262.866 348.553 262.246 347.899 261.81C347.246 261.374 346.478 261.141 345.692 261.141L345.69 261.155ZM345.69 268.978C344.667 268.978 343.686 268.571 342.963 267.849C342.24 267.126 341.833 266.146 341.832 265.124C341.832 265.072 341.832 265.02 341.832 264.968C341.863 264.213 342.115 263.484 342.557 262.871C342.999 262.257 343.612 261.788 344.319 261.52C345.026 261.252 345.797 261.198 346.534 261.364C347.272 261.53 347.945 261.909 348.469 262.454C348.992 262.999 349.344 263.686 349.481 264.429C349.617 265.173 349.532 265.94 349.235 266.635C348.939 267.33 348.444 267.923 347.814 268.339C347.183 268.756 346.443 268.978 345.687 268.978H345.69Z" fill="#3F3D56" stroke="#3F3D56" stroke-width="0.75" stroke-miterlimit="10"/>
<path d="M349.037 265.124C349.037 266.011 348.684 266.862 348.057 267.489C347.429 268.116 346.577 268.469 345.69 268.469C344.802 268.469 343.95 268.116 343.323 267.489C342.695 266.862 342.342 266.011 342.342 265.124C342.342 265.017 342.342 264.913 342.342 264.812C342.42 263.954 342.827 263.158 343.477 262.592C344.127 262.026 344.971 261.733 345.832 261.773C346.694 261.813 347.507 262.184 348.101 262.808C348.696 263.433 349.026 264.262 349.023 265.124H349.037Z" fill="#E6E6E6"/>
<path d="M346.688 265.346C346.606 265.24 346.498 265.156 346.375 265.102C346.225 265.038 346.069 264.986 345.909 264.949V264.037C346.154 264.074 346.384 264.179 346.573 264.341L346.759 263.946C346.653 263.851 346.53 263.776 346.397 263.724C346.251 263.663 346.097 263.623 345.939 263.606V263.143H345.512V263.609C345.346 263.628 345.186 263.682 345.043 263.768C344.914 263.845 344.805 263.951 344.725 264.078C344.651 264.203 344.613 264.346 344.612 264.491C344.604 264.649 344.651 264.805 344.744 264.932C344.828 265.045 344.939 265.134 345.068 265.19C345.221 265.256 345.379 265.308 345.542 265.346V266.22C345.252 266.198 344.977 266.088 344.752 265.905L344.566 266.299C344.692 266.403 344.834 266.483 344.988 266.538C345.157 266.598 345.333 266.635 345.512 266.647V267.105H345.939V266.639C346.177 266.612 346.4 266.51 346.575 266.349C346.652 266.274 346.713 266.185 346.754 266.087C346.795 265.988 346.815 265.883 346.814 265.776C346.82 265.623 346.775 265.472 346.688 265.346ZM345.542 264.853C345.442 264.819 345.349 264.767 345.268 264.699C345.235 264.669 345.209 264.633 345.191 264.591C345.174 264.55 345.167 264.506 345.169 264.461C345.166 264.411 345.174 264.361 345.191 264.314C345.209 264.267 345.236 264.224 345.27 264.187C345.344 264.111 345.44 264.059 345.545 264.039L345.542 264.853ZM346.178 266.058C346.105 266.134 346.008 266.183 345.904 266.198V265.447C346.003 265.473 346.097 265.519 346.178 265.582C346.209 265.607 346.233 265.639 346.249 265.676C346.266 265.713 346.273 265.752 346.271 265.792C346.277 265.892 346.244 265.991 346.178 266.066V266.058Z" fill="#318D5E"/>
<path opacity="0.64" d="M217.58 230.065L212.735 224.877L217.928 220.036L222.772 225.225L217.58 230.065ZM213.508 224.904L217.621 229.287L222.007 225.178L217.909 220.795L213.508 224.904Z" fill="#425C68"/>
<path opacity="0.64" d="M267.331 266.949L262.486 261.768L267.679 256.928L272.52 262.116L267.331 266.949ZM263.259 261.79L267.355 266.173L271.742 262.078L267.629 257.695L263.259 261.79Z" fill="white"/>
<path d="M258.69 194.99H258.141V209.216H258.69V194.99Z" fill="#425C68"/>
<path d="M258.429 191.683C259.004 193.239 259.991 195.171 261.036 196.368L258.429 195.425L255.822 196.368C256.85 195.176 257.837 193.239 258.429 191.683Z" fill="#425C68"/>
<path d="M172.495 246.814H171.947V261.04H172.495V246.814Z" fill="white"/>
<path d="M172.221 243.507C172.799 245.063 173.783 246.995 174.828 248.192L172.221 247.249L169.603 248.192C170.658 246.995 171.642 245.063 172.221 243.507Z" fill="white"/>
<path d="M322.428 226.625H321.959V238.755H322.428V226.625Z" fill="#425C68"/>
<path d="M322.192 223.806C322.686 225.132 323.527 226.778 324.415 227.797L322.192 226.994L319.969 227.797C320.86 226.778 321.701 225.132 322.192 223.806Z" fill="#425C68"/>
<path d="M346.77 278.065C348.573 277.502 349.794 276.272 349.495 275.317C349.197 274.363 347.493 274.045 345.689 274.608C343.885 275.171 342.665 276.402 342.964 277.356C343.262 278.311 344.966 278.628 346.77 278.065Z" fill="#F7CA46"/>
<path d="M356.851 277.312C351.099 276.908 345.407 278.685 340.908 282.289L338.874 275.775C343.585 272.583 349.133 270.852 354.825 270.797L356.851 277.312Z" stroke="#3F3D56" stroke-miterlimit="10"/>
<path d="M346.784 275.949C348.579 275.382 349.79 274.153 349.49 273.203C349.19 272.253 347.491 271.942 345.696 272.508C343.901 273.075 342.689 274.304 342.989 275.254C343.29 276.204 344.988 276.515 346.784 275.949Z" stroke="#3F3D56" stroke-width="0.996243" stroke-miterlimit="10"/>
<path d="M173.816 275.527C174.374 275.527 174.827 275.075 174.827 274.517C174.827 273.959 174.374 273.507 173.816 273.507C173.257 273.507 172.805 273.959 172.805 274.517C172.805 275.075 173.257 275.527 173.816 275.527Z" fill="#425C68"/>
<path d="M169.78 275.527C170.339 275.527 170.791 275.075 170.791 274.517C170.791 273.959 170.339 273.507 169.78 273.507C169.222 273.507 168.769 273.959 168.769 274.517C168.769 275.075 169.222 275.527 169.78 275.527Z" fill="#425C68"/>
<path d="M165.745 275.527C166.303 275.527 166.756 275.075 166.756 274.517C166.756 273.959 166.303 273.507 165.745 273.507C165.186 273.507 164.733 273.959 164.733 274.517C164.733 275.075 165.186 275.527 165.745 275.527Z" fill="#425C68"/>
<path d="M161.709 275.527C162.268 275.527 162.72 275.075 162.72 274.517C162.72 273.959 162.268 273.507 161.709 273.507C161.151 273.507 160.698 273.959 160.698 274.517C160.698 275.075 161.151 275.527 161.709 275.527Z" fill="#425C68"/>
<path d="M173.816 279.752C174.374 279.752 174.827 279.299 174.827 278.741C174.827 278.183 174.374 277.731 173.816 277.731C173.257 277.731 172.805 278.183 172.805 278.741C172.805 279.299 173.257 279.752 173.816 279.752Z" fill="#425C68"/>
<path d="M169.78 279.752C170.339 279.752 170.791 279.299 170.791 278.741C170.791 278.183 170.339 277.731 169.78 277.731C169.222 277.731 168.769 278.183 168.769 278.741C168.769 279.299 169.222 279.752 169.78 279.752Z" fill="#425C68"/>
<path d="M165.745 279.752C166.303 279.752 166.756 279.299 166.756 278.741C166.756 278.183 166.303 277.731 165.745 277.731C165.186 277.731 164.733 278.183 164.733 278.741C164.733 279.299 165.186 279.752 165.745 279.752Z" fill="#425C68"/>
<path d="M161.709 279.752C162.267 279.752 162.72 279.299 162.72 278.741C162.72 278.183 162.267 277.731 161.709 277.731C161.15 277.731 160.698 278.183 160.698 278.741C160.698 279.299 161.15 279.752 161.709 279.752Z" fill="#425C68"/>
<path d="M173.816 283.976C174.374 283.976 174.827 283.523 174.827 282.965C174.827 282.407 174.374 281.955 173.816 281.955C173.257 281.955 172.805 282.407 172.805 282.965C172.805 283.523 173.257 283.976 173.816 283.976Z" fill="#425C68"/>
<path d="M169.78 283.976C170.339 283.976 170.791 283.523 170.791 282.965C170.791 282.407 170.339 281.955 169.78 281.955C169.222 281.955 168.769 282.407 168.769 282.965C168.769 283.523 169.222 283.976 169.78 283.976Z" fill="#425C68"/>
<path d="M165.745 283.976C166.303 283.976 166.756 283.523 166.756 282.965C166.756 282.407 166.303 281.955 165.745 281.955C165.186 281.955 164.733 282.407 164.733 282.965C164.733 283.523 165.186 283.976 165.745 283.976Z" fill="#425C68"/>
<path d="M161.709 283.976C162.267 283.976 162.72 283.523 162.72 282.965C162.72 282.407 162.267 281.955 161.709 281.955C161.15 281.955 160.698 282.407 160.698 282.965C160.698 283.523 161.15 283.976 161.709 283.976Z" fill="#425C68"/>
<path d="M173.816 288.2C174.374 288.2 174.827 287.748 174.827 287.189C174.827 286.631 174.374 286.179 173.816 286.179C173.257 286.179 172.805 286.631 172.805 287.189C172.805 287.748 173.257 288.2 173.816 288.2Z" fill="#425C68"/>
<path d="M169.78 288.2C170.339 288.2 170.791 287.748 170.791 287.189C170.791 286.631 170.339 286.179 169.78 286.179C169.222 286.179 168.769 286.631 168.769 287.189C168.769 287.748 169.222 288.2 169.78 288.2Z" fill="#425C68"/>
<path d="M165.745 288.2C166.303 288.2 166.756 287.748 166.756 287.189C166.756 286.631 166.303 286.179 165.745 286.179C165.186 286.179 164.733 286.631 164.733 287.189C164.733 287.748 165.186 288.2 165.745 288.2Z" fill="#425C68"/>
<path d="M161.709 288.2C162.267 288.2 162.72 287.748 162.72 287.189C162.72 286.631 162.267 286.179 161.709 286.179C161.15 286.179 160.698 286.631 160.698 287.189C160.698 287.748 161.15 288.2 161.709 288.2Z" fill="#425C68"/>
<path d="M173.816 292.424C174.374 292.424 174.827 291.972 174.827 291.414C174.827 290.856 174.374 290.403 173.816 290.403C173.257 290.403 172.805 290.856 172.805 291.414C172.805 291.972 173.257 292.424 173.816 292.424Z" fill="#425C68"/>
<path d="M169.78 292.424C170.339 292.424 170.791 291.972 170.791 291.414C170.791 290.856 170.339 290.403 169.78 290.403C169.222 290.403 168.769 290.856 168.769 291.414C168.769 291.972 169.222 292.424 169.78 292.424Z" fill="#425C68"/>
<path d="M165.745 292.424C166.303 292.424 166.756 291.972 166.756 291.414C166.756 290.856 166.303 290.403 165.745 290.403C165.186 290.403 164.733 290.856 164.733 291.414C164.733 291.972 165.186 292.424 165.745 292.424Z" fill="#425C68"/>
<path d="M161.709 292.424C162.267 292.424 162.72 291.972 162.72 291.414C162.72 290.856 162.267 290.403 161.709 290.403C161.15 290.403 160.698 290.856 160.698 291.414C160.698 291.972 161.15 292.424 161.709 292.424Z" fill="#425C68"/>
<path d="M173.816 296.648C174.374 296.648 174.827 296.196 174.827 295.638C174.827 295.08 174.374 294.627 173.816 294.627C173.257 294.627 172.805 295.08 172.805 295.638C172.805 296.196 173.257 296.648 173.816 296.648Z" fill="#425C68"/>
<path d="M169.78 296.648C170.339 296.648 170.791 296.196 170.791 295.638C170.791 295.08 170.339 294.627 169.78 294.627C169.222 294.627 168.769 295.08 168.769 295.638C168.769 296.196 169.222 296.648 169.78 296.648Z" fill="#425C68"/>
<path d="M165.745 296.648C166.303 296.648 166.756 296.196 166.756 295.638C166.756 295.08 166.303 294.627 165.745 294.627C165.186 294.627 164.733 295.08 164.733 295.638C164.733 296.196 165.186 296.648 165.745 296.648Z" fill="#425C68"/>
<path d="M161.709 296.648C162.267 296.648 162.72 296.196 162.72 295.638C162.72 295.08 162.267 294.627 161.709 294.627C161.15 294.627 160.698 295.08 160.698 295.638C160.698 296.196 161.15 296.648 161.709 296.648Z" fill="#425C68"/>
<path d="M383.375 236.316C384.106 236.316 384.699 235.724 384.699 234.993C384.699 234.263 384.106 233.67 383.375 233.67C382.644 233.67 382.051 234.263 382.051 234.993C382.051 235.724 382.644 236.316 383.375 236.316Z" fill="#425C68"/>
<path d="M378.1 236.316C378.831 236.316 379.424 235.724 379.424 234.993C379.424 234.263 378.831 233.67 378.1 233.67C377.369 233.67 376.776 234.263 376.776 234.993C376.776 235.724 377.369 236.316 378.1 236.316Z" fill="#425C68"/>
<path d="M372.826 236.316C373.557 236.316 374.15 235.724 374.15 234.993C374.15 234.263 373.557 233.67 372.826 233.67C372.094 233.67 371.502 234.263 371.502 234.993C371.502 235.724 372.094 236.316 372.826 236.316Z" fill="#425C68"/>
<path d="M367.551 236.316C368.282 236.316 368.875 235.724 368.875 234.993C368.875 234.263 368.282 233.67 367.551 233.67C366.82 233.67 366.227 234.263 366.227 234.993C366.227 235.724 366.82 236.316 367.551 236.316Z" fill="#425C68"/>
<path d="M383.375 241.836C384.106 241.836 384.699 241.244 384.699 240.513C384.699 239.783 384.106 239.19 383.375 239.19C382.644 239.19 382.051 239.783 382.051 240.513C382.051 241.244 382.644 241.836 383.375 241.836Z" fill="#425C68"/>
<path d="M378.1 241.836C378.831 241.836 379.424 241.244 379.424 240.513C379.424 239.783 378.831 239.19 378.1 239.19C377.369 239.19 376.776 239.783 376.776 240.513C376.776 241.244 377.369 241.836 378.1 241.836Z" fill="#425C68"/>
<path d="M372.826 241.836C373.557 241.836 374.15 241.244 374.15 240.513C374.15 239.783 373.557 239.19 372.826 239.19C372.094 239.19 371.502 239.783 371.502 240.513C371.502 241.244 372.094 241.836 372.826 241.836Z" fill="#425C68"/>
<path d="M367.551 241.836C368.282 241.836 368.875 241.244 368.875 240.513C368.875 239.783 368.282 239.19 367.551 239.19C366.82 239.19 366.227 239.783 366.227 240.513C366.227 241.244 366.82 241.836 367.551 241.836Z" fill="#425C68"/>
<path d="M383.375 247.359C384.106 247.359 384.699 246.767 384.699 246.036C384.699 245.305 384.106 244.713 383.375 244.713C382.644 244.713 382.051 245.305 382.051 246.036C382.051 246.767 382.644 247.359 383.375 247.359Z" fill="#425C68"/>
<path d="M378.1 247.359C378.831 247.359 379.424 246.767 379.424 246.036C379.424 245.305 378.831 244.713 378.1 244.713C377.369 244.713 376.776 245.305 376.776 246.036C376.776 246.767 377.369 247.359 378.1 247.359Z" fill="#425C68"/>
<path d="M372.826 247.359C373.557 247.359 374.15 246.767 374.15 246.036C374.15 245.305 373.557 244.713 372.826 244.713C372.094 244.713 371.502 245.305 371.502 246.036C371.502 246.767 372.094 247.359 372.826 247.359Z" fill="#425C68"/>
<path d="M367.551 247.359C368.282 247.359 368.875 246.767 368.875 246.036C368.875 245.305 368.282 244.713 367.551 244.713C366.82 244.713 366.227 245.305 366.227 246.036C366.227 246.767 366.82 247.359 367.551 247.359Z" fill="#425C68"/>
<path d="M383.375 252.879C384.106 252.879 384.699 252.287 384.699 251.556C384.699 250.825 384.106 250.233 383.375 250.233C382.644 250.233 382.051 250.825 382.051 251.556C382.051 252.287 382.644 252.879 383.375 252.879Z" fill="#425C68"/>
<path d="M378.1 252.879C378.831 252.879 379.424 252.287 379.424 251.556C379.424 250.825 378.831 250.233 378.1 250.233C377.369 250.233 376.776 250.825 376.776 251.556C376.776 252.287 377.369 252.879 378.1 252.879Z" fill="#425C68"/>
<path d="M372.826 252.879C373.557 252.879 374.15 252.287 374.15 251.556C374.15 250.825 373.557 250.233 372.826 250.233C372.094 250.233 371.502 250.825 371.502 251.556C371.502 252.287 372.094 252.879 372.826 252.879Z" fill="#425C68"/>
<path d="M367.551 252.879C368.282 252.879 368.875 252.287 368.875 251.556C368.875 250.825 368.282 250.233 367.551 250.233C366.82 250.233 366.227 250.825 366.227 251.556C366.227 252.287 366.82 252.879 367.551 252.879Z" fill="#425C68"/>
<path d="M383.375 258.402C384.106 258.402 384.699 257.809 384.699 257.078C384.699 256.348 384.106 255.755 383.375 255.755C382.644 255.755 382.051 256.348 382.051 257.078C382.051 257.809 382.644 258.402 383.375 258.402Z" fill="#425C68"/>
<path d="M378.1 258.402C378.831 258.402 379.424 257.809 379.424 257.078C379.424 256.348 378.831 255.755 378.1 255.755C377.369 255.755 376.776 256.348 376.776 257.078C376.776 257.809 377.369 258.402 378.1 258.402Z" fill="#425C68"/>
<path d="M372.826 258.402C373.557 258.402 374.15 257.809 374.15 257.078C374.15 256.348 373.557 255.755 372.826 255.755C372.094 255.755 371.502 256.348 371.502 257.078C371.502 257.809 372.094 258.402 372.826 258.402Z" fill="#425C68"/>
<path d="M367.551 258.402C368.282 258.402 368.875 257.809 368.875 257.078C368.875 256.348 368.282 255.755 367.551 255.755C366.82 255.755 366.227 256.348 366.227 257.078C366.227 257.809 366.82 258.402 367.551 258.402Z" fill="#425C68"/>
<path d="M383.375 263.921C384.106 263.921 384.699 263.329 384.699 262.598C384.699 261.868 384.106 261.275 383.375 261.275C382.644 261.275 382.051 261.868 382.051 262.598C382.051 263.329 382.644 263.921 383.375 263.921Z" fill="#425C68"/>
<path d="M378.1 263.921C378.831 263.921 379.424 263.329 379.424 262.598C379.424 261.868 378.831 261.275 378.1 261.275C377.369 261.275 376.776 261.868 376.776 262.598C376.776 263.329 377.369 263.921 378.1 263.921Z" fill="#425C68"/>
<path d="M372.826 263.921C373.557 263.921 374.15 263.329 374.15 262.598C374.15 261.868 373.557 261.275 372.826 261.275C372.094 261.275 371.502 261.868 371.502 262.598C371.502 263.329 372.094 263.921 372.826 263.921Z" fill="#425C68"/>
<path d="M367.551 263.921C368.282 263.921 368.875 263.329 368.875 262.598C368.875 261.868 368.282 261.275 367.551 261.275C366.82 261.275 366.227 261.868 366.227 262.598C366.227 263.329 366.82 263.921 367.551 263.921Z" fill="#425C68"/>
<path opacity="0.67" d="M357.733 216.418H338.438V235.697H357.733V216.418Z" fill="#F6F0EA"/>
<path opacity="0.67" d="M383.71 233.61L388.31 241.573L392.91 249.537H383.71H374.506L379.109 241.573L383.71 233.61Z" fill="#F6F0EA"/>
<path opacity="0.67" d="M371.395 205.687C378.232 205.687 383.775 200.149 383.775 193.316C383.775 186.484 378.232 180.945 371.395 180.945C364.557 180.945 359.014 186.484 359.014 193.316C359.014 200.149 364.557 205.687 371.395 205.687Z" fill="#F6F0EA"/>
<path d="M382.539 213.971C382.539 213.567 382.659 213.171 382.884 212.834C383.109 212.498 383.429 212.236 383.803 212.081C384.178 211.926 384.589 211.885 384.987 211.964C385.384 212.043 385.749 212.238 386.035 212.524C386.322 212.81 386.517 213.175 386.596 213.572C386.675 213.969 386.634 214.38 386.479 214.754C386.324 215.128 386.062 215.448 385.725 215.673C385.388 215.898 384.992 216.018 384.587 216.018C384.318 216.018 384.052 215.965 383.803 215.863C383.554 215.76 383.328 215.609 383.138 215.419C382.948 215.229 382.797 215.003 382.694 214.755C382.591 214.506 382.539 214.24 382.539 213.971ZM382.879 213.971C382.879 214.309 382.979 214.639 383.167 214.919C383.355 215.2 383.621 215.419 383.933 215.548C384.245 215.677 384.589 215.711 384.92 215.645C385.252 215.579 385.556 215.417 385.795 215.178C386.034 214.939 386.196 214.635 386.262 214.304C386.328 213.973 386.294 213.63 386.165 213.318C386.036 213.006 385.817 212.74 385.536 212.552C385.255 212.365 384.925 212.265 384.587 212.265C384.134 212.265 383.7 212.444 383.379 212.764C383.059 213.085 382.879 213.519 382.879 213.971Z" fill="#3F3D56"/>
<path d="M374.471 207.23C371.093 207.23 367.791 206.23 364.982 204.355C362.173 202.48 359.984 199.815 358.691 196.697C357.398 193.579 357.06 190.148 357.719 186.837C358.377 183.527 360.004 180.486 362.392 178.1C364.781 175.713 367.824 174.088 371.137 173.43C374.45 172.771 377.884 173.11 381.004 174.401C384.125 175.693 386.792 177.881 388.668 180.687C390.544 183.494 391.545 186.793 391.545 190.169C391.545 194.693 389.746 199.033 386.544 202.232C383.342 205.432 378.999 207.23 374.471 207.23ZM374.471 173.447C371.163 173.447 367.93 174.427 365.179 176.263C362.429 178.1 360.286 180.709 359.02 183.763C357.754 186.816 357.423 190.176 358.068 193.418C358.714 196.659 360.306 199.637 362.645 201.974C364.984 204.311 367.964 205.902 371.208 206.547C374.452 207.192 377.814 206.861 380.87 205.596C383.926 204.331 386.538 202.189 388.376 199.441C390.213 196.693 391.194 193.463 391.194 190.158C391.195 187.962 390.763 185.789 389.923 183.76C389.083 181.732 387.852 179.889 386.299 178.336C384.746 176.784 382.902 175.552 380.872 174.712C378.843 173.872 376.667 173.439 374.471 173.439V173.447Z" fill="#3F3D56"/>
<path d="M363.941 203.424L359.53 212.598L359.839 212.746L364.25 203.573L363.941 203.424Z" fill="#3F3D56"/>
<path d="M362.933 224.808L362.77 225.109L382.201 235.616L382.364 235.315L362.933 224.808Z" fill="#3F3D56"/>
<path d="M363.027 237.423H338.098V212.511H363.027V237.423ZM338.438 237.089H362.687V212.854H338.438V237.089Z" fill="#3F3D56"/>
<path d="M400 249.707H374.213L387.098 227.392L400 249.707ZM374.802 249.367H399.408L387.107 228.074L374.802 249.367Z" fill="#3F3D56"/>
<path d="M159.223 314.34C159.223 320.496 155.56 322.643 151.045 322.643H150.73C150.521 322.643 150.313 322.63 150.11 322.616C146.033 322.328 142.864 320.068 142.864 314.343C142.864 308.42 150.442 300.944 151.009 300.391L151.042 300.358C151.042 300.358 159.223 308.193 159.223 314.34Z" fill="#87CB92"/>
<path d="M150.746 321.712L153.737 317.534L150.738 322.169V322.649C150.529 322.649 150.321 322.635 150.118 322.621L150.439 316.463V316.414L150.469 315.833L147.453 311.176L150.469 315.387V315.51L150.713 310.853L148.139 306.051L150.746 310.037L150.998 300.391L150.96 308.001L153.523 304.988L150.96 308.656L150.894 312.823L153.285 308.826L150.883 313.436L150.845 315.751L154.318 310.187L150.828 316.559L150.746 321.712Z" fill="#425C68"/>
<path d="M144.928 266.431H158.864C158.864 267.153 158.722 267.867 158.446 268.535C158.17 269.202 157.765 269.808 157.254 270.318C156.743 270.829 156.137 271.234 155.469 271.51C154.802 271.786 154.087 271.929 153.364 271.929H150.428C149.706 271.929 148.99 271.786 148.323 271.51C147.655 271.234 147.049 270.829 146.538 270.318C146.028 269.808 145.623 269.202 145.346 268.535C145.07 267.867 144.928 267.153 144.928 266.431Z" fill="#425C68"/>
<path opacity="0.29" d="M162.121 254.125V249.019C162.121 242.845 168.838 237.007 173.197 232.843C179.338 226.975 182.567 219.091 182.567 209.857C182.515 201.777 179.272 194.044 173.543 188.341C167.814 182.638 160.063 179.427 151.976 179.406C143.89 179.384 136.122 182.555 130.363 188.227C124.604 193.9 121.32 201.615 121.225 209.695V209.865C121.225 218.771 124.592 227.189 130.596 232.851C134.93 236.938 141.671 242.79 141.671 249.027V254.134" fill="#F7CA46"/>
<path d="M166.586 254.125V249.019C166.586 242.844 173.306 237.007 177.662 232.843C183.806 226.975 187.036 219.091 187.036 209.857C186.951 201.798 183.694 194.097 177.968 188.421C172.243 182.745 164.511 179.55 156.446 179.529C148.38 179.508 140.631 182.662 134.876 188.308C129.121 193.953 125.823 201.637 125.696 209.695V209.865C125.696 218.771 129.065 227.189 135.069 232.851C139.404 236.938 146.145 242.79 146.145 249.027V254.134" stroke="#3F3D56" stroke-width="1.5" stroke-miterlimit="10"/>
<path d="M158.713 264.042H145.079C144.762 264.042 144.458 263.916 144.234 263.692C144.01 263.468 143.884 263.164 143.884 262.848C143.884 262.531 144.01 262.227 144.234 262.003C144.458 261.779 144.762 261.653 145.079 261.653H158.713C159.03 261.653 159.334 261.779 159.558 262.003C159.782 262.227 159.908 262.531 159.908 262.848C159.908 263.164 159.782 263.468 159.558 263.692C159.334 263.916 159.03 264.042 158.713 264.042Z" fill="#E6E6E6"/>
<path d="M123.802 184.462C123.571 184.462 123.348 184.378 123.174 184.227L114.949 177.06C114.849 176.98 114.765 176.88 114.704 176.766C114.643 176.652 114.606 176.527 114.595 176.399C114.583 176.27 114.598 176.141 114.638 176.018C114.678 175.896 114.742 175.782 114.827 175.685C114.912 175.588 115.016 175.509 115.132 175.453C115.249 175.397 115.375 175.365 115.504 175.359C115.633 175.353 115.762 175.374 115.883 175.419C116.004 175.464 116.114 175.533 116.208 175.622L124.432 182.786C124.579 182.914 124.684 183.084 124.731 183.273C124.779 183.461 124.768 183.66 124.699 183.843C124.631 184.025 124.508 184.182 124.347 184.293C124.187 184.404 123.997 184.463 123.802 184.462Z" fill="#E6E6E6"/>
<path d="M182.589 185.484C182.394 185.484 182.204 185.424 182.044 185.313C181.885 185.202 181.762 185.045 181.694 184.863C181.626 184.681 181.615 184.482 181.663 184.294C181.71 184.105 181.815 183.936 181.961 183.808L190.186 176.644C190.279 176.555 190.39 176.486 190.511 176.441C190.632 176.396 190.761 176.375 190.89 176.381C191.019 176.387 191.145 176.419 191.261 176.475C191.378 176.531 191.481 176.61 191.566 176.707C191.651 176.804 191.716 176.917 191.756 177.04C191.796 177.163 191.811 177.292 191.799 177.421C191.788 177.549 191.75 177.674 191.689 177.788C191.628 177.901 191.545 178.002 191.444 178.082L183.22 185.249C183.045 185.401 182.821 185.484 182.589 185.484Z" fill="#E6E6E6"/>
<path d="M162.121 259.801H141.671C141.364 259.787 141.074 259.654 140.861 259.432C140.649 259.209 140.531 258.913 140.531 258.606C140.531 258.298 140.649 258.002 140.861 257.78C141.074 257.557 141.364 257.425 141.671 257.41H162.121C162.428 257.425 162.718 257.557 162.93 257.78C163.143 258.002 163.261 258.298 163.261 258.606C163.261 258.913 163.143 259.209 162.93 259.432C162.718 259.654 162.428 259.787 162.121 259.801Z" fill="#E6E6E6"/>
<path d="M151.894 255.32C151.577 255.32 151.273 255.194 151.049 254.97C150.825 254.746 150.699 254.442 150.699 254.125V226.885C150.691 226.723 150.717 226.561 150.773 226.409C150.83 226.258 150.917 226.119 151.029 226.001C151.141 225.884 151.275 225.791 151.424 225.727C151.573 225.663 151.734 225.63 151.896 225.63C152.058 225.63 152.218 225.663 152.367 225.727C152.517 225.791 152.651 225.884 152.763 226.001C152.875 226.119 152.962 226.258 153.018 226.409C153.075 226.561 153.1 226.723 153.093 226.885V254.125C153.092 254.442 152.965 254.746 152.741 254.97C152.516 255.194 152.212 255.32 151.894 255.32Z" fill="white"/>
<path d="M151.895 228.079C148.032 228.079 143.289 224.586 143.089 224.436C142.834 224.246 142.665 223.964 142.619 223.65C142.573 223.337 142.654 223.018 142.843 222.763C143.033 222.509 143.315 222.34 143.629 222.294C143.943 222.248 144.263 222.329 144.517 222.518C145.704 223.4 149.348 225.688 151.895 225.688C154.441 225.688 158.088 223.392 159.278 222.518C159.532 222.329 159.851 222.249 160.165 222.295C160.478 222.342 160.761 222.51 160.95 222.765C161.139 223.019 161.219 223.338 161.173 223.651C161.127 223.965 160.958 224.247 160.703 224.436C160.503 224.586 155.76 228.079 151.895 228.079Z" fill="white"/>
<path d="M153.093 174.255C152.839 174.255 152.596 174.155 152.416 173.975C152.237 173.796 152.136 173.553 152.136 173.299V156.959C152.136 156.705 152.237 156.461 152.417 156.281C152.597 156.101 152.841 156 153.096 156C153.35 156 153.594 156.101 153.774 156.281C153.954 156.461 154.055 156.705 154.055 156.959V173.299C154.055 173.425 154.03 173.55 153.982 173.666C153.933 173.783 153.862 173.888 153.773 173.977C153.683 174.066 153.577 174.136 153.461 174.184C153.344 174.232 153.219 174.256 153.093 174.255Z" fill="#E6E6E6"/>
<path d="M298.003 99.7381H309.225V103.254H301.853V106.515H308.338V110.031H301.853V117.802H298.003V99.7381Z" fill="#4D3723"/>
<path d="M317.83 105.165H321.325V117.802H318.336L317.83 116.834C317.424 117.123 316.96 117.361 316.436 117.548C315.93 117.717 315.381 117.802 314.79 117.802C314.334 117.802 313.81 117.734 313.219 117.599C312.645 117.463 312.105 117.208 311.598 116.834C311.092 116.46 310.661 115.942 310.306 115.28C309.969 114.618 309.8 113.76 309.8 112.707V105.165H313.321V112.579C313.321 112.97 313.38 113.301 313.498 113.573C313.633 113.845 313.802 114.066 314.005 114.235C314.224 114.388 314.469 114.507 314.739 114.592C315.009 114.66 315.288 114.694 315.575 114.694C315.795 114.694 316.031 114.66 316.284 114.592C316.555 114.507 316.8 114.38 317.019 114.21C317.256 114.04 317.45 113.819 317.602 113.547C317.754 113.276 317.83 112.953 317.83 112.579V105.165Z" fill="#4D3723"/>
<path d="M330.165 105.165C330.638 105.165 331.162 105.233 331.736 105.369C332.31 105.505 332.85 105.759 333.357 106.133C333.864 106.507 334.286 107.025 334.624 107.687C334.978 108.35 335.155 109.208 335.155 110.261V117.802H331.634V110.388C331.634 109.997 331.567 109.666 331.432 109.394C331.314 109.123 331.145 108.91 330.925 108.757C330.723 108.588 330.486 108.469 330.216 108.401C329.946 108.316 329.675 108.273 329.405 108.273C329.186 108.273 328.941 108.316 328.671 108.401C328.417 108.469 328.172 108.588 327.936 108.757C327.717 108.927 327.531 109.148 327.379 109.42C327.227 109.692 327.151 110.014 327.151 110.388V117.802H323.655V105.165H326.644L327.151 106.133C327.556 105.844 328.012 105.615 328.519 105.445C329.025 105.258 329.574 105.165 330.165 105.165Z" fill="#4D3723"/>
<path d="M350 99.203V117.802H347.011L346.504 116.707C346.116 117.114 345.575 117.454 344.883 117.726C344.208 117.981 343.498 118.108 342.755 118.108C341.86 118.108 341.033 117.938 340.273 117.599C339.513 117.242 338.854 116.766 338.297 116.172C337.757 115.56 337.326 114.855 337.005 114.057C336.701 113.242 336.549 112.375 336.549 111.458C336.549 110.541 336.701 109.683 337.005 108.885C337.326 108.07 337.757 107.365 338.297 106.77C338.854 106.159 339.513 105.683 340.273 105.343C341.033 104.987 341.86 104.808 342.755 104.808C343.549 104.808 344.25 104.902 344.858 105.089C345.483 105.275 346.031 105.59 346.504 106.031V99.203H350ZM346.504 111.509C346.504 110.847 346.42 110.295 346.251 109.853C346.082 109.394 345.846 109.029 345.542 108.757C345.238 108.469 344.883 108.265 344.478 108.146C344.089 108.01 343.667 107.942 343.211 107.942C342.755 107.942 342.325 108.036 341.919 108.222C341.531 108.409 341.185 108.664 340.881 108.987C340.594 109.293 340.366 109.666 340.197 110.108C340.028 110.532 339.943 110.983 339.943 111.458C339.943 111.951 340.028 112.409 340.197 112.834C340.366 113.259 340.594 113.632 340.881 113.955C341.185 114.261 341.531 114.507 341.919 114.694C342.325 114.881 342.755 114.974 343.211 114.974C344.123 114.974 344.892 114.694 345.516 114.133C346.158 113.556 346.487 112.681 346.504 111.509Z" fill="#4D3723"/>
<path d="M160.183 105.165H163.172V113.522C163.172 114.49 163.155 115.356 163.122 116.121C163.105 116.868 163.046 117.539 162.944 118.134C162.843 118.745 162.674 119.289 162.438 119.764C162.218 120.24 161.906 120.681 161.5 121.089C160.757 121.819 159.921 122.321 158.993 122.592C158.081 122.864 157.118 123 156.105 123C155.244 123 154.433 122.898 153.673 122.694C152.913 122.49 152.229 122.21 151.621 121.853V118.567C151.773 118.805 151.984 119.017 152.254 119.204C152.542 119.391 152.862 119.552 153.217 119.688C153.589 119.824 153.977 119.926 154.382 119.994C154.804 120.078 155.227 120.121 155.649 120.121C156.206 120.121 156.73 120.044 157.219 119.892C157.709 119.756 158.131 119.526 158.486 119.204C158.858 118.881 159.145 118.473 159.347 117.981C159.567 117.505 159.677 116.919 159.677 116.223V115.968C159.187 116.41 158.621 116.766 157.979 117.038C157.338 117.293 156.637 117.42 155.877 117.42C155.032 117.42 154.247 117.259 153.521 116.936C152.812 116.596 152.195 116.146 151.672 115.586C151.148 115.008 150.735 114.337 150.431 113.573C150.144 112.792 150 111.968 150 111.102C150 110.235 150.144 109.42 150.431 108.656C150.735 107.891 151.148 107.229 151.672 106.668C152.195 106.091 152.812 105.641 153.521 105.318C154.247 104.978 155.032 104.808 155.877 104.808C156.671 104.808 157.388 104.919 158.03 105.14C158.672 105.343 159.221 105.675 159.677 106.133L160.183 105.165ZM156.586 114.286C157.127 114.286 157.591 114.193 157.979 114.006C158.368 113.802 158.689 113.547 158.942 113.242C159.195 112.936 159.381 112.596 159.499 112.223C159.617 111.849 159.677 111.484 159.677 111.127C159.677 110.736 159.609 110.354 159.474 109.98C159.356 109.59 159.17 109.25 158.917 108.961C158.663 108.656 158.342 108.409 157.954 108.222C157.566 108.036 157.11 107.942 156.586 107.942C156.147 107.942 155.742 108.027 155.37 108.197C154.999 108.367 154.669 108.596 154.382 108.885C154.112 109.174 153.893 109.513 153.724 109.904C153.572 110.278 153.496 110.685 153.496 111.127C153.496 111.569 153.572 111.985 153.724 112.375C153.893 112.749 154.112 113.08 154.382 113.369C154.669 113.658 154.999 113.887 155.37 114.057C155.742 114.21 156.147 114.286 156.586 114.286Z" fill="#5CBA47"/>
<path d="M168.79 106.923C168.959 106.651 169.153 106.396 169.373 106.159C169.592 105.904 169.854 105.683 170.158 105.496C170.462 105.292 170.808 105.131 171.197 105.012C171.585 104.893 172.024 104.834 172.514 104.834C173.088 104.834 173.755 104.936 174.515 105.14L174.186 108.273C174 108.239 173.814 108.197 173.628 108.146C173.476 108.112 173.307 108.087 173.122 108.07C172.936 108.036 172.767 108.019 172.615 108.019C172.075 108.019 171.568 108.095 171.095 108.248C170.639 108.401 170.242 108.613 169.905 108.885C169.567 109.157 169.297 109.488 169.094 109.879C168.891 110.252 168.79 110.66 168.79 111.102V117.802H165.294V105.165H168.461L168.79 106.923Z" fill="#5CBA47"/>
<path d="M188.931 105.165V117.802H185.917L185.562 116.452C185.072 117.114 184.481 117.556 183.789 117.777C183.113 117.998 182.404 118.108 181.661 118.108C180.766 118.108 179.939 117.938 179.179 117.599C178.436 117.242 177.785 116.766 177.228 116.172C176.671 115.56 176.232 114.855 175.911 114.057C175.607 113.242 175.455 112.375 175.455 111.458C175.455 110.541 175.607 109.683 175.911 108.885C176.232 108.07 176.671 107.365 177.228 106.77C177.785 106.159 178.436 105.683 179.179 105.343C179.939 104.987 180.766 104.808 181.661 104.808C182.472 104.808 183.215 104.936 183.89 105.19C184.566 105.445 185.123 105.853 185.562 106.413L185.917 105.165H188.931ZM185.435 111.509C185.435 110.847 185.343 110.295 185.157 109.853C184.988 109.394 184.752 109.029 184.448 108.757C184.16 108.469 183.814 108.265 183.409 108.146C183.021 108.01 182.598 107.942 182.142 107.942C181.686 107.942 181.256 108.036 180.851 108.222C180.462 108.409 180.116 108.664 179.812 108.987C179.508 109.293 179.272 109.666 179.103 110.108C178.934 110.532 178.849 110.983 178.849 111.458C178.849 111.951 178.934 112.409 179.103 112.834C179.272 113.259 179.508 113.632 179.812 113.955C180.116 114.261 180.462 114.507 180.851 114.694C181.256 114.881 181.686 114.974 182.142 114.974C183.054 114.974 183.823 114.694 184.448 114.133C185.089 113.556 185.419 112.681 185.435 111.509Z" fill="#5CBA47"/>
<path d="M199.175 111.178C200.104 111.84 200.568 112.783 200.568 114.006C200.568 114.567 200.433 115.093 200.163 115.586C199.91 116.078 199.555 116.511 199.099 116.885C198.643 117.259 198.111 117.556 197.503 117.777C196.895 117.981 196.245 118.083 195.553 118.083C195.029 118.083 194.514 118.015 194.008 117.879C193.518 117.743 193.062 117.556 192.64 117.318C192.217 117.08 191.846 116.8 191.525 116.477C191.221 116.138 190.993 115.764 190.841 115.356C191.23 115.17 191.66 114.966 192.133 114.745C192.606 114.507 193.02 114.295 193.374 114.108C193.526 114.363 193.763 114.601 194.084 114.821C194.404 115.025 194.843 115.127 195.401 115.127C195.975 115.127 196.397 114.991 196.667 114.719C196.938 114.448 197.073 114.193 197.073 113.955C197.073 113.785 196.98 113.632 196.794 113.496C196.608 113.344 196.397 113.225 196.161 113.14C195.823 113.004 195.544 112.936 195.325 112.936C195.105 112.919 194.852 112.868 194.565 112.783C193.653 112.562 192.952 112.274 192.462 111.917C191.989 111.543 191.643 111.169 191.424 110.796C191.204 110.422 191.078 110.065 191.044 109.726C191.027 109.386 191.018 109.114 191.018 108.91C191.018 108.367 191.137 107.849 191.373 107.356C191.61 106.864 191.93 106.439 192.336 106.082C192.758 105.709 193.239 105.411 193.78 105.19C194.337 104.97 194.928 104.859 195.553 104.859C196.076 104.859 196.574 104.936 197.047 105.089C197.52 105.241 197.951 105.454 198.339 105.726C198.728 105.997 199.057 106.32 199.327 106.694C199.614 107.067 199.825 107.484 199.96 107.942L197.25 108.859C197.149 108.554 196.938 108.307 196.617 108.121C196.313 107.934 195.983 107.84 195.629 107.84C195.274 107.84 194.987 107.959 194.767 108.197C194.548 108.435 194.438 108.673 194.438 108.91C194.438 109.199 194.539 109.428 194.742 109.598C194.962 109.751 195.198 109.862 195.451 109.929C195.637 109.963 195.815 109.997 195.983 110.031C196.169 110.048 196.346 110.074 196.515 110.108C197.106 110.244 197.613 110.397 198.035 110.566C198.474 110.736 198.854 110.94 199.175 111.178Z" fill="#5CBA47"/>
<path d="M210.406 111.178C211.335 111.84 211.799 112.783 211.799 114.006C211.799 114.567 211.664 115.093 211.394 115.586C211.141 116.078 210.786 116.511 210.33 116.885C209.874 117.259 209.342 117.556 208.734 117.777C208.126 117.981 207.476 118.083 206.784 118.083C206.26 118.083 205.745 118.015 205.238 117.879C204.749 117.743 204.293 117.556 203.871 117.318C203.448 117.08 203.077 116.8 202.756 116.477C202.452 116.138 202.224 115.764 202.072 115.356C202.46 115.17 202.891 114.966 203.364 114.745C203.837 114.507 204.25 114.295 204.605 114.108C204.757 114.363 204.994 114.601 205.314 114.821C205.635 115.025 206.074 115.127 206.632 115.127C207.206 115.127 207.628 114.991 207.898 114.719C208.168 114.448 208.303 114.193 208.303 113.955C208.303 113.785 208.211 113.632 208.025 113.496C207.839 113.344 207.628 113.225 207.392 113.14C207.054 113.004 206.775 112.936 206.556 112.936C206.336 112.919 206.083 112.868 205.796 112.783C204.884 112.562 204.183 112.274 203.693 111.917C203.22 111.543 202.874 111.169 202.655 110.796C202.435 110.422 202.308 110.065 202.275 109.726C202.258 109.386 202.249 109.114 202.249 108.91C202.249 108.367 202.368 107.849 202.604 107.356C202.84 106.864 203.161 106.439 203.567 106.082C203.989 105.709 204.47 105.411 205.01 105.19C205.568 104.97 206.159 104.859 206.784 104.859C207.307 104.859 207.805 104.936 208.278 105.089C208.751 105.241 209.182 105.454 209.57 105.726C209.958 105.997 210.288 106.32 210.558 106.694C210.845 107.067 211.056 107.484 211.191 107.942L208.481 108.859C208.379 108.554 208.168 108.307 207.848 108.121C207.544 107.934 207.214 107.84 206.86 107.84C206.505 107.84 206.218 107.959 205.998 108.197C205.779 108.435 205.669 108.673 205.669 108.91C205.669 109.199 205.77 109.428 205.973 109.598C206.193 109.751 206.429 109.862 206.682 109.929C206.868 109.963 207.045 109.997 207.214 110.031C207.4 110.048 207.577 110.074 207.746 110.108C208.337 110.244 208.844 110.397 209.266 110.566C209.705 110.736 210.085 110.94 210.406 111.178Z" fill="#5CBA47"/>
<path d="M220.649 104.808C221.476 104.808 222.245 104.987 222.954 105.343C223.68 105.683 224.305 106.159 224.829 106.77C225.352 107.365 225.757 108.07 226.044 108.885C226.348 109.683 226.5 110.541 226.5 111.458V117.802H223.081V115.484C223.081 114.838 223.081 114.176 223.081 113.496C223.098 112.8 223.106 112.206 223.106 111.713C223.106 111.237 223.03 110.77 222.878 110.312C222.726 109.853 222.515 109.454 222.245 109.114C221.975 108.757 221.654 108.477 221.282 108.273C220.928 108.053 220.548 107.942 220.142 107.942C219.754 107.942 219.382 108.019 219.028 108.171C218.673 108.307 218.361 108.52 218.09 108.808C217.82 109.08 217.601 109.428 217.432 109.853C217.28 110.278 217.204 110.779 217.204 111.356V117.802H213.683V99.203H217.204V106.133C217.643 105.709 218.141 105.386 218.698 105.165C219.273 104.927 219.923 104.808 220.649 104.808Z" fill="#5CBA47"/>
<path d="M234.26 104.808C235.155 104.808 236 104.987 236.793 105.343C237.587 105.683 238.28 106.159 238.871 106.77C239.462 107.365 239.926 108.07 240.264 108.885C240.618 109.683 240.796 110.541 240.796 111.458C240.796 112.375 240.618 113.242 240.264 114.057C239.926 114.855 239.462 115.56 238.871 116.172C238.28 116.766 237.587 117.242 236.793 117.599C236 117.938 235.155 118.108 234.26 118.108C233.348 118.108 232.496 117.938 231.702 117.599C230.908 117.242 230.216 116.766 229.625 116.172C229.034 115.56 228.561 114.855 228.206 114.057C227.868 113.242 227.7 112.375 227.7 111.458C227.7 110.541 227.868 109.683 228.206 108.885C228.561 108.07 229.034 107.365 229.625 106.77C230.216 106.159 230.908 105.683 231.702 105.343C232.496 104.987 233.348 104.808 234.26 104.808ZM234.26 115.025C234.683 115.025 235.071 114.94 235.426 114.77C235.797 114.601 236.118 114.371 236.388 114.082C236.675 113.777 236.895 113.42 237.047 113.012C237.216 112.588 237.3 112.121 237.3 111.611C237.3 111.102 237.216 110.626 237.047 110.184C236.895 109.743 236.675 109.36 236.388 109.038C236.118 108.698 235.797 108.435 235.426 108.248C235.071 108.044 234.683 107.942 234.26 107.942C233.838 107.942 233.441 108.044 233.07 108.248C232.698 108.435 232.369 108.698 232.082 109.038C231.812 109.36 231.592 109.743 231.423 110.184C231.271 110.626 231.195 111.102 231.195 111.611C231.195 112.121 231.271 112.588 231.423 113.012C231.592 113.42 231.812 113.777 232.082 114.082C232.369 114.371 232.698 114.601 233.07 114.77C233.441 114.94 233.838 115.025 234.26 115.025Z" fill="#5CBA47"/>
<path d="M249.895 104.808C250.79 104.808 251.618 104.987 252.378 105.343C253.138 105.683 253.788 106.159 254.328 106.77C254.886 107.365 255.316 108.07 255.62 108.885C255.941 109.683 256.101 110.541 256.101 111.458C256.101 112.375 255.941 113.242 255.62 114.057C255.316 114.855 254.886 115.56 254.328 116.172C253.788 116.766 253.138 117.242 252.378 117.599C251.618 117.938 250.79 118.108 249.895 118.108C249.169 118.108 248.46 117.981 247.767 117.726C247.075 117.454 246.535 117.114 246.146 116.707V122.847H242.651V105.165H245.64L246.146 106.031C246.636 105.59 247.185 105.275 247.793 105.089C248.401 104.902 249.102 104.808 249.895 104.808ZM249.439 114.974C249.895 114.974 250.317 114.881 250.706 114.694C251.111 114.507 251.457 114.261 251.744 113.955C252.048 113.632 252.285 113.259 252.454 112.834C252.639 112.409 252.732 111.951 252.732 111.458C252.732 110.983 252.639 110.532 252.454 110.108C252.285 109.666 252.048 109.293 251.744 108.987C251.457 108.664 251.111 108.409 250.706 108.222C250.317 108.036 249.895 107.942 249.439 107.942C248.983 107.942 248.553 108.01 248.147 108.146C247.759 108.265 247.413 108.469 247.109 108.757C246.822 109.029 246.594 109.394 246.425 109.853C246.256 110.295 246.172 110.83 246.172 111.458C246.172 112.053 246.256 112.571 246.425 113.012C246.594 113.437 246.822 113.802 247.109 114.108C247.413 114.397 247.759 114.618 248.147 114.77C248.553 114.906 248.983 114.974 249.439 114.974Z" fill="#5CBA47"/>
<path d="M264.861 104.808C265.757 104.808 266.584 104.987 267.344 105.343C268.104 105.683 268.754 106.159 269.294 106.77C269.852 107.365 270.282 108.07 270.586 108.885C270.907 109.683 271.068 110.541 271.068 111.458C271.068 112.375 270.907 113.242 270.586 114.057C270.282 114.855 269.852 115.56 269.294 116.172C268.754 116.766 268.104 117.242 267.344 117.599C266.584 117.938 265.757 118.108 264.861 118.108C264.135 118.108 263.426 117.981 262.734 117.726C262.041 117.454 261.501 117.114 261.112 116.707V122.847H257.617V105.165H260.606L261.112 106.031C261.602 105.59 262.151 105.275 262.759 105.089C263.367 104.902 264.068 104.808 264.861 104.808ZM264.406 114.974C264.861 114.974 265.284 114.881 265.672 114.694C266.077 114.507 266.424 114.261 266.711 113.955C267.015 113.632 267.251 113.259 267.42 112.834C267.606 112.409 267.699 111.951 267.699 111.458C267.699 110.983 267.606 110.532 267.42 110.108C267.251 109.666 267.015 109.293 266.711 108.987C266.424 108.664 266.077 108.409 265.672 108.222C265.284 108.036 264.861 107.942 264.406 107.942C263.95 107.942 263.519 108.01 263.114 108.146C262.725 108.265 262.379 108.469 262.075 108.757C261.788 109.029 261.56 109.394 261.391 109.853C261.222 110.295 261.138 110.83 261.138 111.458C261.138 112.053 261.222 112.571 261.391 113.012C261.56 113.437 261.788 113.802 262.075 114.108C262.379 114.397 262.725 114.618 263.114 114.77C263.519 114.906 263.95 114.974 264.406 114.974Z" fill="#5CBA47"/>
<path d="M278.764 104.808C279.71 104.808 280.571 105.004 281.348 105.394C282.124 105.768 282.791 106.269 283.349 106.898C283.906 107.509 284.337 108.222 284.641 109.038C284.945 109.836 285.097 110.66 285.097 111.509C285.097 112.019 285.029 112.562 284.894 113.14H275.927C276.264 113.717 276.746 114.21 277.371 114.618C277.995 115.008 278.671 115.204 279.397 115.204C280.123 115.204 280.757 115.144 281.297 115.025C281.854 114.906 282.378 114.753 282.867 114.567L284.033 116.732C283.408 117.174 282.69 117.514 281.88 117.751C281.086 117.989 280.233 118.108 279.321 118.108C278.325 118.108 277.396 117.938 276.535 117.599C275.673 117.242 274.922 116.766 274.28 116.172C273.638 115.577 273.132 114.872 272.76 114.057C272.389 113.242 272.203 112.375 272.203 111.458C272.203 110.558 272.372 109.709 272.71 108.91C273.047 108.095 273.512 107.39 274.103 106.796C274.711 106.184 275.412 105.7 276.205 105.343C276.999 104.987 277.852 104.808 278.764 104.808ZM281.626 110.414C281.424 109.683 281.061 109.089 280.537 108.63C280.013 108.171 279.422 107.942 278.764 107.942C278.088 107.942 277.472 108.171 276.915 108.63C276.374 109.089 276.003 109.683 275.8 110.414H281.626Z" fill="#5CBA47"/>
<path d="M291.068 106.923C291.237 106.651 291.431 106.396 291.65 106.159C291.87 105.904 292.132 105.683 292.436 105.496C292.74 105.292 293.086 105.131 293.474 105.012C293.863 104.893 294.302 104.834 294.792 104.834C295.366 104.834 296.033 104.936 296.793 105.14L296.463 108.273C296.278 108.239 296.092 108.197 295.906 108.146C295.754 108.112 295.585 108.087 295.4 108.07C295.214 108.036 295.045 108.019 294.893 108.019C294.352 108.019 293.846 108.095 293.373 108.248C292.917 108.401 292.52 108.613 292.182 108.885C291.845 109.157 291.574 109.488 291.372 109.879C291.169 110.252 291.068 110.66 291.068 111.102V117.802H287.572V105.165H290.739L291.068 106.923Z" fill="#5CBA47"/>
<path d="M320.03 90.3969L303.288 89.7444V90.8337L320.03 90.3969Z" fill="#5CBA47"/>
<path d="M326.195 99.5781C316.723 99.5781 310.558 90.2891 310.558 90.2891C310.558 90.2891 316.723 81 326.195 81C335.667 81 344.866 90.2891 344.866 90.2891C344.866 90.2891 335.667 99.5781 326.195 99.5781Z" fill="#5CBA47"/>
<path d="M326.195 81C316.723 81 310.558 90.2891 310.558 90.2891H344.866C344.866 90.2891 335.667 81 326.195 81Z" fill="#22A337"/>
</g>
<defs>
<filter id="filter0_d" x="30" y="26" width="440" height="440" filterUnits="userSpaceOnUse" color-interpolation-filters="sRGB">
<feFlood flood-opacity="0" result="BackgroundImageFix"/>
<feColorMatrix in="SourceAlpha" type="matrix" values="0 0 0 0 0 0 0 0 0 0 0 0 0 0 0 0 0 0 127 0" result="hardAlpha"/>
<feOffset/>
<feGaussianBlur stdDeviation="10"/>
<feComposite in2="hardAlpha" operator="out"/>
<feColorMatrix type="matrix" values="0 0 0 0 0.768627 0 0 0 0 0.768627 0 0 0 0 0.768627 0 0 0 0.1 0"/>
<feBlend mode="normal" in2="BackgroundImageFix" result="effect1_dropShadow"/>
<feBlend mode="normal" in="SourceGraphic" in2="effect1_dropShadow" result="shape"/>
</filter>
<clipPath id="clip0">
<rect width="500" height="400" rx="15" fill="white"/>
</clipPath>
</defs>
</svg>
