<svg width="255" height="180" viewBox="0 0 255 180" fill="none" xmlns="http://www.w3.org/2000/svg">
<g clip-path="url(#clip0)">
<path d="M56.5056 18.0308H40.2437C38.6803 18.0322 37.1814 18.655 36.0759 19.7624C34.9704 20.8698 34.3487 22.3713 34.3473 23.9374V41.5983C34.1394 41.5858 33.9315 41.5672 33.7266 41.5423C29.874 41.1363 26.2113 39.6602 23.1513 37.2805C20.0914 34.9009 17.756 31.7122 16.4083 28.0741C15.0607 24.436 14.7545 20.4931 15.5242 16.6899C16.2939 12.8868 18.1089 9.37466 20.7646 6.54954C23.4203 3.72442 26.811 1.69865 30.5546 0.700633C34.2981 -0.297384 38.2455 -0.227961 41.9518 0.901078C45.658 2.03012 48.9757 4.17387 51.5307 7.09064C54.0858 10.0074 55.7766 13.5812 56.4126 17.409C56.4467 17.6142 56.4777 17.8225 56.5056 18.0308Z" fill="#FCEDE7"/>
<path d="M248.483 17.4091H40.244C38.5161 17.411 36.8595 18.0994 35.6377 19.3233C34.4159 20.5472 33.7287 22.2066 33.7268 23.9374V133.987C33.7287 135.718 34.4159 137.378 35.6377 138.602C36.8595 139.826 38.5161 140.514 40.244 140.516H248.483C250.211 140.514 251.867 139.826 253.089 138.602C254.311 137.378 254.998 135.718 255 133.987V23.9374C254.998 22.2066 254.311 20.5472 253.089 19.3233C251.867 18.0994 250.211 17.411 248.483 17.4091ZM254.379 133.987C254.378 135.554 253.756 137.055 252.651 138.163C251.545 139.27 250.046 139.893 248.483 139.894H40.244C38.6806 139.893 37.1816 139.27 36.0761 138.163C34.9706 137.055 34.3489 135.554 34.3475 133.987V23.9374C34.3489 22.3713 34.9706 20.8698 36.0761 19.7624C37.1816 18.655 38.6806 18.0322 40.244 18.0308H248.483C250.046 18.0322 251.545 18.655 252.651 19.7624C253.756 20.8698 254.378 22.3713 254.379 23.9374V133.987Z" fill="#C4C4C4"/>
<path d="M238.242 35.2438H50.4851C50.4028 35.2438 50.3239 35.2111 50.2657 35.1528C50.2075 35.0945 50.1748 35.0154 50.1748 34.9329C50.1748 34.8505 50.2075 34.7714 50.2657 34.7131C50.3239 34.6548 50.4028 34.6221 50.4851 34.6221H238.242C238.324 34.6221 238.403 34.6548 238.461 34.7131C238.519 34.7714 238.552 34.8505 238.552 34.9329C238.552 35.0154 238.519 35.0945 238.461 35.1528C238.403 35.2111 238.324 35.2438 238.242 35.2438Z" fill="#C4C4C4"/>
<path d="M103.554 127.148C103.471 127.148 103.392 127.115 103.334 127.057C103.276 126.999 103.243 126.92 103.243 126.837V24.5592C103.243 24.4767 103.276 24.3976 103.334 24.3393C103.392 24.281 103.471 24.2483 103.554 24.2483C103.636 24.2483 103.715 24.281 103.773 24.3393C103.831 24.3976 103.864 24.4767 103.864 24.5592V126.837C103.864 126.92 103.831 126.999 103.773 127.057C103.715 127.115 103.636 127.148 103.554 127.148V127.148Z" fill="#C4C4C4"/>
<path d="M150.415 127.148C150.333 127.148 150.254 127.115 150.196 127.057C150.137 126.999 150.105 126.92 150.105 126.837V24.5592C150.105 24.4767 150.137 24.3976 150.196 24.3393C150.254 24.281 150.333 24.2483 150.415 24.2483C150.497 24.2483 150.576 24.281 150.635 24.3393C150.693 24.3976 150.725 24.4767 150.725 24.5592V126.837C150.725 126.92 150.693 126.999 150.635 127.057C150.576 127.115 150.497 127.148 150.415 127.148V127.148Z" fill="#C4C4C4"/>
<path d="M197.277 127.148C197.194 127.148 197.115 127.115 197.057 127.057C196.999 126.999 196.966 126.92 196.966 126.837V24.5592C196.966 24.4767 196.999 24.3976 197.057 24.3393C197.115 24.281 197.194 24.2483 197.277 24.2483C197.359 24.2483 197.438 24.281 197.496 24.3393C197.554 24.3976 197.587 24.4767 197.587 24.5592V126.837C197.587 126.92 197.554 126.999 197.496 127.057C197.438 127.115 197.359 127.148 197.277 127.148V127.148Z" fill="#C4C4C4"/>
<path d="M73.4242 67.3317H62.0843C61.714 67.3313 61.359 67.1838 61.0972 66.9215C60.8354 66.6593 60.6882 66.3037 60.6877 65.9328V52.528C60.6882 52.1571 60.8354 51.8015 61.0972 51.5392C61.359 51.277 61.714 51.1294 62.0843 51.129H73.4242C73.7944 51.1294 74.1494 51.277 74.4112 51.5392C74.673 51.8015 74.8203 52.1571 74.8207 52.528V65.9328C74.8203 66.3037 74.673 66.6593 74.4112 66.9215C74.1494 67.1838 73.7944 67.3313 73.4242 67.3317V67.3317Z" fill="#E05D2A"/>
<path d="M89.5618 105.569H78.222C77.8517 105.569 77.4967 105.422 77.2349 105.159C76.9731 104.897 76.8259 104.541 76.8254 104.171V90.7657C76.8259 90.3948 76.9731 90.0392 77.2349 89.7769C77.4967 89.5147 77.8517 89.3672 78.222 89.3668H89.5618C89.9321 89.3672 90.2871 89.5147 90.5489 89.7769C90.8107 90.0392 90.958 90.3948 90.9584 90.7657V104.171C90.958 104.541 90.8107 104.897 90.5489 105.159C90.2871 105.422 89.9321 105.569 89.5618 105.569V105.569Z" fill="#E05D2A"/>
<path d="M126.182 75.4145H114.842C114.472 75.4141 114.117 75.2665 113.855 75.0043C113.593 74.742 113.446 74.3864 113.446 74.0156V60.6107C113.446 60.2398 113.593 59.8842 113.855 59.622C114.117 59.3597 114.472 59.2122 114.842 59.2118H126.182C126.552 59.2122 126.907 59.3597 127.169 59.622C127.431 59.8842 127.578 60.2398 127.579 60.6107V74.0156C127.578 74.3865 127.431 74.742 127.169 75.0043C126.907 75.2666 126.552 75.4141 126.182 75.4145V75.4145Z" fill="#E05D2A"/>
<path d="M173.664 60.8034H162.325C161.954 60.8029 161.599 60.6554 161.337 60.3932C161.076 60.1309 160.928 59.7753 160.928 59.4044V45.9996C160.928 45.6287 161.076 45.2731 161.337 45.0108C161.599 44.7486 161.954 44.6011 162.325 44.6006H173.664C174.035 44.6011 174.39 44.7486 174.651 45.0108C174.913 45.2731 175.061 45.6287 175.061 45.9996V59.4044C175.061 59.7753 174.913 60.1309 174.651 60.3932C174.39 60.6554 174.035 60.8029 173.664 60.8034V60.8034Z" fill="#E05D2A"/>
<path d="M217.422 60.8034H206.083C205.712 60.8029 205.357 60.6554 205.096 60.3932C204.834 60.1309 204.686 59.7753 204.686 59.4044V45.9996C204.686 45.6287 204.834 45.2731 205.096 45.0108C205.357 44.7486 205.712 44.6011 206.083 44.6006H217.422C217.793 44.6011 218.148 44.7486 218.409 45.0108C218.671 45.2731 218.819 45.6287 218.819 45.9996V59.4044C218.819 59.7753 218.671 60.1309 218.409 60.3932C218.148 60.6554 217.793 60.8029 217.422 60.8034V60.8034Z" fill="#E05D2A"/>
<path d="M237.595 64.5339H226.255C225.885 64.5335 225.53 64.3859 225.268 64.1237C225.006 63.8614 224.859 63.5058 224.858 63.1349V49.7301C224.859 49.3592 225.006 49.0036 225.268 48.7414C225.53 48.4791 225.885 48.3316 226.255 48.3312H237.595C237.965 48.3316 238.32 48.4791 238.582 48.7414C238.844 49.0036 238.991 49.3592 238.991 49.7301V63.135C238.991 63.5059 238.844 63.8614 238.582 64.1237C238.32 64.386 237.965 64.5335 237.595 64.5339Z" fill="#E6E6E6"/>
<path d="M228.595 88.4714H217.255C216.885 88.4709 216.53 88.3234 216.268 88.0611C216.006 87.7989 215.859 87.4433 215.858 87.0724V73.6676C215.859 73.2967 216.006 72.9411 216.268 72.6788C216.53 72.4166 216.885 72.269 217.255 72.2686H228.595C228.965 72.269 229.32 72.4166 229.582 72.6788C229.844 72.9411 229.991 73.2967 229.991 73.6676V87.0724C229.991 87.4433 229.844 87.7989 229.582 88.0612C229.32 88.3234 228.965 88.4709 228.595 88.4714Z" fill="#E6E6E6"/>
<path d="M190.113 83.4973H178.773C178.403 83.4969 178.048 83.3493 177.786 83.0871C177.524 82.8248 177.377 82.4692 177.376 82.0983V68.6935C177.377 68.3226 177.524 67.967 177.786 67.7048C178.048 67.4425 178.403 67.295 178.773 67.2946H190.113C190.483 67.295 190.838 67.4425 191.1 67.7048C191.361 67.967 191.509 68.3226 191.509 68.6935V82.0984C191.509 82.4692 191.361 82.8248 191.1 83.0871C190.838 83.3493 190.483 83.4969 190.113 83.4973Z" fill="#FCEDE7"/>
<path d="M168.078 88.4714H156.739C156.368 88.4709 156.013 88.3234 155.752 88.0611C155.49 87.7989 155.342 87.4433 155.342 87.0724V73.6676C155.342 73.2967 155.49 72.9411 155.752 72.6788C156.013 72.4166 156.368 72.269 156.739 72.2686H168.078C168.449 72.269 168.804 72.4166 169.065 72.6788C169.327 72.9411 169.475 73.2967 169.475 73.6676V87.0724C169.475 87.4433 169.327 87.7989 169.065 88.0612C168.804 88.3234 168.449 88.4709 168.078 88.4714V88.4714Z" fill="#E6E6E6"/>
<path d="M120.596 109.611H109.256C108.886 109.61 108.531 109.463 108.269 109.201C108.007 108.938 107.86 108.583 107.86 108.212V94.8071C107.86 94.4362 108.007 94.0806 108.269 93.8183C108.531 93.5561 108.886 93.4086 109.256 93.4081H120.596C120.966 93.4086 121.321 93.5561 121.583 93.8183C121.845 94.0806 121.992 94.4362 121.993 94.8071V108.212C121.992 108.583 121.845 108.938 121.583 109.201C121.321 109.463 120.966 109.61 120.596 109.611Z" fill="#E6E6E6"/>
<path d="M63.183 91.891H51.8431C51.4728 91.8905 51.1178 91.743 50.856 91.4808C50.5942 91.2185 50.4469 90.8629 50.4465 90.492V77.0872C50.4469 76.7163 50.5942 76.3607 50.856 76.0984C51.1178 75.8362 51.4728 75.6886 51.8431 75.6882H63.183C63.5532 75.6886 63.9082 75.8362 64.17 76.0984C64.4318 76.3607 64.5791 76.7163 64.5795 77.0872V90.492C64.5791 90.8629 64.4318 91.2185 64.17 91.4808C63.9082 91.743 63.5532 91.8905 63.183 91.891V91.891Z" fill="#FCEDE7"/>
<path d="M95.148 67.3317H83.8082C83.4379 67.3313 83.0829 67.1838 82.8211 66.9215C82.5593 66.6593 82.412 66.3037 82.4116 65.9328V52.528C82.412 52.1571 82.5593 51.8015 82.8211 51.5392C83.0829 51.277 83.4379 51.1294 83.8082 51.129H95.148C95.5183 51.1294 95.8733 51.277 96.1351 51.5392C96.3969 51.8015 96.5442 52.1571 96.5446 52.528V65.9328C96.5442 66.3037 96.3969 66.6593 96.1351 66.9215C95.8733 67.1838 95.5183 67.3313 95.148 67.3317V67.3317Z" fill="#E6E6E6"/>
<path d="M85.8639 30.155H68.1745C67.8452 30.155 67.5295 30.024 67.2967 29.7908C67.0639 29.5576 66.9331 29.2413 66.9331 28.9115C66.9331 28.5817 67.0639 28.2654 67.2967 28.0322C67.5295 27.799 67.8452 27.668 68.1745 27.668H85.8639C86.1931 27.668 86.5089 27.799 86.7417 28.0322C86.9745 28.2654 87.1053 28.5817 87.1053 28.9115C87.1053 29.2413 86.9745 29.5576 86.7417 29.7908C86.5089 30.024 86.1931 30.155 85.8639 30.155Z" fill="#C4C4C4"/>
<path d="M135.829 30.155H118.14C117.81 30.155 117.495 30.024 117.262 29.7908C117.029 29.5576 116.898 29.2413 116.898 28.9115C116.898 28.5817 117.029 28.2654 117.262 28.0322C117.495 27.799 117.81 27.668 118.14 27.668H135.829C136.158 27.668 136.474 27.799 136.707 28.0322C136.94 28.2654 137.07 28.5817 137.07 28.9115C137.07 29.2413 136.94 29.5576 136.707 29.7908C136.474 30.024 136.158 30.155 135.829 30.155Z" fill="#C4C4C4"/>
<path d="M182.691 30.155H165.001C164.672 30.155 164.356 30.024 164.123 29.7908C163.891 29.5576 163.76 29.2413 163.76 28.9115C163.76 28.5817 163.891 28.2654 164.123 28.0322C164.356 27.799 164.672 27.668 165.001 27.668H182.691C183.02 27.668 183.336 27.799 183.568 28.0322C183.801 28.2654 183.932 28.5817 183.932 28.9115C183.932 29.2413 183.801 29.5576 183.568 29.7908C183.336 30.024 183.02 30.155 182.691 30.155Z" fill="#C4C4C4"/>
<path d="M226.449 30.155H208.759C208.43 30.155 208.114 30.024 207.881 29.7908C207.649 29.5576 207.518 29.2413 207.518 28.9115C207.518 28.5817 207.649 28.2654 207.881 28.0322C208.114 27.799 208.43 27.668 208.759 27.668H226.449C226.778 27.668 227.094 27.799 227.326 28.0322C227.559 28.2654 227.69 28.5817 227.69 28.9115C227.69 29.2413 227.559 29.5576 227.326 29.7908C227.094 30.024 226.778 30.155 226.449 30.155Z" fill="#C4C4C4"/>
<path d="M46.2438 121.208C45.7897 121.163 45.3509 121.019 44.9583 120.787C44.5657 120.554 44.2289 120.238 43.9714 119.86C43.714 119.483 43.5423 119.054 43.4684 118.603C43.3946 118.152 43.4203 117.69 43.5438 117.25L35.5889 109.832L39.7948 108.763L47.6172 115.119C48.3413 115.376 48.9461 115.89 49.3171 116.564C49.6882 117.237 49.7996 118.024 49.6303 118.774C49.461 119.525 49.0228 120.187 48.3986 120.636C47.7744 121.084 47.0077 121.288 46.2438 121.208V121.208Z" fill="#F9E1B3"/>
<path d="M57.2282 176.034H61.0329L62.8429 161.334H57.2275L57.2282 176.034Z" fill="#F9E1B3"/>
<path d="M68.3706 179.573L56.4129 179.573L56.4127 174.945L63.7504 174.945C64.9757 174.945 66.1508 175.433 67.0173 176.3C67.8837 177.168 68.3705 178.345 68.3706 179.573V179.573L68.3706 179.573Z" fill="#463926"/>
<path d="M31.1411 173.282L34.818 174.263L40.3424 160.523L34.9161 159.077L31.1411 173.282Z" fill="#F9E1B3"/>
<path d="M41 179.574L29.4447 176.493L30.6331 172.021L37.7238 173.911C38.9079 174.227 39.9183 175.001 40.5327 176.063C41.1471 177.125 41.3152 178.388 41 179.574V179.574V179.574Z" fill="#463926"/>
<path d="M62.0562 173.251H56.2506C55.8839 173.252 55.53 173.116 55.2585 172.869C54.9871 172.622 54.8178 172.282 54.7839 171.916L51.2595 135.254C51.2337 134.985 51.1154 134.734 50.9248 134.543C50.7342 134.351 50.4833 134.233 50.2148 134.206C49.9464 134.18 49.6772 134.248 49.4533 134.399C49.2295 134.549 49.0648 134.773 48.9875 135.032L38.7545 169.29C38.6463 169.654 38.4019 169.963 38.0723 170.151C37.7427 170.339 37.3534 170.392 36.9856 170.299L31.5847 168.947C31.3962 168.899 31.2188 168.815 31.0629 168.699C30.907 168.583 30.7755 168.437 30.6761 168.27C30.5766 168.103 30.5112 167.918 30.4835 167.725C30.4559 167.532 30.4665 167.336 30.5148 167.148C30.603 166.802 39.3318 132.632 39.4081 132.28C41.3858 117.679 43.7519 113.767 45.0231 111.665C45.1283 111.491 45.225 111.331 45.312 111.18C45.421 110.991 46.0918 109.114 46.5173 107.895C46.5725 107.697 46.6682 107.513 46.7983 107.353C46.9283 107.194 47.09 107.063 47.273 106.97C52.6141 104.234 58.8634 106.128 60.6515 106.773C60.9479 106.878 61.2025 107.076 61.3771 107.338C66.7413 115.443 64.1088 162.515 63.5266 171.87C63.5024 172.244 63.3369 172.595 63.0639 172.851C62.7908 173.108 62.4306 173.251 62.0562 173.251V173.251Z" fill="#463926"/>
<path d="M47.074 80.3879C51.2836 80.3879 54.6963 76.9694 54.6963 72.7524C54.6963 68.5355 51.2836 65.117 47.074 65.117C42.8643 65.117 39.4517 68.5355 39.4517 72.7524C39.4517 76.9694 42.8643 80.3879 47.074 80.3879Z" fill="#F9E1B3"/>
<path d="M46.2663 109.378L46.2115 109.325C46.1087 109.225 35.9529 99.2586 37.2673 90.0428C37.8294 86.101 41.0132 83.5824 46.4744 82.7588C48.4807 82.4603 50.5272 82.8972 52.2376 83.9893C53.9481 85.0814 55.2075 86.7552 55.7845 88.7031L61.1844 107.195L46.2663 109.378Z" fill="#C4C4C4"/>
<path d="M41.0684 116.467L33.8317 109.263C33.3369 108.768 32.9777 108.153 32.7885 107.479C32.5994 106.804 32.5868 106.092 32.7518 105.411L36.2551 91.1361C36.3601 90.7083 36.5515 90.3067 36.8177 89.956C37.0838 89.6054 37.419 89.3132 37.8024 89.0975C38.1858 88.8819 38.6093 88.7473 39.0468 88.7023C39.4842 88.6572 39.9262 88.7025 40.3454 88.8355C41.1445 89.0935 41.8119 89.6529 42.2063 90.3953C42.6007 91.1377 42.6912 92.0047 42.4585 92.8128L38.7703 105.371L44.7345 111.787L41.0684 116.467Z" fill="#C4C4C4"/>
<path d="M79.883 91.8832C79.6917 92.298 79.4119 92.6658 79.0633 92.9607C78.7147 93.2555 78.3058 93.4702 77.8654 93.5896C77.425 93.709 76.9639 93.7302 76.5144 93.6518C76.065 93.5733 75.6381 93.3971 75.264 93.1356L65.6033 98.1514L66.0303 93.8906L74.5947 88.5812C75.075 87.9807 75.7585 87.5776 76.5157 87.4483C77.2729 87.3189 78.0511 87.4722 78.703 87.8792C79.3548 88.2862 79.835 88.9186 80.0525 89.6566C80.27 90.3945 80.2097 91.1868 79.8831 91.8832H79.883Z" fill="#F9E1B3"/>
<path d="M74.2092 95.0548L64.7915 99.1315C64.1646 99.4007 63.4792 99.5038 62.8011 99.4309C62.1229 99.3581 61.4749 99.1116 60.9193 98.7154L48.9436 90.12C48.5862 89.8634 48.2851 89.5361 48.0591 89.1583C47.833 88.7805 47.6867 88.3603 47.6293 87.9236C47.5719 87.4869 47.6046 87.043 47.7253 86.6195C47.846 86.1959 48.0522 85.8017 48.3311 85.4612C48.8671 84.8139 49.6337 84.4009 50.4683 84.31C51.303 84.219 52.1403 84.4571 52.8027 84.9738L63.0714 93.0696L71.2335 89.9064L74.2092 95.0548Z" fill="#C4C4C4"/>
<path d="M48.3374 75.1991C49.2778 74.0189 51.0345 73.9554 52.3262 73.1769C54.0181 72.1571 54.7176 69.8783 54.1724 67.9772C53.6272 66.0761 52.0192 64.5946 50.1757 63.886C48.3321 63.1774 46.2811 63.1686 44.3363 63.5112C41.4408 64.0212 38.59 65.3749 36.824 67.7294C35.0581 70.0839 34.6086 73.5322 36.2091 76.0026C36.9447 77.138 38.0802 78.0752 38.3739 79.3965C38.7594 81.131 37.5448 82.8039 36.2436 84.0117C34.7612 85.3877 33.0605 86.5402 31.7617 88.0913C30.463 89.6425 29.5969 91.7616 30.1895 93.6971C30.6861 95.3187 32.131 96.5135 33.7154 97.1118C35.2999 97.7101 37.0256 97.7965 38.7185 97.8297C40.3625 97.8619 42.1086 97.8219 43.4934 96.9339C44.976 95.9834 45.7676 94.1801 45.826 92.4178C45.8845 90.6556 45.2966 88.929 44.5088 87.3523C44.0391 86.4124 43.4931 85.5018 43.1811 84.4983C42.869 83.4949 42.815 82.3564 43.3147 81.4323C43.84 80.4609 44.9027 79.8751 45.9849 79.6621C46.0411 79.651 46.1006 79.6411 46.1628 79.6323C46.4707 79.5923 46.7673 79.4902 47.0347 79.3321C47.3021 79.1739 47.5346 78.9632 47.7184 78.7124C47.9021 78.4617 48.0331 78.1763 48.1036 77.8734C48.1741 77.5705 48.1825 77.2564 48.1283 76.9502C48.005 76.2618 48.0157 75.6029 48.3374 75.1991Z" fill="#635D54"/>
<path d="M149.966 176.36H146.161L144.351 161.659L149.966 161.659L149.966 176.36Z" fill="#B78E40"/>
<path d="M143.443 175.271H150.781V179.899H138.823C138.823 179.291 138.943 178.689 139.175 178.128C139.407 177.566 139.748 177.056 140.177 176.626C140.606 176.196 141.115 175.856 141.675 175.623C142.236 175.39 142.837 175.271 143.443 175.271Z" fill="#463926"/>
<path d="M177.572 172.043L174.112 173.626L166.367 161.008L171.475 158.671L177.572 172.043Z" fill="#B78E40"/>
<path d="M171.188 173.767L177.862 170.713L179.782 174.922L168.905 179.899C168.653 179.346 168.512 178.749 168.49 178.142C168.469 177.534 168.567 176.929 168.779 176.359C168.991 175.79 169.313 175.268 169.726 174.823C170.139 174.378 170.636 174.019 171.188 173.767V173.767Z" fill="#463926"/>
<path d="M166.492 126.793C166.857 126.518 167.157 126.166 167.371 125.763C167.585 125.359 167.708 124.914 167.732 124.457C167.756 124.001 167.679 123.545 167.508 123.121C167.337 122.698 167.075 122.317 166.741 122.006L171.213 111.84L165.531 112.805L162.155 122.31C161.671 122.907 161.421 123.661 161.455 124.43C161.488 125.199 161.802 125.929 162.336 126.481C162.871 127.034 163.589 127.371 164.355 127.428C165.121 127.485 165.881 127.259 166.492 126.793Z" fill="#B78E40"/>
<path d="M149.723 172.484H146.089C145.736 172.482 145.397 172.348 145.139 172.108C144.881 171.867 144.723 171.538 144.696 171.186L142.714 118.164C142.699 117.96 142.729 117.756 142.801 117.566C142.873 117.375 142.986 117.203 143.131 117.061C143.277 116.919 143.452 116.81 143.644 116.742C143.835 116.675 144.04 116.65 144.242 116.67L165.263 118.906C165.604 118.94 165.92 119.097 166.153 119.349C166.385 119.601 166.517 119.929 166.524 120.272L166.964 143.661C166.967 143.788 166.991 143.913 167.037 144.032L175.66 166.431C175.726 166.604 175.758 166.789 175.753 166.974C175.747 167.16 175.705 167.342 175.629 167.511C175.553 167.68 175.444 167.832 175.308 167.959C175.173 168.085 175.013 168.183 174.839 168.247L171.156 169.606C170.836 169.724 170.484 169.721 170.167 169.597C169.849 169.473 169.588 169.237 169.432 168.934L158.839 148.301C158.781 148.189 158.739 148.07 158.713 147.946L156.904 139.212C156.851 138.959 156.711 138.733 156.507 138.574C156.303 138.416 156.049 138.335 155.791 138.347C155.533 138.358 155.288 138.462 155.099 138.638C154.91 138.814 154.791 139.053 154.761 139.309L151.111 171.244C151.072 171.585 150.909 171.9 150.653 172.129C150.397 172.357 150.066 172.484 149.723 172.484V172.484Z" fill="#C4C4C4"/>
<path d="M151.533 76.7051C155.743 76.7051 159.156 73.2866 159.156 69.0697C159.156 64.8528 155.743 61.4343 151.533 61.4343C147.324 61.4343 143.911 64.8528 143.911 69.0697C143.911 73.2866 147.324 76.7051 151.533 76.7051Z" fill="#B78E40"/>
<path d="M156.76 123.012C151.591 122.955 146.546 121.424 142.214 118.598L142.14 118.547L142.147 118.457L145.063 84.4418C145.163 83.2878 145.678 82.2092 146.511 81.4056C147.343 80.602 148.439 80.1277 149.594 80.0704C153.372 79.8964 158.448 80.1158 161.165 82.1428C165.271 85.2063 167.25 89.8195 166.595 94.7993C165.235 105.126 166.775 119.057 166.955 120.611L166.968 120.723L166.866 120.77C163.7 122.245 160.252 123.01 156.76 123.012V123.012Z" fill="#E05D2A"/>
<path d="M166.92 120.669C166.705 120.668 166.493 120.623 166.296 120.537C166.1 120.45 165.923 120.323 165.778 120.164L164.111 118.342C163.93 118.144 163.804 117.903 163.744 117.642C163.684 117.381 163.691 117.109 163.766 116.852L167.568 103.962L161.783 91.7929C161.513 91.2232 161.447 90.5778 161.596 89.9651C161.727 89.4272 162.018 88.9419 162.431 88.573C162.843 88.2042 163.357 87.9692 163.905 87.899C164.454 87.8289 165.01 87.9268 165.502 88.18C165.993 88.4332 166.397 88.8297 166.659 89.3172L174.509 102.076C174.828 102.594 175.015 103.182 175.054 103.789C175.093 104.396 174.982 105.003 174.732 105.557L168.336 119.754C168.231 119.988 168.069 120.193 167.865 120.349C167.661 120.506 167.421 120.609 167.167 120.649C167.086 120.662 167.003 120.669 166.92 120.669V120.669Z" fill="#E05D2A"/>
<path d="M113.193 96.0459C113.559 96.3186 113.981 96.5076 114.428 96.5996C114.874 96.6916 115.336 96.6844 115.78 96.5783C116.224 96.4723 116.639 96.2701 116.996 95.9859C117.353 95.7017 117.644 95.3426 117.848 94.9337L128.846 96.3625L126.318 91.1744L116.262 90.613C115.554 90.3157 114.761 90.289 114.034 90.538C113.307 90.787 112.697 91.2944 112.319 91.9641C111.94 92.6337 111.821 93.4191 111.982 94.1714C112.143 94.9237 112.574 95.5906 113.193 96.0459V96.0459Z" fill="#B78E40"/>
<path d="M137.435 98.8792C137.243 98.8792 137.052 98.866 136.862 98.8396L119.56 96.4358C119.277 96.3969 119.009 96.2881 118.779 96.1193C118.548 95.9504 118.363 95.7268 118.241 95.4686C118.201 95.3854 118.168 95.2992 118.142 95.2108H118.142C118.075 94.9813 118.057 94.7404 118.087 94.5032C118.118 94.2661 118.198 94.0379 118.321 93.8331L119.752 91.4553C119.907 91.2011 120.123 90.9909 120.382 90.8447C120.64 90.6985 120.932 90.6212 121.228 90.6203H121.231L136.312 90.6376L147.576 80.5288C148.1 80.0596 148.769 79.7852 149.471 79.7518C150.087 79.7231 150.698 79.8824 151.222 80.2084C151.746 80.5345 152.16 81.0121 152.407 81.5782C152.655 82.1443 152.726 82.7724 152.61 83.3796C152.494 83.9867 152.198 84.5445 151.759 84.9793L140.52 97.5008C140.131 97.9346 139.655 98.2815 139.124 98.519C138.592 98.7565 138.017 98.8792 137.435 98.8792V98.8792Z" fill="#E05D2A"/>
<path d="M152.4 75.8623C153.096 74.2475 153.686 72.0968 152.35 70.9551C151.575 70.2929 150.459 70.2915 149.443 70.2091C146.583 69.977 143.638 68.6585 142.24 66.148C140.842 63.6374 141.623 59.9042 144.26 58.7715C146.038 58.008 148.077 58.5281 149.938 59.0568L155.526 60.6441C157.186 61.1157 158.929 61.6359 160.125 62.8829C162.031 64.8716 161.889 68.2335 160.375 70.536C158.86 72.8384 156.58 75.2398 153.97 76.114L152.4 75.8623Z" fill="#463926"/>
<path d="M229.493 180H0.369614C0.320998 180 0.272833 179.991 0.227877 179.972C0.182921 179.954 0.142062 179.926 0.107635 179.892C0.0732087 179.858 0.0458932 179.817 0.0272561 179.772C0.00861893 179.727 -0.000976562 179.678 -0.000976562 179.63C-0.000976562 179.581 0.00861893 179.533 0.0272561 179.488C0.0458932 179.443 0.0732087 179.402 0.107635 179.368C0.142062 179.333 0.182921 179.306 0.227877 179.288C0.272833 179.269 0.320998 179.26 0.369614 179.26H229.493C229.541 179.26 229.589 179.269 229.634 179.288C229.679 179.306 229.72 179.333 229.755 179.368C229.789 179.402 229.816 179.443 229.835 179.488C229.854 179.533 229.863 179.581 229.863 179.63C229.863 179.678 229.854 179.727 229.835 179.772C229.816 179.817 229.789 179.858 229.755 179.892C229.72 179.926 229.679 179.954 229.634 179.972C229.589 179.991 229.541 180 229.493 180V180Z" fill="#C4C4C4"/>
</g>
<defs>
<clipPath id="clip0">
<rect width="255" height="180" fill="white"/>
</clipPath>
</defs>
</svg>
