<svg width="301" height="195" viewBox="0 0 301 195" fill="none" xmlns="http://www.w3.org/2000/svg">
<g clip-path="url(#clip0)">
<path d="M227.352 155.286C226.528 149.729 226.31 144.099 226.703 138.495L227.352 129.219C223.775 136.346 224.583 145.726 227.352 155.286V155.286Z" fill="#CACACA"/>
<path d="M230.142 156.838C229.745 153.522 229.641 150.177 229.829 146.843L230.142 141.322C228.42 145.564 228.809 151.147 230.142 156.838Z" fill="#CACACA"/>
<path d="M242.542 163.666V166.769C242.541 167.016 242.443 167.252 242.268 167.426C242.094 167.6 241.859 167.699 241.612 167.7H240.062C240.022 167.7 239.981 167.708 239.944 167.723C239.906 167.739 239.872 167.762 239.843 167.791C239.814 167.819 239.791 167.854 239.776 167.891C239.76 167.929 239.752 167.97 239.752 168.01V193.457C239.751 193.703 239.653 193.939 239.479 194.114C239.305 194.288 239.069 194.386 238.823 194.388H219.914C219.668 194.387 219.431 194.289 219.257 194.115C219.082 193.94 218.984 193.704 218.984 193.457V168.01C218.984 167.928 218.951 167.849 218.893 167.791C218.835 167.733 218.756 167.7 218.674 167.7H216.814C216.568 167.7 216.331 167.602 216.157 167.427C215.983 167.253 215.885 167.016 215.885 166.769V163.666C215.884 163.544 215.908 163.422 215.955 163.309C216.002 163.196 216.07 163.094 216.157 163.007C216.243 162.921 216.345 162.852 216.458 162.805C216.571 162.759 216.692 162.735 216.814 162.735H241.612C241.859 162.736 242.095 162.834 242.269 163.008C242.443 163.183 242.541 163.419 242.542 163.666V163.666Z" fill="#F2F2F2"/>
<path d="M239.78 168.352H219.012V169.283H239.78V168.352Z" fill="#E6E6E6"/>
<path d="M239.752 182.051C232.803 184.93 225.778 184.962 218.674 182.051V175.492C225.513 173.193 232.914 173.193 239.752 175.492V182.051Z" fill="#E6E6E6"/>
<path d="M139.947 77.6985C146.178 77.6985 151.229 72.6419 151.229 66.4042C151.229 60.1665 146.178 55.1098 139.947 55.1098C133.716 55.1098 128.665 60.1665 128.665 66.4042C128.665 72.6419 133.716 77.6985 139.947 77.6985Z" fill="#635D54"/>
<path d="M143.09 55.4207C145.043 55.4209 146.962 55.9284 148.659 56.8934C150.357 57.8585 151.776 59.2481 152.777 60.9264C153.778 62.6048 154.326 64.5143 154.369 66.4685C154.412 68.4227 153.948 70.3545 153.021 72.0752C154 70.8501 154.712 69.4344 155.113 67.9184C155.515 66.4024 155.596 64.8193 155.353 63.27C155.109 61.7207 154.546 60.2392 153.699 58.9199C152.852 57.6006 151.739 56.4724 150.433 55.6072C149.126 54.7421 147.654 54.1589 146.109 53.8949C144.565 53.6309 142.983 53.6918 141.463 54.0739C139.944 54.4559 138.521 55.1506 137.284 56.1137C136.048 57.0768 135.026 58.2873 134.282 59.6678C135.337 58.3424 136.676 57.2721 138.201 56.5367C139.726 55.8014 141.397 55.4199 143.09 55.4207V55.4207Z" fill="#635D54"/>
<path d="M118.866 66.3803C137.168 66.3803 152.006 51.5263 152.006 33.2031C152.006 14.8798 137.168 0.0258789 118.866 0.0258789C100.563 0.0258789 85.7256 14.8798 85.7256 33.2031C85.7256 51.5263 100.563 66.3803 118.866 66.3803Z" fill="#635D54"/>
<path d="M92.856 12.6182C98.5664 6.18898 106.548 2.23232 115.117 1.58328C123.687 0.934233 132.172 3.64359 138.784 9.13952C138.513 8.88162 138.245 8.62163 137.963 8.37103C131.394 2.52932 122.776 -0.461336 114.004 0.0566426C105.233 0.574622 97.0255 4.55882 91.1875 11.1332C85.3495 17.7076 82.3585 26.334 82.8721 35.1156C83.3858 43.8973 87.362 52.1152 93.9265 57.9626C94.2081 58.2132 94.4974 58.4493 94.785 58.6885C88.5586 52.7589 84.8769 44.6394 84.517 36.0438C84.1571 27.4481 87.1471 19.0486 92.856 12.6182Z" fill="#635D54"/>
<path d="M118.585 66.0991C130.373 66.0991 139.929 56.5321 139.929 44.7307C139.929 32.9293 130.373 23.3624 118.585 23.3624C106.797 23.3624 97.2404 32.9293 97.2404 44.7307C97.2404 56.5321 106.797 66.0991 118.585 66.0991Z" fill="#F9E1B3"/>
<path d="M129.488 71.9L106.647 72.928C106.647 72.928 108.553 84.7537 96.196 85.8784C83.8387 87.003 72.6048 83.6291 68.1113 92.064C63.6177 100.499 65.5545 130.533 65.5545 130.533C65.5545 130.533 73.9799 160.899 80.7203 165.397C87.4606 169.896 146.439 163.71 146.439 163.71L171.121 132.51L170.285 108.447C169.849 95.8822 158.389 86.4483 146.047 88.7736C145.805 88.8193 145.561 88.8685 145.315 88.9212C145.315 88.9212 142.604 86.8924 135.164 83.1686C130.615 80.8913 129.488 71.9 129.488 71.9Z" fill="#C4C4C4"/>
<path d="M79.9069 85.3161C79.9069 85.3161 85.3357 95.1774 83.0889 109.236C80.8421 123.294 90.2691 153.026 90.2691 153.026L97.0095 151.339C97.0095 151.339 92.5159 122.098 93.6393 115.35C94.7627 108.603 95.0727 88.69 89.4557 85.3161C83.8388 81.9421 79.9069 85.3161 79.9069 85.3161Z" fill="#635D54"/>
<path d="M144.92 90.4866L147.281 152.745L151.775 155.557C151.775 155.557 158.234 87.2341 154.864 87.2341H148.007C147.601 87.2341 147.199 87.3142 146.824 87.4696C146.449 87.6251 146.108 87.853 145.821 88.1403C145.534 88.4277 145.307 88.7687 145.151 89.1441C144.996 89.5195 144.916 89.9219 144.916 90.3282C144.916 90.381 144.917 90.4338 144.92 90.4866Z" fill="#635D54"/>
<path d="M93.3584 151.62C94.9095 151.62 96.1669 150.362 96.1669 148.809C96.1669 147.256 94.9095 145.997 93.3584 145.997C91.8073 145.997 90.5499 147.256 90.5499 148.809C90.5499 150.362 91.8073 151.62 93.3584 151.62Z" fill="#E05D2A"/>
<path d="M149.528 154.432C151.079 154.432 152.336 153.173 152.336 151.62C152.336 150.068 151.079 148.809 149.528 148.809C147.977 148.809 146.719 150.068 146.719 151.62C146.719 153.173 147.977 154.432 149.528 154.432Z" fill="#E05D2A"/>
<path d="M100.33 18.02V39.3884H105.273L111.564 32.6405L110.721 39.3884H132.571L131.223 32.6405L133.919 39.3884H137.401V18.02H100.33Z" fill="#635D54"/>
<path d="M96.9594 43.3249C97.89 43.3249 98.6445 41.9402 98.6445 40.2321C98.6445 38.524 97.89 37.1393 96.9594 37.1393C96.0287 37.1393 95.2743 38.524 95.2743 40.2321C95.2743 41.9402 96.0287 43.3249 96.9594 43.3249Z" fill="#F9E1B3"/>
<path d="M140.21 43.3249C141.141 43.3249 141.895 41.9402 141.895 40.2321C141.895 38.524 141.141 37.1393 140.21 37.1393C139.279 37.1393 138.525 38.524 138.525 40.2321C138.525 41.9402 139.279 43.3249 140.21 43.3249Z" fill="#F9E1B3"/>
<path d="M186.961 188.814V190.697C186.962 191.214 186.866 191.727 186.679 192.209C186.596 192.423 186.495 192.631 186.378 192.829C186.009 193.45 185.484 193.964 184.857 194.321C184.229 194.678 183.52 194.865 182.798 194.865H44.3794C43.6576 194.865 42.9481 194.678 42.3205 194.321C41.6928 193.964 41.1686 193.45 40.7992 192.829C40.6823 192.631 40.5818 192.423 40.4985 192.209C40.3111 191.727 40.2154 191.214 40.2164 190.697V188.814C40.2163 188.266 40.3238 187.725 40.5328 187.219C40.7418 186.714 41.0483 186.254 41.4346 185.867C41.821 185.48 42.2797 185.173 42.7846 184.964C43.2895 184.754 43.8306 184.646 44.3772 184.646H52.3581V183.768C52.358 183.745 52.3625 183.722 52.3712 183.701C52.3798 183.68 52.3926 183.661 52.4086 183.645C52.4247 183.629 52.4438 183.616 52.4648 183.607C52.4858 183.599 52.5083 183.594 52.5311 183.594H56.6946C56.7406 183.594 56.7847 183.612 56.8172 183.645C56.8498 183.677 56.8681 183.721 56.8682 183.767V184.646H59.4689V183.768C59.4688 183.745 59.4733 183.722 59.4819 183.701C59.4906 183.68 59.5034 183.661 59.5194 183.645C59.5355 183.629 59.5546 183.616 59.5756 183.607C59.5966 183.599 59.6191 183.594 59.6419 183.594H63.8054C63.8513 183.594 63.8955 183.612 63.928 183.645C63.9606 183.677 63.9789 183.721 63.979 183.767V184.646H66.5828V183.768C66.5827 183.745 66.5872 183.722 66.5958 183.701C66.6045 183.68 66.6172 183.661 66.6333 183.645C66.6494 183.629 66.6685 183.616 66.6895 183.607C66.7105 183.599 66.733 183.594 66.7558 183.594H70.9193C70.9652 183.594 71.0093 183.612 71.0419 183.645C71.0745 183.677 71.0928 183.721 71.0929 183.767V184.646H73.6935V183.768C73.6935 183.745 73.6979 183.722 73.7066 183.701C73.7153 183.68 73.728 183.661 73.7441 183.645C73.7602 183.629 73.7792 183.616 73.8002 183.607C73.8213 183.599 73.8438 183.594 73.8665 183.594H78.03C78.076 183.594 78.1201 183.612 78.1527 183.645C78.1852 183.677 78.2036 183.721 78.2036 183.767V184.646H80.8043V183.768C80.8043 183.745 80.8087 183.723 80.8174 183.701C80.8261 183.68 80.8388 183.661 80.8549 183.645C80.8709 183.629 80.89 183.616 80.911 183.607C80.932 183.599 80.9546 183.594 80.9773 183.594H85.1408C85.1868 183.594 85.2309 183.612 85.2635 183.645C85.296 183.677 85.3143 183.721 85.3144 183.767V184.646H87.9182V183.768C87.9182 183.745 87.9226 183.723 87.9313 183.701C87.9399 183.68 87.9527 183.661 87.9687 183.645C87.9848 183.629 88.0039 183.616 88.0249 183.607C88.0459 183.599 88.0684 183.594 88.0912 183.594H92.2547C92.3007 183.594 92.3448 183.612 92.3773 183.645C92.4099 183.677 92.4282 183.721 92.4283 183.767V184.646H95.029V183.768C95.0289 183.745 95.0334 183.723 95.0421 183.701C95.0507 183.68 95.0635 183.661 95.0795 183.645C95.0956 183.629 95.1147 183.616 95.1357 183.607C95.1567 183.599 95.1792 183.594 95.202 183.594H127.812C127.835 183.594 127.857 183.598 127.878 183.607C127.899 183.616 127.918 183.629 127.934 183.645C127.95 183.661 127.963 183.68 127.972 183.701C127.981 183.722 127.985 183.745 127.985 183.767V184.646H130.589V183.768C130.589 183.745 130.594 183.723 130.602 183.701C130.611 183.68 130.624 183.661 130.64 183.645C130.656 183.629 130.675 183.616 130.696 183.607C130.717 183.599 130.739 183.594 130.762 183.594H134.926C134.972 183.595 135.015 183.613 135.048 183.645C135.08 183.678 135.099 183.722 135.099 183.768V184.646H137.7V183.768C137.7 183.745 137.704 183.723 137.713 183.701C137.722 183.68 137.734 183.661 137.75 183.645C137.767 183.629 137.786 183.616 137.807 183.607C137.828 183.599 137.85 183.594 137.873 183.594H142.036C142.059 183.594 142.082 183.599 142.103 183.607C142.124 183.616 142.143 183.629 142.159 183.645C142.175 183.661 142.188 183.68 142.197 183.701C142.205 183.722 142.21 183.745 142.21 183.767V184.646H144.811V183.768C144.811 183.745 144.815 183.723 144.824 183.701C144.832 183.68 144.845 183.661 144.861 183.645C144.877 183.629 144.896 183.616 144.917 183.607C144.938 183.599 144.961 183.594 144.984 183.594H149.147C149.17 183.594 149.192 183.599 149.214 183.607C149.235 183.616 149.254 183.629 149.27 183.645C149.286 183.661 149.299 183.68 149.307 183.701C149.316 183.722 149.321 183.745 149.321 183.767V184.646H151.925V183.768C151.925 183.745 151.929 183.723 151.938 183.701C151.946 183.68 151.959 183.661 151.975 183.645C151.991 183.629 152.01 183.616 152.031 183.607C152.052 183.599 152.075 183.594 152.098 183.594H156.261C156.307 183.595 156.35 183.613 156.382 183.646C156.414 183.678 156.432 183.722 156.432 183.768V184.646H159.035V183.768C159.035 183.745 159.04 183.723 159.048 183.701C159.057 183.68 159.07 183.661 159.086 183.645C159.102 183.629 159.121 183.616 159.142 183.607C159.163 183.599 159.186 183.594 159.208 183.594H163.372C163.395 183.594 163.417 183.599 163.438 183.607C163.459 183.616 163.478 183.629 163.494 183.645C163.511 183.661 163.523 183.68 163.532 183.701C163.541 183.722 163.545 183.745 163.545 183.767V184.646H166.146V183.768C166.146 183.745 166.151 183.723 166.159 183.701C166.168 183.68 166.181 183.661 166.197 183.645C166.213 183.629 166.232 183.616 166.253 183.607C166.274 183.599 166.296 183.594 166.319 183.594H170.483C170.505 183.594 170.528 183.599 170.549 183.607C170.57 183.616 170.589 183.629 170.605 183.645C170.621 183.661 170.634 183.68 170.643 183.701C170.652 183.722 170.656 183.745 170.656 183.767V184.646H182.798C183.902 184.646 184.96 185.084 185.741 185.866C186.522 186.647 186.961 187.706 186.961 188.811L186.961 188.814Z" fill="#463926"/>
<path d="M301 194.379H0V195H301V194.379Z" fill="#463926"/>
<path d="M175.815 109.485H49.0225C48.5642 109.485 48.1104 109.575 47.6869 109.751C47.2635 109.927 46.8788 110.184 46.5548 110.508C46.2307 110.833 45.9736 111.218 45.7982 111.642C45.6229 112.066 45.5326 112.52 45.5326 112.979V183.704C45.5326 184.631 45.9003 185.52 46.5547 186.175C47.2092 186.83 48.0969 187.198 49.0224 187.198H175.815C176.741 187.198 177.628 186.83 178.283 186.175C178.937 185.52 179.305 184.631 179.305 183.704V112.979C179.305 112.052 178.937 111.163 178.283 110.508C177.628 109.853 176.741 109.485 175.815 109.485Z" fill="#463926"/>
<path d="M112.52 141.935C116.8 141.935 120.27 138.462 120.27 134.177C120.27 129.892 116.8 126.419 112.52 126.419C108.24 126.419 104.771 129.892 104.771 134.177C104.771 138.462 108.24 141.935 112.52 141.935Z" fill="#FCEDE7"/>
<path d="M160.493 82.9237L199.613 43.4499H218.082V42.8293H199.354L199.263 42.9214L160.052 82.4874L160.493 82.9237Z" fill="#463926"/>
<path d="M285.966 27.2438H240.641V31.2872H285.966V27.2438Z" fill="#E05D2A"/>
<path d="M235.117 33.844H225.521V24.2378H235.117V33.844ZM226.141 33.2233H234.497V24.8584H226.141L226.141 33.2233Z" fill="#463926"/>
<path d="M285.966 40.7219H240.641V44.7654H285.966V40.7219Z" fill="#E05D2A"/>
<path d="M235.117 47.322H225.521V37.716H235.117V47.322ZM226.141 46.7014H234.497V38.3366H226.141L226.141 46.7014Z" fill="#463926"/>
<path d="M285.966 54.2H240.641V58.2435H285.966V54.2Z" fill="#E05D2A"/>
<path d="M235.117 60.8H225.521V51.194H235.117V60.8ZM226.141 60.1794H234.497V51.8147H226.141L226.141 60.1794Z" fill="#463926"/>
</g>
<defs>
<clipPath id="clip0">
<rect width="301" height="195" fill="white"/>
</clipPath>
</defs>
</svg>
