<svg width="500" height="400" viewBox="0 0 500 400" fill="none" xmlns="http://www.w3.org/2000/svg">
<g clip-path="url(#clip0)">
<rect width="500" height="400" rx="15" fill="#FCEDE7"/>
<g filter="url(#filter0_d)">
<rect x="50" y="-46" width="400" height="400" rx="15" fill="#FAFAFA"/>
</g>
<path d="M188.356 297.492V303.82C188.356 305.481 189.131 306.312 190.68 306.312C191.109 306.312 191.576 306.237 192.08 306.088V308.86C191.464 309.084 190.717 309.196 189.84 309.196C188.235 309.196 187.003 308.748 186.144 307.852C185.285 306.956 184.856 305.668 184.856 303.988V297.492H182.14V294.86H184.856V291.416L188.356 290.24V294.86H192.108V297.492H188.356ZM202.129 294.524C202.671 294.524 203.137 294.599 203.529 294.748L203.501 297.94C202.904 297.697 202.288 297.576 201.653 297.576C200.459 297.576 199.544 297.921 198.909 298.612C198.293 299.303 197.985 300.217 197.985 301.356V309H194.513V298.864C194.513 297.371 194.439 296.036 194.289 294.86H197.565L197.845 297.352C198.2 296.437 198.76 295.737 199.525 295.252C200.291 294.767 201.159 294.524 202.129 294.524ZM205.478 294.86H208.95V309H205.478V294.86ZM209.146 288.448V291.892H205.254V288.448H209.146ZM217.959 309.224C215.402 309.224 213.367 308.627 211.855 307.432L212.835 304.968C214.347 306.088 216.074 306.648 218.015 306.648C218.855 306.648 219.499 306.508 219.947 306.228C220.414 305.948 220.647 305.556 220.647 305.052C220.647 304.623 220.488 304.287 220.171 304.044C219.854 303.783 219.312 303.559 218.547 303.372L216.195 302.84C213.619 302.28 212.331 300.964 212.331 298.892C212.331 298.033 212.574 297.277 213.059 296.624C213.544 295.952 214.226 295.429 215.103 295.056C215.98 294.683 216.998 294.496 218.155 294.496C219.163 294.496 220.134 294.655 221.067 294.972C222 295.271 222.822 295.709 223.531 296.288L222.495 298.668C221.076 297.623 219.62 297.1 218.127 297.1C217.324 297.1 216.699 297.249 216.251 297.548C215.803 297.847 215.579 298.257 215.579 298.78C215.579 299.191 215.71 299.517 215.971 299.76C216.251 300.003 216.718 300.208 217.371 300.376L219.779 300.908C221.179 301.225 222.196 301.72 222.831 302.392C223.484 303.045 223.811 303.904 223.811 304.968C223.811 306.275 223.288 307.311 222.243 308.076C221.198 308.841 219.77 309.224 217.959 309.224ZM234.898 294.496C238.277 294.496 239.966 296.437 239.966 300.32V309H236.466V300.488C236.466 299.368 236.252 298.556 235.822 298.052C235.393 297.529 234.73 297.268 233.834 297.268C232.77 297.268 231.912 297.613 231.258 298.304C230.605 298.976 230.278 299.872 230.278 300.992V309H226.806V288.392H230.278V296.904C230.764 296.139 231.408 295.551 232.21 295.14C233.013 294.711 233.909 294.496 234.898 294.496ZM257.201 294.86V309H253.757V306.732C253.328 307.516 252.712 308.132 251.909 308.58C251.107 309.009 250.192 309.224 249.165 309.224C247.933 309.224 246.841 308.925 245.889 308.328C244.937 307.731 244.2 306.881 243.677 305.78C243.155 304.679 242.893 303.4 242.893 301.944C242.893 300.488 243.155 299.2 243.677 298.08C244.219 296.941 244.965 296.064 245.917 295.448C246.869 294.813 247.952 294.496 249.165 294.496C250.192 294.496 251.107 294.72 251.909 295.168C252.712 295.597 253.328 296.204 253.757 296.988V294.86H257.201ZM250.117 306.48C251.275 306.48 252.171 306.079 252.805 305.276C253.44 304.473 253.757 303.344 253.757 301.888C253.757 300.395 253.44 299.247 252.805 298.444C252.171 297.641 251.265 297.24 250.089 297.24C248.932 297.24 248.027 297.66 247.373 298.5C246.739 299.321 246.421 300.469 246.421 301.944C246.421 303.4 246.739 304.52 247.373 305.304C248.027 306.088 248.941 306.48 250.117 306.48ZM269.077 294.496C270.291 294.496 271.364 294.813 272.297 295.448C273.249 296.064 273.987 296.941 274.509 298.08C275.051 299.2 275.321 300.488 275.321 301.944C275.321 303.4 275.06 304.679 274.537 305.78C274.015 306.881 273.277 307.731 272.325 308.328C271.392 308.925 270.309 309.224 269.077 309.224C268.051 309.224 267.136 309.009 266.333 308.58C265.531 308.132 264.915 307.516 264.485 306.732V315.048H261.013V298.864C261.013 297.371 260.939 296.036 260.789 294.86H264.065L264.345 297.296C264.719 296.419 265.325 295.737 266.165 295.252C267.005 294.748 267.976 294.496 269.077 294.496ZM268.125 306.48C269.301 306.48 270.207 306.088 270.841 305.304C271.476 304.52 271.793 303.4 271.793 301.944C271.793 300.469 271.476 299.321 270.841 298.5C270.207 297.66 269.311 297.24 268.153 297.24C266.959 297.24 266.044 297.641 265.409 298.444C264.775 299.247 264.457 300.395 264.457 301.888C264.457 303.363 264.775 304.501 265.409 305.304C266.044 306.088 266.949 306.48 268.125 306.48ZM285.993 294.524C286.534 294.524 287.001 294.599 287.393 294.748L287.365 297.94C286.767 297.697 286.151 297.576 285.517 297.576C284.322 297.576 283.407 297.921 282.773 298.612C282.157 299.303 281.849 300.217 281.849 301.356V309H278.377V298.864C278.377 297.371 278.302 296.036 278.153 294.86H281.429L281.709 297.352C282.063 296.437 282.623 295.737 283.389 295.252C284.154 294.767 285.022 294.524 285.993 294.524ZM289.342 294.86H292.814V309H289.342V294.86ZM293.01 288.448V291.892H289.118V288.448H293.01ZM296.642 288.392H300.114V309H296.642V288.392ZM316.319 302.112H306.575C306.65 303.624 307.023 304.744 307.695 305.472C308.386 306.181 309.403 306.536 310.747 306.536C312.296 306.536 313.734 306.032 315.059 305.024L316.067 307.432C315.395 307.973 314.564 308.412 313.575 308.748C312.604 309.065 311.615 309.224 310.607 309.224C308.292 309.224 306.472 308.571 305.147 307.264C303.822 305.957 303.159 304.165 303.159 301.888C303.159 300.451 303.448 299.172 304.027 298.052C304.606 296.932 305.418 296.064 306.463 295.448C307.508 294.813 308.694 294.496 310.019 294.496C311.96 294.496 313.491 295.131 314.611 296.4C315.75 297.651 316.319 299.377 316.319 301.58V302.112ZM310.103 297.016C309.17 297.016 308.404 297.296 307.807 297.856C307.228 298.397 306.855 299.191 306.687 300.236H313.267C313.155 299.172 312.828 298.369 312.287 297.828C311.764 297.287 311.036 297.016 310.103 297.016Z" fill="#E05D2A"/>
<path d="M260.82 168.001C290.891 168.001 315.268 143.671 315.268 113.658C315.268 83.6457 290.891 59.3156 260.82 59.3156C230.749 59.3156 206.371 83.6457 206.371 113.658C206.371 143.671 230.749 168.001 260.82 168.001Z" fill="#FCEDE7"/>
<path d="M250.518 83.4026H160.458V83.9901H250.518V83.4026Z" fill="#373737"/>
<path d="M337.342 99.5587H160.458V100.146H337.342V99.5587Z" fill="#373737"/>
<path d="M282.893 157.426C252.708 157.426 228.15 132.916 228.15 102.79C228.15 72.6631 252.708 48.1532 282.893 48.1532C313.078 48.1532 337.636 72.6631 337.636 102.79C337.636 132.916 313.078 157.426 282.893 157.426ZM282.893 48.7407C253.032 48.7407 228.739 72.987 228.739 102.79C228.739 132.593 253.032 156.839 282.893 156.839C312.754 156.839 337.047 132.593 337.047 102.79C337.047 72.987 312.754 48.7407 282.893 48.7407V48.7407Z" fill="#373737"/>
<path d="M277.843 56.3468C281.812 56.3468 285.03 53.1351 285.03 49.1734C285.03 45.2116 281.812 42 277.843 42C273.873 42 270.655 45.2116 270.655 49.1734C270.655 53.1351 273.873 56.3468 277.843 56.3468Z" fill="#E05D2A"/>
<path d="M228.356 103.587C230.924 103.587 233.007 101.508 233.007 98.9449C233.007 96.3815 230.924 94.3033 228.356 94.3033C225.787 94.3033 223.705 96.3815 223.705 98.9449C223.705 101.508 225.787 103.587 228.356 103.587Z" fill="#FAFAFA"/>
<path d="M339.379 109.622C345.245 109.622 350 104.876 350 99.0213C350 93.1668 345.245 88.4208 339.379 88.4208C333.513 88.4208 328.758 93.1668 328.758 99.0213C328.758 104.876 333.513 109.622 339.379 109.622Z" fill="#E05D2A"/>
<path d="M231.11 138.135L237.491 141.795C238.136 142.165 238.855 142.39 239.597 142.455C240.339 142.519 241.086 142.421 241.786 142.168C242.486 141.915 243.122 141.513 243.65 140.989C244.178 140.465 244.586 139.832 244.844 139.135V139.135C245.121 138.385 245.219 137.58 245.128 136.786C245.037 135.991 244.761 135.229 244.321 134.56C243.881 133.891 243.29 133.335 242.596 132.936C241.901 132.537 241.123 132.306 240.323 132.262L232.596 131.838L209.321 124.807L205.569 110.785L195.757 116.286L202.504 132.228L231.11 138.135Z" fill="#F9E1B3"/>
<path d="M200.691 65.3566C199.215 67.0265 199.481 69.0353 200.556 70.6661C201.631 72.2968 203.42 73.6537 204.985 75.0926C205.991 76.017 206.921 76.998 207.372 78.1102C207.62 78.6788 207.701 79.3061 207.606 79.919C207.511 80.5319 207.243 81.1052 206.834 81.5721C205.809 82.7824 203.899 83.6021 202.036 84.3047C196.708 86.2997 191.211 87.8106 185.611 88.819C190.328 83.3171 192.69 77.121 192.344 71.1526C192.271 69.9 192.085 68.6358 192.523 67.3804C192.824 66.6269 193.3 65.9554 193.912 65.4212C194.524 64.8869 195.254 64.5053 196.042 64.3075C197.917 63.7701 200.387 64.3017 200.675 65.528" fill="#635D54"/>
<path d="M160.273 241.914L167.024 242.207L180.349 180.779L168.785 181.275L160.273 241.914Z" fill="#F9E1B3"/>
<path d="M227.781 228.732L222.204 231.661L187.32 180.005L198.43 175.123L227.781 228.732Z" fill="#F9E1B3"/>
<path d="M188.897 84.6926C194.795 84.6926 199.576 79.921 199.576 74.0349C199.576 68.1488 194.795 63.3771 188.897 63.3771C183 63.3771 178.219 68.1488 178.219 74.0349C178.219 79.921 183 84.6926 188.897 84.6926Z" fill="#F9E1B3"/>
<path d="M183.461 79.6228C183.461 79.6228 179.645 87.5323 174.362 87.2394C174.362 87.2394 164.382 83.1382 161.154 94.2701L157.631 103.058L204.3 110.968C204.3 110.968 201.658 94.8559 195.495 94.563C195.495 94.563 188.45 93.9771 189.331 91.3406C190.211 88.7041 193.44 82.5523 193.44 82.5523L183.461 79.6228Z" fill="#F9E1B3"/>
<path d="M199.017 120.049L191.972 135.282L197.778 159.904L226.052 212.864C226.052 212.864 213.031 224.524 209.785 226.394C206.969 228.016 183.528 184.043 182.672 174.98C182.39 171.989 177.25 232.579 177.25 232.579C177.25 232.579 157.872 229.388 152.461 228.327C152.461 228.327 156.36 200.768 158.659 174.98C160.43 155.103 158.819 137.088 168.785 128.545L167.904 111.554L191.385 110.675L199.017 120.049Z" fill="#E05D2A"/>
<path d="M162.546 253.213L173.323 254.775C174.159 255.085 175.08 255.074 175.907 254.744C176.735 254.414 177.41 253.788 177.8 252.989V252.989C178.117 252.339 178.23 251.609 178.124 250.894C178.018 250.18 177.697 249.514 177.204 248.984L172.63 244.067L169.338 236.977C167.368 234.97 166.023 235.68 165.27 238.977L160.007 237.328L158.627 246.586C158.42 247.972 158.697 249.386 159.41 250.592C160.124 251.798 161.231 252.724 162.546 253.213V253.213Z" fill="#463926"/>
<path d="M223.976 243.525L234.866 243.487C235.738 243.672 236.648 243.526 237.418 243.078C238.187 242.63 238.763 241.912 239.031 241.063V241.063C239.249 240.374 239.253 239.636 239.042 238.944C238.832 238.253 238.417 237.641 237.851 237.19L232.602 232.998L228.3 226.469C226.056 224.773 224.83 225.672 224.572 229.045L219.123 228.186V237.546C219.123 238.947 219.605 240.305 220.488 241.394C221.372 242.482 222.603 243.235 223.976 243.525V243.525Z" fill="#463926"/>
<path d="M183.504 57.652C181.69 56.8608 179.532 57.1711 177.78 58.0922C176.029 59.0133 174.63 60.4822 173.405 62.0344C169.189 67.4055 166.73 73.9414 166.363 80.755C166.267 82.6175 166.357 84.586 167.328 86.1791C168.396 87.9298 170.35 88.9347 172.286 89.6189C178.776 91.8758 185.895 91.4849 192.098 88.5311C188.836 85.8919 185.819 82.9661 183.081 79.7888C182.568 79.1934 182.032 78.4289 182.293 77.688C182.457 77.3275 182.712 77.0154 183.032 76.7819L189.319 71.3327L189.161 73.5371C190.411 73.4642 191.613 73.0272 192.617 72.2801C193.621 71.5331 194.384 70.5087 194.811 69.3336C194.508 69.9443 195.087 70.6943 195.756 70.8316C196.424 70.969 197.101 70.6938 197.729 70.4244C199.25 69.7711 200.902 68.9932 201.577 67.4838C201.789 66.9517 201.891 66.382 201.876 65.8095C201.86 65.2369 201.728 64.6735 201.488 64.1534C201 63.1157 200.303 62.1889 199.442 61.4307C197.327 59.4824 194.755 58.0976 191.962 57.4046C189.169 56.7116 186.246 56.7327 183.463 57.4659" fill="#635D54"/>
<path d="M181.371 136.61L186.059 142.271C186.534 142.844 187.128 143.306 187.799 143.626C188.471 143.947 189.205 144.117 189.95 144.125C190.694 144.133 191.432 143.978 192.11 143.673C192.789 143.367 193.393 142.917 193.88 142.355C194.403 141.75 194.777 141.03 194.972 140.254C195.166 139.478 195.175 138.668 194.998 137.887C194.821 137.107 194.463 136.38 193.953 135.763C193.443 135.146 192.795 134.657 192.061 134.336L184.975 131.234L165.651 116.501L167.065 102.056L155.943 103.772L156.658 121.063L181.371 136.61Z" fill="#F9E1B3"/>
<path d="M210.464 123.857C210.464 123.857 205.894 107.152 203.483 107.156C201.071 107.16 197.843 106.867 197.843 106.867C197.843 106.867 194.027 95.7347 174.362 99.25C154.696 102.765 163.208 96.0277 157.631 98.6642C152.055 101.301 150 119.756 150 119.756C150 119.756 180.232 109.796 186.689 115.362C190.398 118.599 194.43 121.446 198.723 123.857C198.723 123.857 195.788 131.181 210.464 123.857Z" fill="#E05D2A"/>
<path d="M315.27 242.609H196.75V243.382H315.27V242.609Z" fill="#3F3D56"/>
<path d="M310.873 219.533C310.271 215.659 309.097 211.896 307.388 208.367L307.139 207.852L305.289 209.9L306.66 206.85L306.57 206.673C305.36 204.284 304.02 201.962 302.554 199.719L302.283 199.304L301.92 199.705L302.174 199.14L302.047 198.95C300.232 196.233 298.837 194.515 298.824 194.497L298.429 194.013L298.176 194.591C298.129 194.696 293.52 205.296 292.91 215.769L292.9 215.932L296.002 219.674L292.839 217.693L292.844 218.412C292.854 219.643 292.938 220.872 293.096 222.093C293.235 223.143 293.399 224.168 293.588 225.169C293.887 225.178 294.177 225.269 294.429 225.431C294.21 224.313 294.022 223.164 293.863 221.984C293.741 221.042 293.664 220.085 293.634 219.131L299.752 222.965L293.693 215.655C294.245 206.8 297.669 197.878 298.63 195.524C299.146 196.191 300.119 197.488 301.283 199.22L299.167 203.929L302.184 200.589C303.492 202.622 304.697 204.719 305.795 206.872L302.536 214.123L306.942 209.246C308.481 212.55 309.547 216.053 310.107 219.653C310.878 225.467 310.728 231.053 309.683 235.381C308.682 239.527 306.919 242.075 304.844 242.373C304.417 242.432 303.983 242.406 303.566 242.297C303.232 242.534 302.829 242.657 302.419 242.646H302.306C302.95 243.003 303.671 243.196 304.407 243.209C304.589 243.209 304.77 243.196 304.95 243.17C307.389 242.821 309.337 240.124 310.434 235.577C311.502 231.151 311.659 225.457 310.873 219.533Z" fill="#3F3D56"/>
<path d="M304.047 242.904C300.857 242.904 296.257 241.152 291.695 237.964C291.023 237.49 290.382 236.976 289.775 236.423L289.264 235.957L291.196 235.402L288.623 235.308L288.515 235.194C283.692 230.154 280.692 223.034 280.662 222.963L280.427 222.4L281.037 222.428C281.098 222.431 282.547 222.499 284.726 222.807L284.862 222.827V222.825L285.339 222.898C287.119 223.168 288.881 223.537 290.618 224.005L290.804 224.055L291.384 225.48L291.296 224.202L291.827 224.355C294.348 225.082 296.742 226.189 298.926 227.64C305.864 232.489 309.704 238.55 307.674 241.442C306.98 242.431 305.703 242.903 304.047 242.904ZM290.823 236.313C291.247 236.672 291.688 237.013 292.14 237.331C298.495 241.772 305.318 243.452 307.039 240.999C308.761 238.546 304.845 232.721 298.489 228.279C296.529 226.977 294.392 225.96 292.145 225.258L292.488 230.251L290.231 224.702C288.744 224.308 287.223 223.984 285.701 223.737L285.95 227.361L284.397 223.542C283.193 223.377 282.223 223.287 281.632 223.242C282.437 225.005 285.096 230.452 288.967 234.547L296.066 234.806L290.823 236.313Z" fill="#3F3D56"/>
</g>
<defs>
<filter id="filter0_d" x="30" y="-66" width="440" height="440" filterUnits="userSpaceOnUse" color-interpolation-filters="sRGB">
<feFlood flood-opacity="0" result="BackgroundImageFix"/>
<feColorMatrix in="SourceAlpha" type="matrix" values="0 0 0 0 0 0 0 0 0 0 0 0 0 0 0 0 0 0 127 0" result="hardAlpha"/>
<feOffset/>
<feGaussianBlur stdDeviation="10"/>
<feComposite in2="hardAlpha" operator="out"/>
<feColorMatrix type="matrix" values="0 0 0 0 0.768627 0 0 0 0 0.768627 0 0 0 0 0.768627 0 0 0 0.1 0"/>
<feBlend mode="normal" in2="BackgroundImageFix" result="effect1_dropShadow"/>
<feBlend mode="normal" in="SourceGraphic" in2="effect1_dropShadow" result="shape"/>
</filter>
<clipPath id="clip0">
<rect width="500" height="400" rx="15" fill="white"/>
</clipPath>
</defs>
</svg>
