<svg width="406" height="80" viewBox="0 0 406 80" fill="none" xmlns="http://www.w3.org/2000/svg">
<path d="M110.528 37.696V52.16C110.528 55.9573 112.299 57.856 115.84 57.856C116.821 57.856 117.888 57.6853 119.04 57.344V63.68C117.632 64.192 115.925 64.448 113.92 64.448C110.251 64.448 107.435 63.424 105.472 61.376C103.509 59.328 102.528 56.384 102.528 52.544V37.696H96.32V31.68H102.528V23.808L110.528 21.12V31.68H119.104V37.696H110.528ZM142.01 30.912C143.247 30.912 144.314 31.0827 145.21 31.424L145.146 38.72C143.781 38.1653 142.373 37.888 140.922 37.888C138.191 37.888 136.101 38.6773 134.65 40.256C133.242 41.8347 132.538 43.9253 132.538 46.528V64H124.602V40.832C124.602 37.4187 124.431 34.368 124.09 31.68H131.578L132.218 37.376C133.029 35.2853 134.309 33.6853 136.058 32.576C137.807 31.4667 139.791 30.912 142.01 30.912ZM149.665 31.68H157.601V64H149.665V31.68ZM158.049 17.024V24.896H149.153V17.024H158.049ZM178.192 64.512C172.347 64.512 167.696 63.1467 164.24 60.416L166.48 54.784C169.936 57.344 173.883 58.624 178.32 58.624C180.24 58.624 181.712 58.304 182.736 57.664C183.803 57.024 184.336 56.128 184.336 54.976C184.336 53.9947 183.973 53.2267 183.248 52.672C182.523 52.0747 181.285 51.5627 179.536 51.136L174.16 49.92C168.272 48.64 165.328 45.632 165.328 40.896C165.328 38.9333 165.883 37.2053 166.992 35.712C168.101 34.176 169.659 32.9813 171.664 32.128C173.669 31.2747 175.995 30.848 178.64 30.848C180.944 30.848 183.163 31.2107 185.296 31.936C187.429 32.6187 189.307 33.6213 190.928 34.944L188.56 40.384C185.317 37.9947 181.989 36.8 178.576 36.8C176.741 36.8 175.312 37.1413 174.288 37.824C173.264 38.5067 172.752 39.4453 172.752 40.64C172.752 41.5787 173.051 42.3253 173.648 42.88C174.288 43.4347 175.355 43.904 176.848 44.288L182.352 45.504C185.552 46.2293 187.877 47.36 189.328 48.896C190.821 50.3893 191.568 52.352 191.568 54.784C191.568 57.7707 190.373 60.1387 187.984 61.888C185.595 63.6373 182.331 64.512 178.192 64.512ZM216.911 30.848C224.633 30.848 228.495 35.2853 228.495 44.16V64H220.495V44.544C220.495 41.984 220.004 40.128 219.023 38.976C218.041 37.7813 216.527 37.184 214.479 37.184C212.047 37.184 210.084 37.9733 208.591 39.552C207.097 41.088 206.351 43.136 206.351 45.696V64H198.415V16.896H206.351V36.352C207.46 34.6027 208.932 33.2587 210.767 32.32C212.601 31.3387 214.649 30.848 216.911 30.848ZM267.889 31.68V64H260.017V58.816C259.036 60.608 257.628 62.016 255.793 63.04C253.958 64.0213 251.868 64.512 249.521 64.512C246.705 64.512 244.209 63.8293 242.033 62.464C239.857 61.0987 238.172 59.1573 236.977 56.64C235.782 54.1227 235.185 51.2 235.185 47.872C235.185 44.544 235.782 41.6 236.977 39.04C238.214 36.4373 239.921 34.432 242.097 33.024C244.273 31.5733 246.748 30.848 249.521 30.848C251.868 30.848 253.958 31.36 255.793 32.384C257.628 33.3653 259.036 34.752 260.017 36.544V31.68H267.889ZM251.697 58.24C254.342 58.24 256.39 57.3227 257.841 55.488C259.292 53.6533 260.017 51.072 260.017 47.744C260.017 44.3307 259.292 41.7067 257.841 39.872C256.39 38.0373 254.321 37.12 251.633 37.12C248.988 37.12 246.918 38.08 245.425 40C243.974 41.8773 243.249 44.5013 243.249 47.872C243.249 51.2 243.974 53.76 245.425 55.552C246.918 57.344 249.009 58.24 251.697 58.24ZM295.034 30.848C297.807 30.848 300.261 31.5733 302.394 33.024C304.57 34.432 306.255 36.4373 307.45 39.04C308.687 41.6 309.306 44.544 309.306 47.872C309.306 51.2 308.709 54.1227 307.514 56.64C306.319 59.1573 304.634 61.0987 302.458 62.464C300.325 63.8293 297.85 64.512 295.034 64.512C292.687 64.512 290.597 64.0213 288.762 63.04C286.927 62.016 285.519 60.608 284.538 58.816V77.824H276.602V40.832C276.602 37.4187 276.431 34.368 276.09 31.68H283.578L284.218 37.248C285.071 35.2427 286.458 33.6853 288.378 32.576C290.298 31.424 292.517 30.848 295.034 30.848ZM292.858 58.24C295.546 58.24 297.615 57.344 299.066 55.552C300.517 53.76 301.242 51.2 301.242 47.872C301.242 44.5013 300.517 41.8773 299.066 40C297.615 38.08 295.567 37.12 292.922 37.12C290.191 37.12 288.101 38.0373 286.65 39.872C285.199 41.7067 284.474 44.3307 284.474 47.744C284.474 51.1147 285.199 53.7173 286.65 55.552C288.101 57.344 290.17 58.24 292.858 58.24ZM333.698 30.912C334.935 30.912 336.002 31.0827 336.898 31.424L336.834 38.72C335.468 38.1653 334.06 37.888 332.61 37.888C329.879 37.888 327.788 38.6773 326.338 40.256C324.93 41.8347 324.226 43.9253 324.226 46.528V64H316.29V40.832C316.29 37.4187 316.119 34.368 315.778 31.68H323.266L323.906 37.376C324.716 35.2853 325.996 33.6853 327.746 32.576C329.495 31.4667 331.479 30.912 333.698 30.912ZM341.352 31.68H349.288V64H341.352V31.68ZM349.736 17.024V24.896H340.84V17.024H349.736ZM358.04 16.896H365.976V64H358.04V16.896ZM403.015 48.256H380.743C380.914 51.712 381.767 54.272 383.303 55.936C384.882 57.5573 387.207 58.368 390.279 58.368C393.82 58.368 397.106 57.216 400.135 54.912L402.439 60.416C400.903 61.6533 399.004 62.656 396.743 63.424C394.524 64.1493 392.263 64.512 389.959 64.512C384.668 64.512 380.508 63.0187 377.479 60.032C374.45 57.0453 372.935 52.9493 372.935 47.744C372.935 44.4587 373.596 41.536 374.919 38.976C376.242 36.416 378.098 34.432 380.487 33.024C382.876 31.5733 385.586 30.848 388.615 30.848C393.052 30.848 396.551 32.2987 399.111 35.2C401.714 38.0587 403.015 42.0053 403.015 47.04V48.256ZM388.807 36.608C386.674 36.608 384.924 37.248 383.559 38.528C382.236 39.7653 381.383 41.5787 380.999 43.968H396.039C395.783 41.536 395.036 39.7013 393.799 38.464C392.604 37.2267 390.94 36.608 388.807 36.608Z" fill="#E05D2A"/>
<circle cx="29.5" cy="45.5" r="29.5" fill="#E05D2A"/>
<circle cx="36.5" cy="40.5" r="29" stroke="#635D54"/>
</svg>
