<svg width="276" height="156" viewBox="0 0 276 156" fill="none" xmlns="http://www.w3.org/2000/svg">
<g clip-path="url(#clip0)">
<path d="M275.69 0.30896H116.168V103.584H275.69V0.30896Z" fill="white"/>
<path d="M276 103.893H115.858V0H276V103.893ZM116.478 103.275H275.38V0.617885H116.478V103.275Z" fill="#C4C4C4"/>
<path d="M185.904 10.4099C190.589 10.4896 190.589 17.4346 185.904 17.5137C181.218 17.434 181.219 10.4889 185.904 10.4099Z" fill="#FCEDE7"/>
<path d="M195.929 10.4099C200.615 10.4896 200.614 17.4346 195.929 17.5137C191.243 17.434 191.244 10.4889 195.929 10.4099Z" fill="#E05D2A"/>
<path d="M205.954 10.4099C210.64 10.4896 210.639 17.4346 205.954 17.5137C201.269 17.434 201.269 10.4889 205.954 10.4099Z" fill="#CACACA"/>
<path d="M175.626 37.6066H143.722V37.992H175.626V37.6066Z" fill="#CACACA"/>
<path d="M248.329 93.483H204.437V52.6354H248.329V93.483ZM204.823 93.0976H247.943V53.0208H204.824L204.823 93.0976Z" fill="#CACACA"/>
<path d="M204.762 52.6871L204.498 52.9689L248.004 93.4312L248.268 93.1494L204.762 52.6871Z" fill="#CACACA"/>
<path d="M248.005 52.6883L204.497 93.1484L204.761 93.4302L248.269 52.9701L248.005 52.6883Z" fill="#CACACA"/>
<path d="M248.33 32.2116H143.528V25.0826H248.33V32.2116ZM143.915 31.8263H247.943V25.4679H143.915V31.8263Z" fill="#CACACA"/>
<path d="M182.292 63.7238H143.839V56.5947H182.292V63.7238ZM144.225 63.3384H181.905V56.9801H144.225V63.3384Z" fill="#CACACA"/>
<path d="M182.292 75.7726H143.839V68.6435H182.292V75.7726ZM144.225 75.3872H181.905V69.0289H144.225V75.3872Z" fill="#CACACA"/>
<path d="M182.292 87.8213H143.839V80.6923H182.292V87.8213ZM144.225 87.436H181.905V81.0776H144.225V87.436Z" fill="#CACACA"/>
<path d="M153.909 46.4403H143.595C144.391 43.2476 144.295 39.7938 143.595 36.1633H153.909C153.195 37.7829 152.826 39.5327 152.826 41.3018C152.826 43.0708 153.195 44.8206 153.909 46.4403V46.4403Z" fill="#E05D2A"/>
<path d="M151.409 38.3433H145.158V39.589H151.409V38.3433Z" fill="white"/>
<path d="M151.409 40.8347H145.158V42.0803H151.409V40.8347Z" fill="white"/>
<path d="M151.409 43.326H145.158V44.5717H151.409V43.326Z" fill="white"/>
<path d="M231.575 61.9607H221.262C222.058 58.768 221.962 55.3142 221.262 51.6837H231.575C230.861 53.3033 230.492 55.0531 230.492 56.8222C230.492 58.5912 230.861 60.341 231.575 61.9607V61.9607Z" fill="#E05D2A"/>
<path d="M229.075 53.8636H222.824V55.1094H229.075V53.8636Z" fill="white"/>
<path d="M229.075 56.355H222.824V57.6007H229.075V56.355Z" fill="white"/>
<path d="M229.075 58.8464H222.824V60.0921H229.075V58.8464Z" fill="white"/>
<path d="M244.835 39.9385H234.522C235.318 36.7459 235.222 33.2921 234.522 29.6615H244.835C244.121 31.2812 243.753 33.0309 243.753 34.8C243.753 36.5691 244.121 38.3189 244.835 39.9385Z" fill="#E05D2A"/>
<path d="M242.335 31.8414H236.085V33.0871H242.335V31.8414Z" fill="white"/>
<path d="M242.335 34.3329H236.085V35.5786H242.335V34.3329Z" fill="white"/>
<path d="M242.335 36.8243H236.085V38.07H242.335V36.8243Z" fill="white"/>
<path d="M64.0532 47.4067H46.3811V37.9839C46.3811 35.6487 47.312 33.4092 48.9691 31.758C50.6262 30.1067 52.8737 29.1791 55.2172 29.1791C57.5606 29.1791 59.8081 30.1067 61.4652 31.758C63.1223 33.4092 64.0532 35.6487 64.0532 37.9839V47.4067Z" fill="#635D54"/>
<path d="M71.942 152.244H75.7428L77.5512 137.635L71.9414 137.635L71.942 152.244Z" fill="#F9E1B3"/>
<path d="M70.9723 151.008L78.4578 151.008H78.4581C79.7233 151.008 80.9366 151.508 81.8312 152.4C82.7258 153.291 83.2284 154.5 83.2285 155.761V155.915L70.9725 155.916L70.9723 151.008Z" fill="#463926"/>
<path d="M26.5048 147.19L29.8147 149.052L38.5975 137.216L33.7122 134.468L26.5048 147.19Z" fill="#F9E1B3"/>
<path d="M26.2707 145.638L32.7893 149.305L32.7896 149.305C33.8912 149.925 34.7007 150.955 35.0399 152.17C35.3791 153.385 35.2203 154.684 34.5984 155.781L34.5221 155.916L23.8494 149.912L26.2707 145.638Z" fill="#463926"/>
<path d="M50.7973 86.5412L50.504 88.0026C50.504 88.0026 49.6241 88.8795 50.064 89.3179C50.504 89.7564 50.3574 91.8024 50.3574 91.8024C50.1113 95.5331 45.2192 116.498 44.3443 120.593C44.3443 120.593 37.5978 124.977 32.3181 133.599C27.0383 142.222 26.8916 144.414 26.8916 144.414L32.758 146.898L47.4241 129.215C47.4241 129.215 51.5306 126.731 52.9972 124.538C54.4638 122.346 63.5568 99.6941 63.5568 99.6941L68.69 123.369C68.69 123.369 68.3966 131.992 69.7166 137.545C70.5282 141.05 71.0191 144.62 71.1832 148.214L78.0763 147.483C78.0763 147.483 77.6363 126.731 76.903 124.538C76.903 124.538 79.9829 99.2556 73.8231 89.1717L68.8588 75.9839L63.9968 74.119L50.7973 86.5412Z" fill="#C4C4C4"/>
<path d="M55.1265 31.4824C64.3803 31.6399 64.3788 45.356 55.1262 45.5121C45.8728 45.3547 45.8743 31.6386 55.1265 31.4824Z" fill="#F9E1B3"/>
<path d="M62.2478 38.1333H60.6751L60.2469 37.0663L60.461 38.1333H51.8593L52.1392 35.9007L50.0483 38.1333H47.9625V36.9235C47.9608 35.9877 48.1442 35.0607 48.5024 34.1957C48.8606 33.3306 49.3864 32.5444 50.0498 31.8821C50.7133 31.2198 51.5013 30.6943 52.3687 30.3358C53.2362 29.9773 54.1661 29.7928 55.1052 29.7928C56.0443 29.7928 56.9742 29.9773 57.8416 30.3358C58.7091 30.6943 59.4971 31.2198 60.1605 31.8821C60.8239 32.5444 61.3498 33.3306 61.7079 34.1957C62.0661 35.0607 62.2496 35.9877 62.2478 36.9235V38.1333Z" fill="#635D54"/>
<path d="M64.6682 49.6096L47.1807 49.7506L50.8767 87.1058C50.8767 87.1058 71.3265 86.0303 71.3392 79.8104L69.4233 74.2832L64.6682 49.6096Z" fill="#E05D2A"/>
<path d="M97.2131 114.791L36.2531 127.37C35.6297 127.497 34.9108 126.572 34.6459 125.301L28.2385 94.47C27.9745 93.1995 28.2665 92.0662 28.8891 91.9355L89.8491 79.3561C90.4725 79.2291 91.1914 80.1541 91.4563 81.4247L97.8636 112.256C98.1268 113.526 97.835 114.661 97.2131 114.791Z" fill="white"/>
<path d="M51.0308 105.521C54.0373 105.521 56.4745 103.093 56.4745 100.097C56.4745 97.1009 54.0373 94.6722 51.0308 94.6722C48.0243 94.6722 45.587 97.1009 45.587 100.097C45.587 103.093 48.0243 105.521 51.0308 105.521Z" fill="#E6E6E6"/>
<path d="M71.1488 113.016L44.9986 118.412C44.9659 118.419 44.9327 118.423 44.8993 118.424L52.8314 94.5252C52.8792 94.3766 52.9657 94.2434 53.0821 94.139C53.1986 94.0347 53.3407 93.9631 53.494 93.9315C53.6473 93.8998 53.8063 93.9093 53.9547 93.959C54.1032 94.0086 54.2357 94.0967 54.3388 94.2141L65.6162 106.827L66.1565 107.43L71.1488 113.016Z" fill="#FCEDE7"/>
<path d="M85.7085 110.012L63.0905 114.679L66.1548 107.431L66.3752 106.909L70.3684 97.4636C70.4432 97.3162 70.5482 97.1863 70.6766 97.082C70.8051 96.9778 70.9541 96.9017 71.114 96.8587C71.274 96.8156 71.4412 96.8066 71.6048 96.8322C71.7685 96.8578 71.9249 96.9175 72.0639 97.0073C72.1002 97.0335 72.1347 97.0619 72.1673 97.0924L85.7085 110.012Z" fill="#FCEDE7"/>
<path d="M97.2131 114.791L36.2531 127.37C35.6297 127.497 34.9108 126.572 34.6459 125.301L28.2385 94.47C27.9745 93.1995 28.2665 92.0662 28.8891 91.9355L89.8491 79.3561C90.4725 79.2291 91.1914 80.1541 91.4563 81.4247L97.8636 112.256C98.1268 113.526 97.835 114.661 97.2131 114.791ZM29.0804 92.8561C28.7064 92.9332 28.5321 93.6145 28.69 94.3768L35.0973 125.208C35.2557 125.97 35.6876 126.526 36.0617 126.449L97.0217 113.87C97.3957 113.793 97.5701 113.112 97.4121 112.349L91.0048 81.5179C90.8464 80.7556 90.4146 80.2003 90.0404 80.2767L29.0804 92.8561Z" fill="#CACACA"/>
<path d="M79.1775 86.2536C78.7927 86.0737 78.4522 85.8119 78.18 85.4866C77.9078 85.1614 77.7104 84.7806 77.6019 84.3712C77.4933 83.9617 77.4761 83.5335 77.5516 83.1167C77.6271 82.6999 77.7933 82.3047 78.0387 81.9589L74.4973 76.3578L77.3883 73.3832L82.2778 81.363C82.8335 81.8122 83.2046 82.4489 83.3207 83.1525C83.4367 83.8561 83.2898 84.5777 82.9076 85.1805C82.5255 85.7833 81.9347 86.2255 81.2472 86.4233C80.5597 86.6211 79.8233 86.5607 79.1775 86.2536V86.2536Z" fill="#F9E1B3"/>
<path d="M61.9813 51.0807L64.5184 49.4148C64.5184 49.4148 66.4762 49.8521 68.5585 53.8432C70.6409 57.8343 79.0381 75.6767 79.0381 75.6767L75.5866 79.1687L66.3786 65.1709L61.9813 51.0807Z" fill="#E05D2A"/>
<path d="M46.4322 90.7171C46.7009 90.3889 46.8942 90.0061 46.9983 89.5955C47.1025 89.1849 47.115 88.7565 47.0351 88.3406C46.9551 87.9246 46.7846 87.5312 46.5355 87.188C46.2865 86.8448 45.965 86.5602 45.5936 86.3543L46.3534 79.7777L42.4553 78.3428L41.5132 87.6452C41.2073 88.2898 41.1493 89.0239 41.3503 89.7082C41.5512 90.3926 41.9971 90.9797 42.6035 91.3583C43.2098 91.737 43.9345 91.8808 44.6401 91.7627C45.3458 91.6445 45.9834 91.2724 46.4322 90.7171H46.4322Z" fill="#F9E1B3"/>
<path d="M49.4816 52.9676L47.1807 49.763C47.1807 49.763 45.6061 49.4148 43.7459 51.5774C41.8857 53.74 40.8005 80.7725 40.8005 80.7725L47.6214 82.3172L51.6518 63.1627L49.4816 52.9676Z" fill="#E05D2A"/>
<path d="M118.434 156H0.310037C0.22781 156 0.148951 155.967 0.0908076 155.91C0.0326643 155.852 0 155.773 0 155.691C0 155.609 0.0326643 155.531 0.0908076 155.473C0.148951 155.415 0.22781 155.382 0.310037 155.382H118.434C118.517 155.382 118.595 155.415 118.654 155.473C118.712 155.531 118.744 155.609 118.744 155.691C118.744 155.773 118.712 155.852 118.654 155.91C118.595 155.967 118.517 156 118.434 156Z" fill="#CACACA"/>
<path d="M42.4299 100.097L32.3414 102.232C32.4547 98.944 31.6409 95.5854 30.1993 92.1789L40.2879 90.0444C39.927 91.7766 39.931 93.5645 40.2997 95.295C40.6685 97.0255 41.3938 98.6608 42.4299 100.097V100.097Z" fill="#E05D2A"/>
<path d="M38.2966 92.6943L32.1824 93.9879L32.442 95.2064L38.5563 93.9128L38.2966 92.6943Z" fill="white"/>
<path d="M38.8159 95.1314L32.7017 96.425L32.9613 97.6435L39.0756 96.3499L38.8159 95.1314Z" fill="white"/>
<path d="M39.3352 97.5685L33.2209 98.8621L33.4806 100.081L39.5949 98.787L39.3352 97.5685Z" fill="white"/>
</g>
<defs>
<clipPath id="clip0">
<rect width="276" height="156" fill="white"/>
</clipPath>
</defs>
</svg>
